paperwork_dots.sfdir
StartChar: exclam
Encoding: 33 33 65
Width: 183
Flags: MW
HStem: 0 26<19 51 19 51 43 51 43 70 21 51 43 102 43 70 121.5 132> 44 102<80 94> 112 92<44.5 54> 193 70<99.5 113 99.5 165> 214 49<99.5 113> 282 49<60 73.5 140.5 148.5> 350 49<30 30 101 115> 418 49<61.5 75 149 150 149 154> 486 49<30 36.5 102.5 116> 554 50<144 151.5 151 151.5 144 154> 622 49<30 31 30 31> 622 82<30 31 30 30 104 118>
VStem: 19 31<193 244 232 244 232 262 232 351> 45 50<572 585.5> 62 50<62 76> 87 49<640 653.5> 126 39<572 585.5> 143 22<65 73.5>
LayerCount: 2
Back
Fore
SplineSet
19 90 m 1xd7ea80
 19 146 l 1
 165 146 l 1
 165 94 l 1
 165 45 l 1
 165 0 l 1
 151 0 l 1
 151 0 l 1
 102 0 l 1
 102 0 l 1
 70 0 l 1
 70 0 l 1
 21 0 l 1
 21 0 l 1
 19 0 l 1
 19 48 l 1
 19 90 l 1xd7ea80
154 90 m 1
 154 135 l 1
 153 135 l 1
 152 122 141 113 128 113 c 0
 115 113 105 122 103 135 c 1
 72 135 l 1
 71 122 60 112 48 112 c 0
 41 112 35 115 30 120 c 1
 30 76 l 2
 31 74 31 72 31 69 c 0
 31 67 31 64 30 62 c 2
 30 20 l 1
 34 24 40 26 46 26 c 0
 56 26 65 20 69 11 c 1
 104 11 l 1
 107 20 116 26 127 26 c 0
 137 26 146 20 149 11 c 1
 154 11 l 1
 154 49 l 1
 147 53 143 61 143 69 c 0xafda40
 143 78 147 86 154 90 c 1
130 704 m 1
 165 704 l 1
 165 704 l 1
 165 694 l 1
 165 599 l 1
 165 559 l 1
 165 461 l 1
 165 424 l 1
 165 383 l 1
 165 366 l 1
 165 323 l 1
 165 289 l 1
 165 251 l 1
 165 226 l 1
 165 193 l 1
 19 193 l 1xd7da80
 19 214 l 1
 19 262 l 1
 19 351 l 1
 19 398 l 1
 19 488 l 1
 19 533 l 1
 19 625 l 1
 19 669 l 1
 19 704 l 1
 50 704 l 1
 50 704 l 1
 94 704 l 1
 94 704 l 1
 130 704 l 1
 130 704 l 1
154 603 m 2
 154 690 l 1
 154 690 153 690 152 690 c 0
 148 690 144 691 141 693 c 2
 84 693 l 2
 80 691 76 690 72 690 c 0
 68 690 63 691 60 693 c 2
 30 693 l 1
 30 671 l 1
 30 671 31 671 31 671 c 2
 44 671 55 660 55 647 c 0
 55 633 44 622 31 622 c 2
 31 622 30 622 30 622 c 1
 30 535 l 1
 43 534 54 524 54 510 c 0
 54 497 43 486 30 486 c 1
 30 399 l 1
 42 397 52 387 52 374 c 0
 52 361 42 351 30 350 c 1
 30 262 l 1
 42 260 50 250 50 238 c 0
 50 226 42 216 30 214 c 1
 30 204 l 1
 154 204 l 1xafe940
 154 283 l 2
 152 282 150 282 147 282 c 0
 134 282 122 293 122 306 c 0
 122 320 134 331 147 331 c 0
 150 331 152 331 154 330 c 2
 154 418 l 2
 153 418 151 418 149 418 c 0
 135 418 124 429 124 443 c 0
 124 456 135 467 149 467 c 0
 151 467 153 467 154 467 c 2
 154 554 l 2
 153 554 152 554 151 554 c 0
 137 554 126 565 126 579 c 0
 126 592 137 604 151 604 c 0
 152 604 153 603 154 603 c 2
111 672 m 0
 125 672 136 660 136 647 c 0
 136 633 125 622 111 622 c 0
 97 622 87 633 87 647 c 0
 87 660 97 672 111 672 c 0
95 579 m 0xcfe480
 95 565 84 554 70 554 c 0
 56 554 45 565 45 579 c 0
 45 592 56 603 70 603 c 0
 84 603 95 592 95 579 c 0xcfe480
85 511 m 0
 85 524 96 535 109 535 c 0
 123 535 134 524 134 511 c 0
 134 497 123 486 109 486 c 0
 96 486 85 497 85 511 c 0
93 442 m 0
 93 429 82 418 68 418 c 0
 55 418 44 429 44 442 c 0
 44 456 55 467 68 467 c 0
 82 467 93 456 93 442 c 0
83 374 m 0
 83 388 94 399 108 399 c 0
 122 399 133 388 133 374 c 0
 133 361 122 350 108 350 c 0
 94 350 83 361 83 374 c 0
91 306 m 0
 91 292 80 282 67 282 c 0
 53 282 42 292 42 306 c 0
 42 320 53 331 67 331 c 0
 80 331 91 320 91 306 c 0
81 238 m 0
 81 252 93 263 106 263 c 0
 120 263 131 252 131 238 c 0
 131 224 120 214 106 214 c 0
 93 214 81 224 81 238 c 0
87 94 m 0xd7e940
 101 94 112 83 112 69 c 0xd7ea80
 112 55 101 44 87 44 c 0xd7e940
 73 44 62 55 62 69 c 0xd7ea80
 62 83 73 94 87 94 c 0xd7e940
EndSplineSet
EndChar
StartChar: ampersand
Encoding: 38 38 26
Width: 567
Flags: MW
HStem: 0 36<151 166 238.5 254 120 166> 0 83<295.5 308.5 295.5 343 295.5 343> 57 52<108 123.5 196 206.5> 102 55<338.5 353> 176 57 221 55<170 178 177 182> 252 97 295 54<127 141 215 229> 366 55<101 116.5> 444 53<59 68.5> 518 52<98.5 113> 573 128<288.5 304> 592 52<143.5 158> 646 55<246 261 334 348>
VStem: 39 50<463 477.5 611 613 613 613> 63 81 79 53<10 38 10 38 537 551> 79 65<38 90 38 90> 79 126<10 38 10 38> 106 54<164 180.5> 134 43 134 114 151 42 151 116<173 211.5 173 211.5 200.5 254> 177 109<76 133> 239 47<102 133> 269 43 269 55<592.5 608> 284 54<461 476.5> 315 52<10 40 666.5 670> 329 52<535.5 551> 362 43<53.5 78> 362 55<26 64> 450 55<197 211.5>
LayerCount: 2
Back
Fore
SplineSet
547 204 m 1xaaf2108440
 498 154 l 1
 538 114 l 1
 426 2 l 1
 386 43 l 1
 343 0 l 1
 334 7 l 1
 367 40 l 1x5aee024440
 365 45 362 50 362 57 c 0xaaf21080c0
 362 71 374 83 388 83 c 0
 395 83 400 81 405 78 c 1
 386 59 l 1
 431 105 l 1
 417 105 407 116 407 131 c 0
 407 145 419 157 433 157 c 0
 448 157 460 147 460 133 c 1
 433 107 l 1
 531 204 l 1
 514 221 l 1x55f2108140
 512 223 l 1
 495 240 l 1
 490 245 l 1
 476 259 l 1
 471 264 l 1
 455 280 l 1
 452 283 l 1
 436 299 l 1
 388 252 l 1
 386 249 l 1
 386 249 l 1
 291 154 l 1
 291 154 l 1
 281 145 l 1
 281 145 l 1
 281 145 l 1
 284 140 286 135 286 131 c 0
 286 114 274 102 258 102 c 0
 253 102 248 105 243 107 c 1
 239 102 l 1
 231 112 l 1
 274 154 l 1
 203 226 l 1
 160 183 l 1x9af2104440
 172 169 l 1
 172 169 l 1
 334 7 l 1
 334 7 334 7 334 7 c 1
 334 7 l 1
 334 7 l 1
 343 0 l 1
 120 0 l 1
 79 38 l 1
 79 38 l 1xaaf0884440
 49 69 l 1
 56 78 l 1
 70 64 l 1
 70 67 l 1
 106 29 l 1xaaf2108440
 125 10 l 1
 158 10 l 1
 165 10 l 1
 196 10 l 1
 205 10 l 1
 236 10 l 1
 246 10 l 1
 277 10 l 1
 284 10 l 1xaaf0200940
 308 10 l 1
 308 10 308 10 308 10 c 1
 308 12 308 14 308 17 c 2
 315 10 l 1
 184 143 l 1
 184 143 l 1
 172 152 l 1
 165 162 l 1
 160 164 l 1
 184 143 l 1
 177 135 170 131 160 131 c 0xaaf2108440
 146 131 134 143 134 157 c 1x9af2042440
 151 173 l 1
 153 173 l 1
 151 173 l 1
 153 176 l 1
 49 69 l 1
 49 295 l 1
 91 337 l 1
 39 387 l 1x99f2024440
 49 397 l 1
 49 397 l 1
 49 397 l 1
 49 397 49 397 49 397 c 1
 98 345 l 1
 193 440 l 1
 144 492 l 1xaaf0424440
 151 501 l 1
 203 449 l 1
 217 463 l 1
 217 463 l 1
 293 539 l 1
 236 594 l 1
 241 589 l 1
 184 535 l 1
 184 535 l 1
 151 501 l 1
 39 387 l 1
 39 613 l 1
 108 682 l 1
 108 682 l 1
 129 701 l 1
 353 701 l 1
 405 651 l 1
 405 634 l 1
 405 634 l 1
 405 428 l 1xaaf2024140
 319 342 l 1
 319 342 l 1
 315 337 l 1
 386 266 l 1
 436 316 l 1
 547 204 l 1xaaf2108440
393 623 m 1
 393 623 l 1
 388 618 l 1
 393 623 l 1
 393 623 l 1
49 454 m 1
 49 454 l 1
 49 470 l 1
 49 454 l 1
231 599 m 1
 231 599 l 1
 136 694 l 1
 129 684 l 1
 117 672 l 1
 108 665 l 1
 82 637 l 1
 82 637 l 1
 70 627 l 1
 70 627 l 1
 49 606 l 1
 49 606 l 1
 82 637 l 1
 87 632 89 625 89 618 c 0xaaee024440
 89 604 77 592 63 592 c 0xaaed024440
 58 592 53 592 49 594 c 1
 49 606 l 1
 49 575 l 1
 49 565 l 1
 49 535 l 1
 49 525 l 1
 49 494 l 1
 49 489 l 1
 49 494 l 1
 53 497 58 497 60 497 c 0
 77 497 89 485 89 470 c 0
 89 456 77 444 60 444 c 0
 58 444 53 444 49 447 c 1
 49 416 l 1
 160 527 l 1xaaee108440
 167 535 l 2
 167 537 167 542 167 544 c 0
 167 558 179 570 193 570 c 0
 196 570 201 570 203 570 c 2
 212 577 l 1
 212 577 l 1
 224 589 l 1
 224 592 l 1
 227 594 l 1
 217 596 210 608 210 618 c 2
 210 618 210 620 210 620 c 1
 231 599 l 1
189 658 m 1
 300 546 l 1
 357 604 l 1
 360 615 369 625 381 627 c 1xaaee042240
 395 642 l 1
 367 670 l 1
 367 658 355 646 341 646 c 0
 327 646 315 658 315 675 c 0
 315 682 317 687 322 691 c 1
 315 691 l 1
 305 691 l 1
 274 691 l 1
 274 691 l 1
 279 687 281 682 281 675 c 0
 281 658 269 646 253 646 c 0
 239 646 227 658 227 675 c 0
 227 682 229 687 234 691 c 1
 227 691 l 1
 196 691 l 1
 186 691 l 1
 186 691 l 1
 191 687 193 680 193 675 c 0
 193 668 191 663 189 658 c 1
58 128 m 1
 58 97 l 1
 60 100 l 1
 60 114 72 126 87 126 c 1
 115 154 l 1
 108 159 106 166 106 173 c 0xaaf2108240
 106 188 117 200 132 200 c 0
 141 200 148 197 153 192 c 1
 182 221 l 2
 179 221 179 221 177 221 c 0xa5f0808440
 163 221 151 233 151 247 c 0xa5f2012440
 151 261 163 276 177 276 c 0xa5f2084440
 191 276 203 261 203 247 c 0
 203 245 203 245 203 242 c 2
 281 321 l 1
 281 321 281 321 281 321 c 1
 281 337 293 349 310 349 c 1
 310 349 310 349 310 349 c 1
 319 359 l 1
 319 359 l 1
 393 432 l 1
 393 466 l 1
 393 468 l 1
 393 442 l 1
 381 444 372 456 372 470 c 0
 372 482 381 494 393 497 c 1
 393 504 l 1
 393 513 l 1
 393 544 l 1
 393 554 l 1
 393 584 l 1
 393 592 l 1
 386 592 379 599 376 606 c 1
 300 530 l 1
 300 530 l 1
 248 478 l 2
 250 475 250 473 250 468 c 0
 250 454 239 442 224 442 c 0
 220 442 217 442 215 444 c 2
 234 463 l 1
 224 456 l 1
 217 447 l 1
 217 447 l 1
 217 447 l 1
 210 440 l 1
 210 440 l 1
 203 432 l 1
 203 432 l 1
 108 337 l 1
 108 337 l 1
 98 328 l 1
 98 328 l 1
 58 287 l 1
 58 257 l 1
 58 247 l 1
 58 216 l 1
 58 207 l 1
 58 176 l 1
 58 171 l 1
 58 197 l 1
 65 192 72 183 72 173 c 0
 72 164 65 154 58 150 c 1
 58 138 l 1
 58 128 l 1
376 257 m 1
 376 257 l 1
 305 328 l 1
 284 307 l 1xaaf21008c0
 284 307 284 307 286 307 c 0xaaf2108440
 300 307 312 292 312 278 c 0xaaf2102440
 312 264 300 252 286 252 c 0xaaf2108440
 269 252 258 264 258 278 c 0
 258 280 258 280 258 280 c 1
 265 285 l 1
 210 233 l 1
 222 223 l 1
 227 228 234 230 241 230 c 0
 255 230 267 219 267 204 c 0xaaf2012440
 267 197 265 190 260 185 c 1
 281 162 l 1
 308 188 l 1
 303 192 300 200 300 204 c 0
 300 219 312 233 329 233 c 0
 334 233 341 230 346 226 c 1
 372 252 l 1
 357 252 346 264 346 278 c 0
 346 283 346 285 348 287 c 2
 376 257 l 1
517 116 m 1
 488 145 l 1
 393 50 l 1
 393 50 l 1
 422 76 l 1
 431 74 438 64 438 52 c 0
 438 40 429 31 417 26 c 1
 426 19 l 1
 441 33 l 1
 445 38 l 1
 462 55 l 1
 467 57 l 1
 476 69 l 2
 476 71 479 74 483 74 c 2
 486 78 l 1
 500 93 l 1
 505 97 l 1
 521 114 l 1
 519 112 l 2
 519 114 517 116 517 116 c 1
296 627 m 0
 312 627 324 615 324 601 c 0
 324 584 312 573 296 573 c 0
 281 573 269 584 269 601 c 0xaaf2081240
 269 615 281 627 296 627 c 0
134 691 m 1
 134 677 122 665 108 665 c 1
 134 691 l 1
125 618 m 0
 125 632 136 644 151 644 c 0xaaee012440
 165 644 177 632 177 618 c 0xaaee084440
 177 604 165 592 151 592 c 0xaaee024440
 136 592 125 604 125 618 c 0
106 570 m 0xaaf2108440
 120 570 132 558 132 544 c 0xaaf0884440
 132 530 120 518 106 518 c 0xaaf2108440
 91 518 79 530 79 544 c 0xaaf0884440
 79 558 91 570 106 570 c 0xaaf2108440
153 440 m 0
 139 440 127 454 127 468 c 0
 127 470 127 475 129 478 c 2
 144 492 l 1xaaf1024240
 177 456 l 1xaaf2084440
 174 447 165 440 153 440 c 0
108 366 m 0
 94 366 82 378 82 394 c 0
 82 409 94 421 108 421 c 0
 125 421 136 409 136 394 c 0
 136 378 125 366 108 366 c 0
355 516 m 0
 341 516 329 527 329 544 c 0
 329 558 341 570 355 570 c 0
 369 570 381 558 381 544 c 0
 381 527 369 516 355 516 c 0
310 442 m 0
 296 442 284 454 284 468 c 0
 284 485 296 497 310 497 c 0
 327 497 338 485 338 468 c 0xaaf0200940
 338 454 327 442 310 442 c 0
179 368 m 0
 167 368 158 375 153 385 c 1
 189 421 l 1
 198 416 205 406 205 394 c 0
 205 380 193 368 179 368 c 0
267 368 m 0xaaf2012440
 250 368 239 380 239 394 c 0xaaf2104440
 239 411 250 423 267 423 c 0
 281 423 293 411 293 394 c 0
 293 380 281 368 267 368 c 0xaaf2012440
327 394 m 0
 327 411 338 423 353 423 c 0
 362 423 369 418 374 413 c 1
 336 375 l 1
 331 380 327 387 327 394 c 0
134 295 m 0xa9f2084440
 120 295 108 307 108 321 c 0
 108 335 120 349 134 349 c 0xa9f2084440
 148 349 160 335 160 321 c 0xa9f2108440
 160 307 148 295 134 295 c 0xa9f2084440
193 321 m 0xa9f2024440
 193 337 208 349 222 349 c 0
 236 349 248 337 248 321 c 0xaaf2042440
 248 307 236 295 222 295 c 0
 208 295 193 307 193 321 c 0xa9f2024440
115 247 m 0
 115 233 103 221 89 221 c 0xa5f2108440
 75 221 63 233 63 247 c 0xa5f1024440
 63 261 75 273 89 273 c 0
 103 273 115 261 115 247 c 0
115 57 m 0
 101 57 89 69 89 83 c 0x5af2108440
 89 97 101 109 115 109 c 0xaaf2108440
 132 109 144 97 144 83 c 0x5af1024440
 144 69 132 57 115 57 c 0
203 57 m 0
 189 57 177 69 177 83 c 0x5af2084440
 177 97 189 109 203 109 c 0xaaf2108440
 210 109 215 109 220 105 c 2
 224 100 l 2
 229 95 231 90 231 83 c 0x5af2108440
 231 69 220 57 203 57 c 0
132 10 m 1
 132 24 144 36 158 36 c 0
 174 36 186 24 186 10 c 1
 186 10 186 10 186 10 c 1
 132 10 l 1
 132 10 132 10 132 10 c 1
220 10 m 1
 220 24 231 36 246 36 c 0
 262 36 274 24 274 10 c 1
 274 10 274 10 274 10 c 1
 220 10 l 1
 220 10 220 10 220 10 c 1
436 252 m 0
 422 252 412 259 410 273 c 1
 436 299 l 1
 462 273 l 1
 460 261 448 252 436 252 c 0
327 190 m 2
 324 185 322 183 317 181 c 2
 327 190 l 2
391 176 m 0
 376 176 365 190 365 204 c 0
 365 219 376 230 391 230 c 0
 405 230 417 219 417 204 c 0
 417 190 405 176 391 176 c 0
479 178 m 0
 464 178 450 190 450 204 c 0
 450 219 464 230 479 230 c 0
 493 230 505 219 505 204 c 0
 505 190 493 178 479 178 c 0
372 131 m 0
 372 114 360 102 346 102 c 0
 331 102 319 114 319 131 c 0
 319 145 331 157 346 157 c 0x5af2108440
 360 157 372 145 372 131 c 0
300 83 m 0
 317 83 329 71 329 57 c 0xaaf2108240
 329 45 322 36 310 31 c 1
 277 67 l 1
 279 76 291 83 300 83 c 0
481 126 m 0
 481 112 469 100 455 100 c 0
 452 100 448 100 445 102 c 2
 479 135 l 2
 481 133 481 131 481 126 c 0
EndSplineSet
EndChar
StartChar: period
Encoding: 46 46 66
Width: 180
Flags: MW
HStem: 0 26<18 50 18 50 42 50 42 69 20 50 42 101 42 69 120.5 131> 44 102<79 93> 112 34<43.5 53>
VStem: 18 93<0 76 62 76 62 90 62 146 62 146> 61 50<62 76> 142 22<65 73.5>
LayerCount: 2
Back
Fore
SplineSet
18 90 m 1xd4
 18 146 l 1
 164 146 l 1
 164 94 l 1
 164 45 l 1
 164 0 l 1
 150 0 l 1
 150 0 l 1
 101 0 l 1
 101 0 l 1
 69 0 l 1
 69 0 l 1
 20 0 l 1
 20 0 l 1
 18 0 l 1
 18 48 l 1
 18 90 l 1xd4
153 90 m 1
 153 135 l 1
 152 135 l 1
 151 122 140 113 127 113 c 0
 114 113 104 122 102 135 c 1
 71 135 l 1
 70 122 59 112 47 112 c 0xac
 40 112 34 115 29 120 c 1
 29 76 l 2
 30 74 30 72 30 69 c 0
 30 67 30 64 29 62 c 2
 29 20 l 1
 33 24 39 26 45 26 c 0
 55 26 64 20 68 11 c 1
 103 11 l 1
 106 20 115 26 126 26 c 0
 136 26 145 20 148 11 c 1
 153 11 l 1
 153 49 l 1
 146 53 142 61 142 69 c 0
 142 78 146 86 153 90 c 1
86 94 m 0
 100 94 111 83 111 69 c 0
 111 55 100 44 86 44 c 0xd4
 72 44 61 55 61 69 c 0
 61 83 72 94 86 94 c 0
EndSplineSet
EndChar
StartChar: zero
Encoding: 48 48 53
Width: 498
Flags: MW
HStem: 0 63<210.5 223.5 290.5 304.5 121 169> 13 50<210.5 223.5> 83 48<101 101 251 265.5 330.5 337 420 420 420 420> 83 63<101 101 251 265.5 330.5 337> 135 64<34 64.5 49 64.5 52.5 64.5 131.5 142.5> 149 50<52.5 64.5 131.5 142.5> 216 50<92.5 105.5> 286 48<133 144 374.5 387.5 454 463> 354 48<23 23 23 23 93.5 107.5 414.5 428.5> 422 48<54.5 68.5 134 144 375.5 389.5> 489 48<23 23 23 23 94.5 109> 489 79<94.5 204 348 348 417 431.5> 557 50<169 391.5 348 391.5 348 391.5 368 391.5 377.5 391.5 377.5 394 377.5 398 377.5 420 377.5 425 377.5 446> 625 50<158 190.5 338.5 346> 625 76<106 337 106 337 181 190.5 257.5 271.5 169 352.5>
VStem: 23 59<167 181.5> 36 46 77 44<63 92> 119 50<574.5 587 587 587.5> 158 50<642.5 655.5 642.5 675 642.5 675> 200 41 239 50<642.5 655.5> 278 50<579 587.5> 320 28 337 33 359 50<579 587.5> 394 55<506.5 557> 438 43<439 452.5>
LayerCount: 2
Back
Fore
SplineSet
481 557 m 1xabed2a90
 481 146 l 1x97ed2950
 442 107 l 2
 442 105 442 105 442 105 c 1
 420 83 l 1
 420 83 420 83 420 83 c 1
 394 57 l 1
 394 57 394 57 394 57 c 1xabed2aa0
 359 22 l 1
 359 22 359 22 359 22 c 1
 348 11 l 1xabed2950
 337 0 l 1
 169 0 l 1
 149 17 l 1
 149 17 149 17 149 17 c 1
 117 52 l 1
 117 52 117 52 117 52 c 1
 82 87 l 2xabed2aa0
 79 87 79 90 77 92 c 2
 34 135 l 1xabec5550
 23 146 l 1
 23 218 l 1
 23 218 l 1
 23 266 l 1
 23 266 l 1
 23 354 l 1
 23 354 l 1
 23 402 l 1
 23 402 l 1
 23 489 l 1
 23 489 l 1
 23 537 l 1
 23 537 l 1
 23 557 l 1x97ed2aa0
 169 701 l 1
 337 701 l 1
 470 568 l 1xabd32aa0
 481 557 l 1xabed2a90
333 690 m 1
 169 690 l 1
 169 670 l 1
 169 668 l 1x97ecaaa0
 173 670 178 673 184 673 c 0
 197 673 208 662 208 649 c 0xabed1550
 208 636 197 625 184 625 c 0
 178 625 173 627 169 629 c 1
 169 618 l 1
 169 614 l 1
 169 592 l 1
 169 587 l 1
 169 568 l 1
 204 568 l 1
 200 572 200 577 200 581 c 0
 200 594 210 605 224 605 c 0
 237 605 248 594 248 581 c 0
 248 577 248 572 243 568 c 1
 283 568 l 1
 280 572 278 577 278 581 c 0
 278 594 289 605 304 605 c 0
 318 605 328 594 328 581 c 0
 328 577 326 572 324 568 c 1
 337 568 l 1
 363 568 l 1xabd52aa0
 361 572 359 577 359 581 c 0
 359 594 370 607 385 607 c 0xabed2a50
 398 607 409 594 409 581 c 0
 409 577 407 572 405 568 c 1
 444 568 l 1
 442 572 440 577 440 581 c 0
 440 583 440 583 440 583 c 1
 435 587 l 1
 431 592 l 1
 409 614 l 1xabd52a50
 405 618 l 1
 385 640 l 1
 379 644 l 1
 370 655 l 2
 370 653 370 651 370 649 c 0xabed2aa0
 370 636 359 625 346 625 c 0
 331 625 320 636 320 649 c 0
 320 662 331 675 346 675 c 1
 346 675 348 673 350 673 c 2
 333 690 l 1
337 537 m 1
 337 557 l 1
 169 557 l 1
 169 146 l 1
 337 146 l 1
 337 218 l 1
 337 218 l 1
 337 266 l 1
 337 266 l 1
 337 354 l 1
 337 354 l 1
 337 402 l 1
 337 402 l 1
 337 489 l 1
 337 489 l 1
 337 537 l 1
 337 537 l 1
34 166 m 1
 34 146 l 1
 55 146 l 1
 60 146 l 1
 79 146 l 1
 86 146 l 1
 106 146 l 1
 112 146 l 1
 132 146 l 1
 138 146 l 1
 158 146 l 1
 158 159 l 1
 154 153 147 149 138 149 c 0
 125 149 114 162 114 175 c 0
 114 188 125 199 138 199 c 0
 147 199 154 194 158 188 c 1
 158 229 l 2
 156 234 154 238 154 242 c 0
 154 247 156 251 158 256 c 2
 158 293 l 1
 154 288 147 286 141 286 c 0
 125 286 114 297 114 310 c 0
 114 323 125 334 141 334 c 0
 147 334 154 332 158 325 c 1
 158 369 l 2
 156 371 156 373 156 378 c 0
 156 380 156 384 158 387 c 2
 158 426 l 1
 154 424 147 422 141 422 c 0
 127 422 117 432 117 446 c 0
 117 459 127 470 141 470 c 0
 147 470 154 467 158 463 c 1
 158 511 l 1
 158 511 158 513 158 513 c 1
 158 513 158 513 158 515 c 2
 158 557 l 1
 158 561 l 1x97ec54a0
 154 559 149 557 143 557 c 0
 130 557 119 568 119 581 c 0xabed2aa0
 119 594 130 605 143 605 c 0
 149 605 154 603 158 601 c 1
 158 675 l 1xabed1550
 138 655 l 1
 132 649 l 1
 127 646 l 1
 127 633 119 625 106 625 c 1
 106 625 l 1
 86 603 l 1
 79 598 l 1
 84 594 88 587 88 581 c 0
 88 568 77 557 62 557 c 0
 55 557 49 559 45 563 c 1
 34 553 l 1
 34 535 l 1
 42 531 47 522 47 513 c 0
 47 505 42 496 34 491 c 1
 34 397 l 1
 40 393 45 387 45 378 c 0
 45 369 40 363 34 356 c 1
 34 260 l 1
 40 256 42 249 42 242 c 0
 42 234 40 227 34 223 c 1
 34 181 l 1
 38 192 47 199 58 199 c 0
 71 199 82 188 82 175 c 0
 82 159 71 149 58 149 c 0
 47 149 38 157 34 166 c 1
337 57 m 1
 337 63 l 1
 337 83 l 1
 324 83 313 94 313 107 c 0
 313 120 324 131 337 131 c 1
 337 135 l 1
 169 135 l 1
 49 135 l 1
 71 114 l 1
 73 111 l 1
 75 122 86 131 97 131 c 0xabed2aa0
 110 131 121 120 121 107 c 0
 121 94 112 85 101 83 c 1
 121 63 l 1
 123 59 l 1
 127 61 132 63 136 63 c 0
 149 63 160 52 160 39 c 0
 160 35 160 31 158 26 c 1
 173 11 l 1
 337 11 l 1
 337 31 l 1
 337 37 l 1
 337 57 l 1
451 129 m 1
 470 151 l 1
 470 153 l 2
 468 151 464 151 459 151 c 0
 446 151 435 162 435 175 c 0
 435 188 446 199 459 199 c 0
 464 199 468 199 470 197 c 2
 470 288 l 2
 468 286 464 286 462 286 c 0
 446 286 435 297 435 310 c 0
 435 323 446 334 462 334 c 0
 464 334 468 334 470 332 c 2
 470 424 l 2
 468 422 466 422 464 422 c 0
 449 422 438 432 438 446 c 0xabec5550
 438 459 449 472 464 472 c 0
 466 472 468 470 470 470 c 2
 470 557 l 1
 451 557 l 1
 446 557 l 1
 425 557 l 1
 420 557 l 1
 398 557 l 1
 394 557 l 1
 374 557 l 1
 368 557 l 1
 348 557 l 1
 348 537 l 1
 359 535 368 526 368 513 c 0
 368 502 359 491 348 489 c 1
 348 402 l 1
 359 400 366 389 366 378 c 0
 366 367 359 356 348 354 c 1
 348 266 l 1
 357 262 363 253 363 242 c 0
 363 232 357 223 348 218 c 1
 348 146 l 1
 348 129 l 1
 357 127 363 118 363 107 c 0
 363 96 357 87 348 85 c 1
 348 26 l 1x97ed2920
 355 33 l 2
 352 35 352 37 352 39 c 0
 352 52 363 63 376 63 c 0
 379 63 383 63 385 63 c 2
 394 72 l 1
 398 79 l 1
 407 85 l 1
 398 90 394 98 394 107 c 0
 394 120 405 131 418 131 c 0
 427 131 435 127 440 118 c 1
 446 124 l 1
 451 129 l 1
265 625 m 0
 250 625 239 636 239 649 c 0
 239 662 250 673 265 673 c 0
 278 673 289 662 289 649 c 0
 289 636 278 625 265 625 c 0
101 489 m 0
 88 489 77 500 77 513 c 0
 77 526 88 537 101 537 c 0
 117 537 127 526 127 513 c 0
 127 500 117 489 101 489 c 0
425 489 m 0
 409 489 398 500 398 513 c 0
 398 526 409 539 425 539 c 0
 438 539 449 526 449 513 c 0x6becaaa0
 449 500 438 489 425 489 c 0
86 446 m 0
 86 432 75 422 62 422 c 0
 47 422 36 432 36 446 c 0
 36 459 47 470 62 470 c 0
 75 470 86 459 86 446 c 0
407 446 m 0
 407 432 396 422 383 422 c 0
 368 422 357 432 357 446 c 0
 357 459 368 470 383 470 c 0
 396 470 407 459 407 446 c 0
75 378 m 0
 75 391 86 402 101 402 c 0
 114 402 125 391 125 378 c 0
 125 365 114 354 101 354 c 0
 86 354 75 365 75 378 c 0
396 378 m 0
 396 391 407 402 422 402 c 0
 435 402 446 391 446 378 c 0
 446 365 435 354 422 354 c 0
 407 354 396 365 396 378 c 0
84 310 m 0
 84 297 73 284 60 284 c 0
 47 284 36 297 36 310 c 0
 36 323 47 334 60 334 c 0
 73 334 84 323 84 310 c 0
405 310 m 0
 405 297 394 286 381 286 c 0
 368 286 357 297 357 310 c 0
 357 323 368 334 381 334 c 0
 394 334 405 323 405 310 c 0
123 242 m 0
 123 229 112 216 99 216 c 0
 86 216 75 229 75 242 c 0
 75 256 86 266 99 266 c 0
 112 266 123 256 123 242 c 0
444 242 m 0
 444 229 433 218 420 218 c 0
 407 218 396 229 396 242 c 0
 396 256 407 266 420 266 c 0
 433 266 444 256 444 242 c 0
379 199 m 0
 392 199 403 188 403 175 c 0
 403 162 392 151 379 151 c 0
 366 151 355 162 355 175 c 0
 355 188 366 199 379 199 c 0
202 107 m 0
 202 94 191 81 178 81 c 0
 165 81 154 94 154 107 c 0
 154 120 165 131 178 131 c 0
 191 131 202 120 202 107 c 0
283 107 m 0
 283 94 272 83 259 83 c 0
 243 83 232 94 232 107 c 0
 232 120 243 131 259 131 c 0
 272 131 283 120 283 107 c 0
217 63 m 0
 230 63 241 52 241 39 c 0
 241 26 230 13 217 13 c 0
 204 13 193 26 193 39 c 0
 193 52 204 63 217 63 c 0
298 63 m 0
 311 63 322 52 322 39 c 0
 322 26 311 15 298 15 c 0
 283 15 272 26 272 39 c 0
 272 52 283 63 298 63 c 0
EndSplineSet
EndChar
StartChar: one
Encoding: 49 49 54
Width: 329
Flags: MW
HStem: 0 144<164 192 164 192 183 192 183 201 183 246 258.5 272.5 183 281 183 307> 26 118<183 231.5 183 307> 94 50<183 192 258.5 272.5> 161 50<219.5 233.5> 228 51<184.5 194.5 259.5 273.5> 296 50<220.5 234.5> 363 50<185.5 195.5 261.5 274.5> 431 50<222.5 235.5> 498 50<186.5 196.5 263.5 276.5> 557 59<63.5 77.5 144.5 153 20 77.5> 633 50<31 31 31 31 104.5 118> 633 68<31 31 31 31 104.5 118>
VStem: 20 37<557 664.5 650.5 664.5 650.5 679 650.5 701 650.5 701> 46 129<584.5 590 590 597.5> 88 47<650.5 664.5> 127 48<584.5 590 590 597.5> 164 45<35 124.5 67 124.5 111 124.5 111 128 111 168 111 202> 207 48<584.5 592 592 594 584.5 598.5> 246 48<516.5 530.5> 283 24<315.5 325.5>
LayerCount: 2
Back
Fore
SplineSet
214 648 m 1x9fdaa0
 307 557 l 1
 307 481 l 1
 307 431 l 1
 307 346 l 1
 307 296 l 1
 307 211 l 1
 307 161 l 1
 307 74 l 1
 307 26 l 1x5fe450
 307 0 l 1x9fea90
 281 0 l 1
 246 0 l 1
 201 0 l 1
 166 0 l 1
 164 0 l 1
 164 35 l 1
 164 67 l 1
 164 109 l 1
 164 128 l 1
 164 168 l 1
 164 202 l 1
 164 248 l 1
 164 257 l 1
 164 300 l 1
 164 339 l 1
 164 435 l 1
 164 477 l 1
 164 557 l 1
 20 557 l 1
 20 635 l 1
 20 679 l 1
 20 701 l 1
 68 701 l 1
 77 701 l 1
 148 701 l 1
 157 701 l 1
 164 701 l 1
 188 675 l 1
 214 648 l 1
 214 648 l 1x9fdaa0
175 675 m 1
 175 675 l 1
 175 675 l 1
 175 675 175 675 175 675 c 1
31 588 m 1
 31 568 l 1
 64 568 l 2
 53 570 46 579 46 590 c 0x9fe450
 46 605 57 616 70 616 c 0
 85 616 96 605 96 590 c 0
 96 579 90 570 79 568 c 2
 144 568 l 2
 133 570 127 579 127 590 c 0x9fe950
 127 605 138 616 151 616 c 0
 155 616 159 614 164 611 c 1
 164 614 l 1
 164 618 l 1
 164 640 l 1
 164 644 l 1
 164 666 l 1
 164 670 l 1
 164 690 l 1
 31 690 l 1
 31 683 l 1
 31 683 31 683 31 683 c 1
 46 683 57 672 57 657 c 0x9feaa0
 57 644 46 633 31 633 c 1
 31 633 31 633 31 633 c 1
 31 618 l 1
 31 614 l 1
 31 594 l 1
 31 588 l 1
159 568 m 1
 164 568 l 1
 164 568 l 1x9fea90
 162 568 159 568 159 568 c 1
296 435 m 1
 290 440 286 446 286 457 c 0
 286 466 290 472 296 477 c 1
 296 553 l 1
 255 594 l 2
 255 592 255 592 255 592 c 2
 255 577 244 566 231 566 c 0
 218 566 207 577 207 592 c 0x9fea50
 207 605 218 616 231 616 c 2
 231 616 233 616 233 616 c 1
 209 640 l 1x9feaa0
 205 635 199 633 192 633 c 0
 185 633 179 638 175 642 c 1
 175 601 l 2
 175 598 175 594 175 590 c 0
 175 588 175 583 175 581 c 2
 175 557 l 1
 175 542 l 1
 179 546 183 548 190 548 c 0
 203 548 214 537 214 522 c 0
 214 509 203 498 190 498 c 0
 183 498 179 500 175 505 c 1
 175 459 l 1
 175 459 175 457 175 455 c 2
 175 455 175 453 175 453 c 1
 175 407 l 2
 177 411 183 413 188 413 c 0
 203 413 214 403 214 387 c 0
 214 374 203 363 188 363 c 0
 183 363 177 366 175 368 c 2
 175 274 l 2
 177 276 181 279 188 279 c 0
 201 279 212 268 212 252 c 0
 212 239 201 228 188 228 c 0
 181 228 177 231 175 233 c 2
 175 139 l 2x9fe450
 177 141 181 144 185 144 c 0
 199 144 209 131 209 118 c 0x3feaa0
 209 104 199 94 185 94 c 0
 181 94 177 94 175 96 c 2
 175 11 l 1x3fe450
 296 11 l 1
 296 28 l 1
 288 30 279 39 279 50 c 0
 279 61 288 72 296 74 c 1
 296 163 l 1
 288 168 281 176 281 185 c 0
 281 196 288 205 296 209 c 1
 296 298 l 1
 288 302 283 311 283 320 c 0
 283 331 288 339 296 344 c 1
 296 435 l 1
111 633 m 0
 98 633 88 644 88 657 c 0
 88 672 98 683 111 683 c 0
 125 683 135 672 135 657 c 0
 135 644 125 633 111 633 c 0
270 548 m 0
 283 548 294 537 294 524 c 0
 294 509 283 498 270 498 c 0
 257 498 246 509 246 524 c 0x3feaa0
 246 537 257 548 270 548 c 0
253 455 m 0
 253 442 242 431 229 431 c 0
 216 431 205 442 205 455 c 0
 205 470 216 481 229 481 c 0
 242 481 253 470 253 455 c 0
244 387 m 0
 244 403 255 413 268 413 c 0
 281 413 292 403 292 387 c 0
 292 374 281 363 268 363 c 0
 255 363 244 374 244 387 c 0
253 320 m 0
 253 307 242 296 227 296 c 0
 214 296 203 307 203 320 c 0
 203 335 214 346 227 346 c 0
 242 346 253 335 253 320 c 0
242 252 m 0
 242 268 253 279 266 279 c 0
 281 279 292 268 292 252 c 0
 292 239 281 228 266 228 c 0
 253 228 242 239 242 252 c 0
251 185 m 0
 251 172 240 161 227 161 c 0
 212 161 201 172 201 185 c 0
 201 200 212 211 227 211 c 0
 240 211 251 200 251 185 c 0
240 118 m 0
 240 133 251 144 266 144 c 0
 279 144 290 133 290 118 c 0
 290 104 279 94 266 94 c 0
 251 94 240 104 240 118 c 0
225 76 m 0
 238 76 249 63 249 50 c 0
 249 37 238 26 225 26 c 0x5feaa0
 212 26 201 37 201 50 c 0
 201 63 212 76 225 76 c 0
EndSplineSet
EndChar
StartChar: two
Encoding: 50 50 55
Width: 446
Flags: MW
HStem: 0 83<159 166.5 159 159 233.5 246.5 314 327.5 394.5 405.5> 35 48<233.5 246.5 314 327.5 394.5 405.5> 103 43<193.5 206.5 274.5 287.5 355.5 368.5> 135 147<23 189 23 189 23 189 63 189 63 189 144 189 144 189 159 179 224 224 224 257 159 305 159 338> 168 114<73.5 189> 236 46 271 83<148 159 159 163 163 169.5 159 181 159 159 159 224 237.5 250.5> 306 48<159 163 159 160 237.5 250.5> 373 44<130 189 198.5 211.5 278 286> 406 85<307 409 388 409 399.5 406> 441 50<399.5 409> 509 59<50 286 50 286> 557 68<39 93.5 39 93.5 39 93.5 39 93.5 39 93.5 80.5 93.5 80.5 117 80.5 133 160 174.5 239.5 254> 577 48<80.5 93.5 160 174.5 239.5 254> 644 57<39 286 39 286 50 50 120.5 134.5 200.5 214.5 279 286>
VStem: 13 59<146 173 146 214 146 173> 39 33<661.5 673.5> 61 48<319 333 319 333> 102 57<146 146> 137 22<190 198.5> 137 50 183 50<661.5 673.5> 222 50<594 607.5> 264 32 286 26<422 538.5 528.5 538.5 528.5 557 509 538.5 528.5 557> 299 52<417 471.5> 340 46 382 50<458.5 471.5>
LayerCount: 2
Back
Fore
SplineSet
181 271 m 1xa2aaa490
 159 271 l 1
 159 146 l 1
 185 146 l 1
 216 146 l 1
 266 146 l 1
 296 146 l 1
 345 146 l 1
 377 146 l 1
 425 146 l 1
 432 146 l 1
 432 146 l 1xa2572550
 432 0 l 1
 432 0 l 1
 417 0 l 1
 384 0 l 1
 336 0 l 1
 303 0 l 1
 257 0 l 1
 222 0 l 1
 176 0 l 1
 159 0 l 1
 104 55 l 1
 104 55 l 1
 76 83 l 1
 76 83 l 1
 54 105 l 1
 54 105 l 1
 23 135 l 1
 23 135 l 1
 23 135 l 1x91b72290
 19 140 l 1
 19 140 l 1
 13 146 l 1
 13 173 l 1
 13 173 l 1
 13 214 l 1
 13 214 l 1
 13 271 l 1xa2b72550
 61 319 l 1
 61 319 l 1
 93 352 l 1
 93 352 l 1
 115 373 l 1
 115 373 l 1xa2b65550
 148 406 l 1
 148 406 l 1
 148 406 l 1
 148 406 l 1xa9572550
 159 417 l 1
 189 417 l 1
 218 417 l 1
 270 417 l 1
 286 417 l 1
 286 422 l 1
 286 422 l 1
 286 509 l 1
 286 509 l 1xa9b724a0
 286 557 l 1
 277 557 l 1
 213 557 l 1
 198 557 l 1
 133 557 l 1
 117 557 l 1
 52 557 l 1
 39 557 l 1
 39 557 l 1
 39 557 l 1
 39 557 l 1
 39 644 l 1
 39 644 l 1
 39 692 l 1
 39 692 l 1
 39 701 l 1
 286 701 l 1
 432 557 l 1
 432 417 l 1
 286 271 l 1
 286 271 l 1
 259 271 l 1
 224 271 l 1
 181 271 l 1xa2aaa490
388 389 m 2
 406 406 l 1
 388 406 l 2
 388 404 390 402 390 397 c 0
 390 395 388 391 388 389 c 2
50 568 m 1
 286 568 l 1
 286 587 l 1
 286 594 l 1
 286 614 l 1
 286 618 l 1
 286 640 l 1
 286 644 l 1xa9b724a0
 272 644 264 655 264 668 c 0
 264 679 268 688 277 690 c 2
 218 690 l 2
 227 688 233 679 233 668 c 0
 233 655 222 644 207 644 c 0
 194 644 183 655 183 668 c 0
 183 679 189 688 198 690 c 2
 137 690 l 2xa9b71550
 146 688 152 679 152 668 c 0
 152 655 141 644 128 644 c 0
 113 644 102 655 102 668 c 0
 102 679 109 688 117 690 c 2
 56 690 l 2
 65 688 72 679 72 668 c 0
 72 655 63 646 50 644 c 1
 50 640 l 1
 50 618 l 1
 50 614 l 1
 50 594 l 1
 50 587 l 1
 50 568 l 1
296 511 m 1xa9b72550
 296 419 l 2
 299 419 299 417 299 417 c 1xa9b72550
 318 417 l 1
 323 417 l 1
 345 417 l 1
 349 417 l 1
 349 417 l 1
 353 422 360 422 364 422 c 0
 371 422 375 422 379 417 c 1
 395 417 l 1
 401 417 l 1
 421 417 l 1
 421 446 l 1
 417 443 412 441 406 441 c 0
 393 441 382 452 382 465 c 0
 382 478 393 491 406 491 c 0
 412 491 417 489 421 485 c 1
 421 553 l 1
 401 572 l 1
 395 579 l 1
 375 598 l 1
 369 603 l 1
 349 625 l 1
 345 629 l 1
 323 649 l 1
 318 655 l 1
 312 662 l 1xa9ab2490
 310 655 303 649 296 646 c 1
 296 557 l 1
 296 555 l 1xa9ab2550
 305 550 312 544 312 533 c 0xa9b724a0
 312 524 305 515 296 511 c 1xa9b72550
181 406 m 2xa9572550
 159 406 l 1
 159 387 l 1
 159 380 l 1
 159 360 l 1
 159 354 l 1
 159 354 l 1xa2572550
 161 354 161 354 163 354 c 0
 176 354 187 343 187 330 c 0xa2b70aa0
 187 317 176 306 163 306 c 0
 161 306 161 306 159 306 c 2
 159 304 l 1
 159 282 l 1
 189 282 l 1
 194 286 198 286 203 286 c 0
 207 286 211 286 216 282 c 1
 270 282 l 1
 272 286 279 286 283 286 c 2
 283 286 286 286 286 286 c 1x91b724a0
 303 304 l 1
 307 308 l 1
 310 310 l 1
 303 314 299 321 299 330 c 0
 299 343 310 354 325 354 c 0
 331 354 340 352 345 345 c 1
 353 354 l 1
 360 360 l 1
 373 376 l 2
 371 373 369 373 364 373 c 0xa2b72550
 351 373 340 384 340 397 c 0
 340 402 340 404 342 406 c 2
 307 406 l 2xa9572520
 310 404 310 400 310 397 c 0
 310 384 299 373 286 373 c 0xa9b724a0
 270 373 259 384 259 397 c 0
 259 400 262 404 262 406 c 2
 227 406 l 2xa9572550
 229 404 229 400 229 397 c 0
 229 384 218 373 205 373 c 0xa9b72550
 192 373 179 384 179 397 c 0
 179 400 181 404 181 406 c 2xa9572550
179 135 m 1x91b72550
 159 135 l 1x91b71550
 144 135 l 1
 146 131 146 129 146 127 c 0
 146 114 135 100 120 100 c 0
 106 100 96 114 96 127 c 0
 96 129 96 131 98 135 c 1
 63 135 l 1
 65 131 65 129 65 127 c 0
 65 122 63 118 61 114 c 1
 163 11 l 1
 185 11 l 2
 189 13 194 15 198 15 c 0
 205 15 209 13 213 11 c 2
 266 11 l 2
 268 13 275 15 279 15 c 0
 286 15 290 13 294 11 c 2
 345 11 l 2
 349 13 353 15 360 15 c 0
 366 15 371 13 375 11 c 2
 421 11 l 1
 421 44 l 1
 417 39 410 35 401 35 c 0
 388 35 375 46 375 59 c 0
 375 72 388 83 401 83 c 0
 410 83 417 79 421 74 c 1
 421 114 l 2
 419 118 417 122 417 127 c 0
 417 129 417 131 419 135 c 1
 384 135 l 1x51b65550
 386 131 386 129 386 127 c 0
 386 114 375 103 362 103 c 0xa9b72520
 349 103 336 114 336 127 c 0
 336 129 338 131 338 135 c 1
 305 135 l 1x91b72550
 305 131 305 129 305 127 c 0
 305 114 294 103 281 103 c 0xa9b72550
 268 103 257 114 257 127 c 0
 257 129 257 131 257 135 c 1
 224 135 l 1x91b72550
 224 131 227 129 227 127 c 0
 227 114 213 103 200 103 c 0xa9b72550
 187 103 176 114 176 127 c 0
 176 129 176 131 179 135 c 1x91b72550
148 214 m 1
 148 271 l 1
 148 310 l 1
 141 314 139 321 139 330 c 0
 139 339 141 345 148 349 c 1
 148 391 l 1
 148 391 l 1
 146 382 139 376 130 373 c 1
 128 371 l 1
 122 365 l 1
 102 345 l 1xa2b72550
 106 341 109 336 109 330 c 0xa9b65550
 109 317 96 306 82 306 c 0
 78 306 72 306 67 310 c 1
 50 293 l 1
 45 288 l 1
 43 286 l 1
 56 286 67 275 67 262 c 0
 67 249 56 236 41 236 c 0
 34 236 28 240 23 245 c 1
 23 201 l 2
 26 199 26 197 26 194 c 0
 26 192 26 188 23 186 c 2
 23 146 l 1
 26 146 l 2
 30 149 34 151 41 151 c 0
 45 151 52 149 56 146 c 2
 72 146 l 1
 76 146 l 1
 96 146 l 1
 102 146 l 1xa5b72550
 104 146 l 2
 109 149 115 151 120 151 c 0
 126 151 133 149 137 146 c 2
 148 146 l 1xa9b71550
 148 173 l 1
 141 177 137 186 137 194 c 0
 137 203 141 210 148 214 c 1
87 625 m 0
 100 625 111 614 111 601 c 0
 111 587 100 577 87 577 c 0
 74 577 61 587 61 601 c 0xa9b65250
 61 614 74 625 87 625 c 0
168 625 m 0
 181 625 192 614 192 601 c 0
 192 587 181 577 168 577 c 0
 152 577 141 587 141 601 c 0
 141 614 152 625 168 625 c 0
246 625 m 0
 262 625 272 614 272 601 c 0
 272 587 262 577 246 577 c 0
 233 577 222 587 222 601 c 0
 222 614 233 625 246 625 c 0
351 601 m 0
 351 587 340 577 327 577 c 0
 314 577 303 587 303 601 c 0
 303 614 314 627 327 627 c 0
 340 627 351 614 351 601 c 0
342 533 m 0
 342 546 353 559 366 559 c 0
 379 559 390 546 390 533 c 0
 390 520 379 509 366 509 c 0
 353 509 342 520 342 533 c 0
325 441 m 0
 312 441 301 452 301 465 c 0
 301 478 312 489 325 489 c 0
 340 489 351 478 351 465 c 0
 351 452 340 441 325 441 c 0
244 306 m 0
 231 306 218 317 218 330 c 0
 218 343 231 354 244 354 c 0
 257 354 268 343 268 330 c 0
 268 317 257 306 244 306 c 0
122 286 m 0
 135 286 148 275 148 262 c 0
 148 249 135 238 122 238 c 0
 109 238 98 249 98 262 c 0
 98 275 109 286 122 286 c 0
80 218 m 0
 96 218 106 207 106 194 c 0
 106 181 96 168 80 168 c 0
 67 168 56 181 56 194 c 0
 56 207 67 218 80 218 c 0
135 59 m 0
 135 72 146 83 159 83 c 0
 174 83 185 72 185 59 c 0
 185 46 174 33 159 33 c 0x69b72550
 146 33 135 46 135 59 c 0
240 35 m 0
 227 35 216 46 216 59 c 0
 216 72 227 83 240 83 c 0
 253 83 266 72 266 59 c 0
 266 46 253 35 240 35 c 0
321 35 m 0
 307 35 296 46 296 59 c 0
 296 72 307 83 321 83 c 0
 334 83 345 72 345 59 c 0
 345 46 334 35 321 35 c 0
EndSplineSet
EndChar
StartChar: three
Encoding: 51 51 56
Width: 452
Flags: MW
HStem: 0 72<52.5 63.5 129.5 143.5 24 63.5 24 63.5 24 63.5> 24 48<52.5 63.5 129.5 143.5 208.5 223> 91 55<24 289 24 289 90.5 104.5 169.5 183.5 250.5 263.5 330.5 343.5> 135 74<191 300 300 300 300 322 272 300 372.5 385.5 300 352> 159 50<300 306.5 372.5 385.5> 226 57<102 345.5> 272 72<91 145.5 91 145.5 91 145.5 132.5 145.5 132.5 167 132.5 189 213.5 226.5> 294 50<132.5 145.5 213.5 226.5> 361 57<102 102 102 102 174 187.5 254.5 267.5 344 344 361 361> 407 72<194 302 274 302 274 302 300 302 302 308.5 300 329 300 302 300 355 374.5 388.5> 407 161<113 130 157 167 113 113 194 211 235 248 194 194 274 289 274 274> 429 50<300 302 300 302 374.5 388.5> 496 50<335.5 349.5> 557 57<35 35 56.5 69.5 137 150.5 216.5 230.5 24 35> 631 50<24 24 24 24 97.5 110.5 177.5 191.5 256.5 270.5> 631 70<24 54 24 54 97.5 110.5 177.5 191.5 256.5 270.5>
VStem: 24 56<0 54.5 0 54.5 0 54.5 41.5 54.5 41.5 91 2 54.5 41.5 139 41.5 91 648.5 662.5> 91 31 120 47<583.5 595.5> 152 50<108.5 119.5> 198 50<583.5 595.5> 233 50<108.5 119.5> 233 67<108.5 159> 272 50<48 48 48 54.5> 289 33<176.5 189.5> 313 48<108.5 119.5> 355 52<407 407> 394 39<122 272 243.5 256.5 146 298>
LayerCount: 2
Back
Fore
SplineSet
433 557 m 1xad9dd490
 433 418 l 1
 433 418 l 1
 433 418 l 1
 361 346 l 1
 433 272 l 1
 433 146 l 1x6a9ed450
 422 135 l 1
 422 135 l 1
 422 135 l 1x959ed4a0
 289 2 l 1
 270 2 l 1
 270 2 l 1
 241 2 l 1
 241 2 l 1
 187 0 l 1
 161 0 l 1
 161 0 l 1
 24 0 l 1
 24 0 l 1
 24 0 l 1
 24 2 l 1
 24 2 24 2 24 2 c 1
 24 91 l 1
 24 91 24 91 24 91 c 1
 24 139 l 1
 24 139 24 139 24 139 c 1
 24 146 l 1
 289 146 l 1
 289 161 l 1
 289 161 289 161 289 161 c 1
 289 207 l 1
 289 207 289 207 289 207 c 1
 289 272 l 1
 270 272 l 1
 248 272 l 1
 189 272 l 1
 167 272 l 1xaa9ea8a0
 109 272 l 1
 91 272 l 1
 91 272 l 1
 91 274 l 1
 91 274 91 274 91 274 c 1
 91 363 l 1
 91 363 91 363 91 363 c 1
 91 409 l 1
 91 409 91 409 91 409 c 1
 91 418 l 1
 289 418 l 1
 289 433 l 1
 289 433 289 433 289 433 c 1
 289 474 l 1
 289 474 289 474 289 474 c 1
 289 557 l 1
 24 557 l 1
 24 631 l 1
 24 631 24 631 24 631 c 1
 24 681 l 1
 24 681 24 681 24 681 c 1xaa9ed4a0
 24 701 l 1
 54 701 l 1
 76 701 l 1
 135 701 l 1
 157 701 l 1
 213 701 l 1
 235 701 l 1
 289 701 l 1
 433 557 l 1xad9dd490
285 13 m 1
 296 24 l 1
 283 24 272 35 272 48 c 0
 272 61 283 74 296 74 c 0
 309 74 320 63 322 48 c 1
 394 122 l 2
 394 126 398 133 402 135 c 2
 352 135 l 1x559ed110
 359 131 361 124 361 115 c 0
 361 102 350 91 337 91 c 0
 324 91 313 102 313 115 c 0xad9ed450
 313 124 315 131 322 135 c 1
 272 135 l 1x959ed120
 278 131 283 124 283 115 c 0
 283 102 270 91 257 91 c 0xad9ed4a0
 244 91 233 102 233 115 c 0
 233 124 237 131 241 135 c 1
 191 135 l 1x959ed4a0
 198 131 202 124 202 115 c 0
 202 102 191 91 176 91 c 0xad9ed4a0
 163 91 152 102 152 115 c 0
 152 124 157 131 163 135 c 1
 113 135 l 1x959ed4a0
 117 131 122 124 122 115 c 0
 122 102 111 91 98 91 c 0xad9ed4a0
 83 91 72 102 72 115 c 0
 72 124 76 131 83 135 c 1
 35 135 l 1x959ed4a0
 35 131 l 1
 39 126 41 122 41 115 c 0
 41 109 39 104 35 100 c 1
 35 61 l 1
 39 67 48 72 57 72 c 0
 70 72 80 61 80 48 c 0
 80 35 70 24 57 24 c 0
 48 24 39 28 35 35 c 1
 35 11 l 1
 285 13 l 1
381 294 m 0
 366 294 355 305 355 318 c 0
 355 324 357 329 359 333 c 1
 300 392 l 1
 300 344 l 1
 300 344 300 344 300 344 c 1
 313 344 324 333 324 318 c 0
 324 305 313 294 300 294 c 1
 300 294 300 294 300 294 c 1
 300 283 l 1
 300 283 l 1
 300 209 l 1xad4ed220
 313 207 322 196 322 183 c 0xad9ed4a0
 322 170 313 159 300 159 c 1
 300 146 l 1
 422 146 l 1xad9ed250
 422 226 l 1
 422 226 420 226 420 226 c 2
 405 226 394 237 394 250 c 0
 394 263 402 274 416 276 c 1
 394 298 l 1
 389 296 385 294 381 294 c 0
315 390 m 1
 318 398 322 403 329 407 c 1
 300 407 l 1
 315 390 l 1
285 283 m 1
 289 287 l 1
 289 296 l 1
 281 300 276 309 276 318 c 0
 276 329 281 337 289 339 c 1
 289 407 l 1
 274 407 l 1xad4ed4a0
 281 403 285 394 285 385 c 0
 285 372 274 361 261 361 c 0xad9ed4a0
 248 361 237 372 237 385 c 0
 237 394 241 403 248 407 c 1
 194 407 l 1xad4ec920
 200 403 204 394 204 385 c 0
 204 372 194 361 181 361 c 0xad9ed4a0
 167 361 157 372 157 385 c 0
 157 394 161 403 167 407 c 1
 113 407 l 1xad4ea920
 120 403 126 394 126 385 c 0
 126 372 115 363 102 361 c 1
 102 361 l 1xad9ed4a0
 102 355 l 1
 102 335 l 1
 102 331 l 1
 102 309 l 1
 102 305 l 1
 102 283 l 1
 285 283 l 1
381 381 m 1
 387 387 l 1
 400 398 l 2
 402 403 405 405 407 407 c 2
 355 407 l 1xad4ed4a0
 361 403 366 396 366 385 c 0
 366 374 357 363 344 361 c 1
 352 353 l 1
 357 355 l 1
 361 361 l 1xad9ed450
 381 381 l 1
235 568 m 1xad22c920
 289 568 l 1
 289 568 l 1xad22d4a0
 283 572 278 581 278 590 c 0
 278 596 283 605 289 609 c 1
 289 614 l 1
 289 618 l 1
 289 640 l 1
 289 644 l 1
 289 666 l 1
 289 670 l 1
 289 690 l 1
 35 690 l 1
 35 677 l 1
 43 672 48 666 48 655 c 0
 48 646 43 638 35 633 c 1
 35 618 l 1
 35 614 l 1xad9ed4a0
 35 594 l 1
 35 588 l 1
 35 568 l 1
 50 568 l 1xad22d4a0
 43 572 39 579 39 588 c 0
 39 603 50 614 63 614 c 0xad9ed4a0
 76 614 87 603 87 588 c 0
 87 579 83 572 76 568 c 1
 130 568 l 1xad22d4a0
 124 572 120 579 120 588 c 0
 120 603 130 614 144 614 c 0xad9ea920
 157 614 167 603 167 588 c 0
 167 579 163 572 157 568 c 1
 211 568 l 1xad22a920
 204 572 198 579 198 588 c 0
 198 603 209 614 224 614 c 0xad9ec920
 237 614 248 603 248 588 c 0
 248 579 244 572 235 568 c 1xad22c920
302 479 m 0xad4ed250
 315 479 326 468 326 453 c 0
 326 440 315 429 302 429 c 0
 300 429 300 429 300 429 c 1
 300 418 l 1
 320 418 l 1
 326 418 l 1
 346 418 l 1
 350 418 l 1
 372 418 l 1
 376 418 l 1
 398 418 l 1
 402 418 l 1
 422 418 l 1xad5ed250
 422 496 l 1
 422 496 422 496 422 496 c 1
 409 496 398 507 398 522 c 0
 398 535 409 546 422 546 c 1
 422 546 422 546 422 546 c 1
 422 553 l 1
 402 572 l 1
 402 572 l 1
 398 568 392 564 383 564 c 0
 370 564 359 574 359 590 c 0
 359 596 361 603 368 607 c 1
 350 625 l 1
 346 629 l 1
 344 631 l 1
 331 633 320 642 320 655 c 1
 300 675 l 1
 300 614 l 1
 300 614 302 614 302 614 c 2
 318 614 329 603 329 590 c 0
 329 574 318 564 302 564 c 2
 302 564 300 564 300 564 c 1
 300 557 l 1
 300 479 l 1
 300 479 300 479 302 479 c 0xad4ed250
104 681 m 0
 117 681 128 670 128 655 c 0
 128 642 117 631 104 631 c 0
 91 631 80 642 80 655 c 0
 80 670 91 681 104 681 c 0
185 681 m 0
 198 681 209 670 209 655 c 0
 209 642 198 631 185 631 c 0
 170 631 159 642 159 655 c 0
 159 670 170 681 185 681 c 0
289 657 m 0x6d9ed4a0
 289 642 278 631 263 631 c 0
 250 631 239 642 239 657 c 0
 239 670 250 681 263 681 c 0
 278 681 289 670 289 657 c 0x6d9ed4a0
368 522 m 0
 368 507 357 496 342 496 c 0
 329 496 318 507 318 522 c 0
 318 535 329 546 342 546 c 0
 357 546 368 535 368 522 c 0
357 455 m 0
 357 468 368 479 381 479 c 0
 396 479 407 468 407 455 c 0
 407 440 396 429 381 429 c 0
 368 429 357 440 357 455 c 0
139 344 m 0
 152 344 165 331 165 318 c 0
 165 305 152 294 139 294 c 0
 126 294 115 305 115 318 c 0
 115 331 126 344 139 344 c 0
220 344 m 0
 233 344 244 333 244 318 c 0
 244 305 233 294 220 294 c 0
 207 294 196 305 196 318 c 0
 196 333 207 344 220 344 c 0
315 250 m 0
 315 265 326 276 339 276 c 0
 352 276 363 265 363 250 c 0
 363 237 352 226 339 226 c 0
 326 226 315 237 315 250 c 0
355 183 m 0
 355 198 366 209 379 209 c 0
 392 209 402 198 402 183 c 0
 402 170 392 159 379 159 c 0
 366 159 355 170 355 183 c 0
137 72 m 0
 150 72 161 61 161 48 c 0
 161 35 150 24 137 24 c 0
 122 24 111 35 111 48 c 0
 111 61 122 72 137 72 c 0
215 72 m 0
 231 72 241 61 241 48 c 0
 241 35 231 24 215 24 c 0
 202 24 191 35 191 48 c 0
 191 61 202 72 215 72 c 0
EndSplineSet
EndChar
StartChar: four
Encoding: 52 52 57
Width: 458
Flags: MW
HStem: 0 98<285 315.5 285 315.5 307 315.5 307 324 307 372 381.5 395.5 307 403 307 431> 48 50<307 315.5 381.5 395.5> 116 50<341.5 356> 184 50<307 316.5> 254 48<343.5 357> 271 31<185.5 196.5 185.5 215 169 196.5 185.5 245 264.5 273> 319 51<143.5 157.5 223.5 237.5> 387 31<185.5 197.5> 407 31<33 88 33 55> 455 50<65 79.5 151 152.5> 523 50<33 39.5 105.5 119.5> 593 48<154 155 154 158 311 322 388.5 403> 661 39<349.5 363.5> 682 20G<22 51 51 99 99 132 132 169 169 169>
VStem: 22 37<418 418 418 435 418 418 418 525 678.5 686> 49 50<610.5 623.5> 90 48<685 686 686 691 690 691> 129 40<610.5 623.5> 158 138<418 457 457 457 505 538 560 593 593 593 641 672> 206 50<339.5 352.5> 285 48<0 81 22 81 66.5 81 66.5 83 66.5 123 66.5 160> 329 52 370 48 407 24<273.5 282.5 409.5 418>
LayerCount: 2
Back
Fore
SplineSet
416 700 m 1xbb7aa5
 431 700 l 1
 431 661 l 1
 431 573 l 1
 431 525 l 1
 431 438 l 1
 431 389 l 1
 431 302 l 1
 431 254 l 1xbafaa5
 431 166 l 1
 431 118 l 1
 431 31 l 1
 431 0 l 1
 403 0 l 1
 372 0 l 1
 324 0 l 1
 291 0 l 1
 285 0 l 1
 285 22 l 1
 285 63 l 1
 285 83 l 1
 285 123 l 1
 285 160 l 1
 285 206 l 1
 285 212 l 1
 285 258 l 1
 285 271 l 1
 245 271 l 1
 215 271 l 1
 169 271 l 1
 164 276 l 1
 94 346 l 1
 70 370 l 1
 46 394 l 1
 22 418 l 1
 22 418 l 1
 22 418 l 1
 22 435 l 1
 22 525 l 1
 22 571 l 1
 22 663 l 1
 22 702 l 1xb77659
 51 702 l 1
 99 702 l 1
 132 702 l 1
 169 702 l 1xbb755a
 169 637 l 1
 169 597 l 1
 169 499 l 1
 169 462 l 1
 169 422 l 1
 169 418 l 1
 215 418 l 1
 248 418 l 1
 285 418 l 1
 285 433 l 1
 285 527 l 1
 285 571 l 1
 285 663 l 1
 285 700 l 1xbb7a5a
 296 700 l 1
 337 700 l 1
 375 700 l 1
 416 700 l 1xbb7aa5
33 659 m 1
 33 659 33 659 33 659 c 1
 33 573 l 1
 46 573 57 562 57 549 c 0
 57 536 46 525 33 523 c 1
 33 438 l 1xbafaa5
 44 435 53 429 55 418 c 1
 59 418 l 1
 79 418 l 1
 86 418 l 1
 88 418 l 1xbb7aa5
 90 429 99 438 112 438 c 0xbafaa5
 123 438 134 429 136 418 c 1
 138 418 l 1
 158 418 l 1
 158 457 l 2
 156 457 154 455 151 455 c 0
 138 455 127 468 127 481 c 0
 127 494 138 505 151 505 c 0
 154 505 156 505 158 505 c 2
 158 593 l 2xbb7aa5
 156 593 156 593 154 593 c 0
 140 593 129 604 129 617 c 0xbb7a5a
 129 630 140 641 154 641 c 0
 156 641 156 641 158 641 c 2
 158 691 l 1
 138 691 l 2
 138 689 138 687 138 685 c 0
 138 672 127 661 114 661 c 0
 101 661 90 672 90 685 c 0
 90 687 90 689 90 691 c 2
 86 691 l 1
 79 691 l 1
 59 691 l 1
 57 691 l 2
 57 689 59 687 59 685 c 0
 59 672 49 659 33 659 c 1
53 403 m 2
 169 289 l 1
 171 295 180 302 191 302 c 0
 202 302 210 293 215 282 c 1
 245 282 l 1
 250 293 259 302 270 302 c 0
 276 302 280 300 285 298 c 1
 285 392 l 1
 280 389 276 389 272 389 c 0
 261 389 250 396 248 407 c 1
 215 407 l 1xbafa59
 213 396 204 387 191 387 c 0xbb7aa5
 180 387 171 396 167 407 c 1
 136 407 l 1xbafaa5
 132 396 123 387 112 387 c 0xbb7aa5
 99 387 90 396 88 407 c 1
 55 407 l 2
 55 405 53 405 53 403 c 2
420 569 m 1
 420 667 l 1
 414 672 412 678 412 685 c 0
 412 687 412 687 412 689 c 2
 381 689 l 2
 381 687 381 687 381 685 c 0
 381 672 370 661 357 661 c 0
 342 661 331 672 331 685 c 0
 331 687 331 687 331 689 c 2
 300 689 l 2
 300 687 300 687 300 685 c 0
 300 680 298 676 296 672 c 2
 296 632 l 1
 300 639 307 641 315 641 c 0
 329 641 340 630 340 617 c 0
 340 604 329 593 315 593 c 0
 307 593 300 595 296 602 c 1
 296 560 l 2
 298 556 298 554 298 549 c 0
 298 545 298 543 296 538 c 2
 296 499 l 1
 300 503 307 505 313 505 c 0
 326 505 337 494 337 481 c 0
 337 468 326 457 313 457 c 0
 307 457 300 459 296 464 c 1
 296 418 l 1xbb7925
 296 418 296 416 296 414 c 0
 296 411 296 409 296 407 c 2
 296 365 l 1
 300 368 307 370 311 370 c 0
 324 370 335 359 335 346 c 0
 335 333 324 322 311 322 c 0
 307 322 300 322 296 326 c 1
 296 271 l 1
 296 230 l 1
 300 232 305 234 309 234 c 0
 324 234 335 223 335 210 c 0
 335 197 324 184 309 184 c 0
 305 184 300 186 296 188 c 1
 296 96 l 1xb6faa5
 300 96 305 98 309 98 c 0
 322 98 333 88 333 74 c 0x7b7a9a
 333 59 322 48 309 48 c 0
 305 48 300 50 296 53 c 1
 296 11 l 1x7b7aa5
 324 11 l 1
 326 22 335 31 348 31 c 0
 359 31 370 22 372 11 c 1
 403 11 l 1
 405 20 412 26 420 28 c 1
 420 118 l 1
 412 123 405 131 405 142 c 0
 405 153 412 162 420 164 c 1
 420 256 l 1
 412 260 407 269 407 278 c 0
 407 287 412 295 420 300 c 1
 420 392 l 1
 414 396 407 405 407 414 c 0
 407 422 414 431 420 435 c 1
 420 529 l 1
 414 534 410 540 410 549 c 0
 410 558 414 565 420 569 c 1
73 591 m 0
 59 591 49 604 49 617 c 0
 49 630 59 641 73 641 c 0
 88 641 99 630 99 617 c 0
 99 604 88 591 73 591 c 0
396 641 m 0
 410 641 420 630 420 617 c 0
 420 604 410 593 396 593 c 0
 381 593 370 604 370 617 c 0xbb7aa2
 370 630 381 641 396 641 c 0
88 549 m 0
 88 562 99 573 112 573 c 0
 127 573 138 562 138 549 c 0
 138 536 127 523 112 523 c 0
 99 523 88 536 88 549 c 0
379 549 m 0
 379 536 368 525 355 525 c 0
 340 525 329 536 329 549 c 0xbb7aa5
 329 562 340 573 355 573 c 0
 368 573 379 562 379 549 c 0
73 505 m 0
 86 505 97 494 97 481 c 0
 97 466 86 455 73 455 c 0
 57 455 46 466 46 481 c 0
 46 494 57 505 73 505 c 0
368 481 m 0
 368 494 379 505 394 505 c 0
 407 505 418 494 418 481 c 0xbafaa2
 418 468 407 457 394 457 c 0
 379 457 368 468 368 481 c 0
377 414 m 0
 377 400 366 389 353 389 c 0
 340 389 329 400 329 414 c 0x7b7a95
 329 427 340 438 353 438 c 0
 366 438 377 427 377 414 c 0
175 346 m 0
 175 330 164 319 151 319 c 0
 136 319 125 330 125 346 c 0
 125 359 136 370 151 370 c 0
 164 370 175 359 175 346 c 0
230 319 m 0
 217 319 206 333 206 346 c 0
 206 359 217 370 230 370 c 0
 245 370 256 359 256 346 c 0
 256 333 245 319 230 319 c 0
368 346 m 0
 368 359 379 370 392 370 c 0
 405 370 416 359 416 346 c 0
 416 333 405 322 392 322 c 0
 379 322 368 333 368 346 c 0
375 278 m 0
 375 265 364 254 350 254 c 0
 337 254 326 265 326 278 c 0
 326 291 337 302 350 302 c 0
 364 302 375 291 375 278 c 0
366 210 m 0
 366 223 377 234 390 234 c 0
 403 234 414 223 414 210 c 0
 414 197 403 186 390 186 c 0
 377 186 366 197 366 210 c 0
375 142 m 0
 375 129 364 116 348 116 c 0
 335 116 324 129 324 142 c 0
 324 155 335 166 348 166 c 0
 364 166 375 155 375 142 c 0
364 74 m 0
 364 88 375 98 388 98 c 0
 403 98 414 88 414 74 c 0
 414 61 403 48 388 48 c 0
 375 48 364 61 364 74 c 0
EndSplineSet
EndChar
StartChar: five
Encoding: 53 53 58
Width: 464
Flags: MW
HStem: 0 72<30 57 30 30 30 83 102.5 116.5 183 197.5 263.5 276.5> 22 50<30 30 102.5 116.5 183 197.5 263.5 276.5> 89 57<63.5 77.5 143.5 158 224.5 237.5 314 318.5> 135 72<246 359.5 345.5 359.5 345.5 375 327 359.5 345.5 408 345.5 423> 159 48<345.5 359.5 432 433 432 438> 227 45 262 80<187.5 200.5 109 176 267 281.5> 294 48<267 281.5> 360 45 395 82<30 41 30 41 30 96 108.5 121.5> 427 50<108.5 121.5> 475 20G<69.5 82.5> 497 48<149.5 158 157 158> 497 70<149.5 158 157 166> 556 57<30 30 30 41 30 61 30 67 30 87 110 113 113 118 118 124.5 189.5 203.5 270.5 283.5 350.5 363.5> 632 48<70.5 84.5 150.5 164.5 230.5 244 311.5 324.5 391.5 404.5> 632 68<70.5 84.5 150.5 164.5 230.5 244 311.5 324.5 391.5 404.5>
VStem: 30 31<405 429 405 477 583.5 594> 46 50<108 119> 91 51<405 460 583.5 595.5> 131 45<514.5 527.5> 166 56<543 595.5 556 595.5> 209 46 253 48<583.5 595.5> 253 61 288 48<109 119> 303 33<109 229> 333 48<583.5 595.5> 373 45 373 59<649.5 662.5> 408 41<135 163 176.5 189.5>
LayerCount: 2
Back
Fore
SplineSet
336 373 m 1xad4b5528
 449 262 l 1
 449 203 l 1
 449 163 l 1
 449 146 l 1xaaab5442
 438 135 l 1
 438 135 l 1
 401 98 l 1
 394 92 l 1
 394 92 l 1
 362 59 l 1
 333 31 l 1
 333 31 l 1x95ab5512
 303 0 l 1
 296 0 l 1
 244 0 l 1
 216 0 l 1
 163 0 l 1
 135 0 l 1
 83 0 l 1
 57 0 l 1
 30 0 l 1xadab5528
 30 22 l 1
 30 72 l 1
 30 146 l 1
 303 146 l 1
 303 229 l 1
 303 262 l 1
 290 262 l 1
 255 262 l 1
 211 262 l 1
 176 262 l 1x6aab4a28
 174 264 l 1
 174 264 l 1
 166 270 l 1
 166 270 l 1
 102 334 l 1
 98 338 l 1
 98 338 l 1
 41 395 l 1
 41 395 l 1xaa4b5528
 30 405 l 1xadab5528
 30 429 l 1
 30 477 l 1
 30 556 l 1xad4b5528
 30 565 l 1
 30 567 l 1xada55528
 30 613 l 1
 30 700 l 1
 30 700 l 1
 48 700 l 1
 109 700 l 1
 126 700 l 1
 190 700 l 1
 207 700 l 1
 270 700 l 1
 288 700 l 1xadaad448
 351 700 l 1
 366 700 l 1
 432 700 l 1
 432 700 l 1
 432 700 l 1
 432 613 l 1
 432 565 l 1
 432 556 l 1
 176 556 l 1
 176 536 l 1
 176 506 l 1
 176 469 l 1
 176 438 l 1
 176 405 l 1
 220 405 l 1
 248 405 l 1
 301 405 l 1
 303 405 l 1xadaac924
 314 395 l 1xad4b5492
 336 373 l 1
 336 373 l 1xad4b5528
421 689 m 1
 41 689 l 1
 41 613 l 1xadab5528
 52 610 61 599 61 589 c 0
 61 578 57 571 48 567 c 1
 107 567 l 1xada55528
 98 571 91 578 91 589 c 0
 91 602 102 613 118 613 c 0
 131 613 142 602 142 589 c 0xadab5528
 142 578 135 571 128 567 c 1
 176 567 l 1
 185 567 l 1xada54a48
 179 571 172 578 172 589 c 0
 172 602 183 613 196 613 c 0xadab5528
 211 613 222 602 222 589 c 0
 222 578 216 571 207 567 c 1
 266 567 l 1xada55528
 259 571 253 578 253 589 c 0
 253 602 264 613 277 613 c 0
 290 613 301 602 301 589 c 0xadab5528
 301 578 296 571 288 567 c 1
 346 567 l 2xada55448
 338 569 333 578 333 589 c 0
 333 602 344 613 357 613 c 0
 370 613 381 602 381 589 c 0xadab5512
 381 578 375 569 368 567 c 2
 421 567 l 1
 421 571 l 1
 416 576 412 582 412 589 c 0
 412 597 416 604 421 608 c 1
 421 647 l 2
 418 639 410 632 399 632 c 0
 384 632 373 643 373 656 c 0xada55524
 373 669 384 680 399 680 c 0
 410 680 418 674 421 665 c 2
 421 689 l 1
61 556 m 1
 41 556 l 1
 41 477 l 1xad4b5528
 52 473 59 464 59 453 c 0
 59 440 52 432 41 429 c 1
 41 405 l 1
 61 405 l 2
 65 408 70 410 74 410 c 0
 78 410 83 408 87 405 c 1
 87 405 l 1
 94 405 l 1
 113 405 l 1
 118 405 l 1
 139 405 l 1
 142 405 l 2
 144 408 150 410 155 410 c 0
 159 410 161 410 166 408 c 1
 166 497 l 1xadab5528
 161 497 159 497 157 497 c 0
 142 497 131 508 131 521 c 0xadab4a48
 131 534 142 545 157 545 c 0
 159 545 161 545 166 543 c 1
 166 556 l 1
 144 556 l 1
 139 556 l 1
 118 556 l 1
 113 556 l 1
 94 556 l 1
 87 556 l 1
 67 556 l 1
 61 556 l 1
244 272 m 2
 301 272 l 1x95ab2928
 301 272 303 272 303 272 c 1
 303 292 l 1
 303 296 l 1
 303 318 l 1
 303 323 l 1
 303 344 l 1
 303 349 l 1
 303 364 l 1
 294 368 290 377 290 386 c 0
 290 388 290 392 292 395 c 2
 257 395 l 2
 259 392 259 388 259 386 c 0
 259 373 248 362 235 362 c 0
 220 362 209 373 209 386 c 0
 209 388 211 392 211 395 c 2
 176 395 l 2xad4b4a28
 179 392 179 388 179 386 c 0
 179 373 168 360 155 360 c 0xadab5528
 142 360 131 373 131 386 c 0
 131 388 131 392 131 395 c 2
 96 395 l 2
 98 392 98 388 98 386 c 0
 98 377 94 368 87 364 c 1
 102 349 l 1
 109 344 l 1
 109 342 l 2
 111 342 113 342 113 342 c 2xaa4b2a48
 126 342 137 331 137 318 c 0
 137 316 137 316 137 314 c 2
 155 296 l 1
 159 292 l 1
 181 272 l 1
 220 272 l 2
 224 275 229 275 233 275 c 0
 237 275 242 275 244 272 c 2
299 11 m 1
 327 39 l 2
 327 41 327 44 327 48 c 0
 327 61 338 72 351 72 c 0
 353 72 355 72 357 70 c 2
 381 94 l 1
 373 98 366 105 366 116 c 0
 366 122 370 129 375 135 c 1
 327 135 l 1x95ab5512
 331 129 336 122 336 116 c 0
 336 102 325 89 312 89 c 0xadab5448
 299 89 288 102 288 116 c 0
 288 122 290 129 296 135 c 1
 246 135 l 1x95ab5448
 253 129 255 122 255 116 c 0
 255 100 244 89 231 89 c 0xadab5248
 218 89 207 100 207 116 c 0
 207 122 209 129 216 135 c 1
 166 135 l 1x95ab5528
 172 129 176 122 176 116 c 0
 176 100 166 89 150 89 c 0xadab4a48
 137 89 126 100 126 116 c 0
 126 122 131 129 135 135 c 1
 85 135 l 1x95ab5528
 91 129 96 122 96 116 c 0
 96 100 85 89 70 89 c 0xadab2a48
 57 89 46 100 46 116 c 0
 46 122 50 129 57 135 c 1
 41 135 l 1
 41 68 l 1
 50 63 54 57 54 46 c 0
 54 37 50 28 41 24 c 1
 41 11 l 1
 299 11 l 1
414 126 m 2
 423 135 l 1
 408 135 l 2
 410 133 412 129 414 126 c 2
432 159 m 0xadab5524
 418 159 408 170 408 183 c 0xadab5522
 408 196 418 207 432 207 c 0
 434 207 436 207 438 207 c 2
 438 255 l 1
 416 277 l 1
 412 281 l 1
 390 303 l 1
 386 307 l 1
 379 314 l 1
 377 303 366 294 353 294 c 0
 340 294 329 305 329 318 c 0
 329 331 338 340 351 342 c 1x95ab5524
 340 353 l 1
 333 360 l 1
 329 364 l 1
 325 362 320 362 314 362 c 1
 314 362 314 362 314 362 c 1
 314 275 l 1
 327 275 338 264 338 251 c 0
 338 238 327 227 314 227 c 1
 314 146 l 1
 333 146 l 1xadab5492
 340 146 l 1
 360 146 l 1
 366 146 l 1
 386 146 l 1
 390 146 l 1
 412 146 l 1
 416 146 l 1
 438 146 l 1
 438 159 l 2
 436 159 434 159 432 159 c 0xadab5524
78 632 m 0
 63 632 52 643 52 656 c 0
 52 669 63 680 78 680 c 0
 91 680 102 669 102 656 c 0
 102 643 91 632 78 632 c 0
157 632 m 0
 144 632 133 643 133 656 c 0
 133 669 144 680 157 680 c 0
 172 680 183 669 183 656 c 0
 183 643 172 632 157 632 c 0
237 632 m 0
 224 632 214 643 214 656 c 0
 214 669 224 680 237 680 c 0
 251 680 261 669 261 656 c 0
 261 643 251 632 237 632 c 0
318 632 m 0
 305 632 294 643 294 656 c 0
 294 669 305 680 318 680 c 0
 331 680 342 669 342 656 c 0
 342 643 331 632 318 632 c 0
76 495 m 0
 63 495 52 508 52 521 c 0
 52 534 63 545 76 545 c 0
 89 545 100 534 100 521 c 0
 100 508 89 495 76 495 c 0
91 453 m 0
 91 467 102 477 115 477 c 0
 128 477 139 467 139 453 c 0
 139 440 128 427 115 427 c 0xaaab5528
 102 427 91 440 91 453 c 0
194 342 m 0
 207 342 218 331 218 318 c 0
 218 305 207 292 194 292 c 0
 181 292 170 305 170 318 c 0
 170 331 181 342 194 342 c 0
275 342 m 0
 288 342 299 331 299 318 c 0
 299 305 288 294 275 294 c 0x6dab5528
 259 294 248 305 248 318 c 0
 248 331 259 342 275 342 c 0
392 275 m 0
 408 275 418 264 418 251 c 0
 418 238 408 227 392 227 c 0
 379 227 368 238 368 251 c 0
 368 264 379 275 392 275 c 0
353 207 m 0
 366 207 377 196 377 183 c 0
 377 170 366 159 353 159 c 0
 338 159 327 170 327 183 c 0
 327 196 338 207 353 207 c 0
109 72 m 0
 124 72 135 61 135 48 c 0
 135 33 124 22 109 22 c 0
 96 22 85 33 85 48 c 0
 85 61 96 72 109 72 c 0
190 72 m 0
 205 72 216 61 216 48 c 0
 216 33 205 22 190 22 c 0
 176 22 166 33 166 48 c 0
 166 61 176 72 190 72 c 0
270 72 m 0
 283 72 294 61 294 48 c 0
 294 33 283 22 270 22 c 0
 257 22 246 33 246 48 c 0
 246 61 257 72 270 72 c 0
EndSplineSet
EndChar
StartChar: six
Encoding: 54 54 59
Width: 480
Flags: MW
HStem: 0 54<130 317 130 169> 74 48<93 108.5 108 108> 74 72<93 93 108 108 174.5 188.5 254.5 268.5> 135 56<135.5 145.5 135.5 169 135.5 317> 209 50<96.5 110.5 340 349.5 416.5 430.5> 209 74<96.5 208 340 349.5 416.5 430.5> 272 54<217.5 230.5 297.5 310.5 377 380 380 387> 344 50<23 23 97.5 111.5 181.5 191.5 258.5 271.5> 344 74<97.5 211 181.5 191.5 258.5 271.5> 407 54 407 122 407 159<171 204 252 282 171 313 169 204> 555 41<23 63 220.5 234.5 299.5 314> 614 50<169 169 184.5 195.5 260.5 274.5 341.5 355.5> 614 87<106 174 169 174 184.5 195.5 260.5 274.5 341.5 355.5 374 374>
VStem: 23 24<146 238.5 228.5 238.5 228.5 257 228.5 344> 39 52 82 44 124 45<657 657> 158 50<146 146 146 146 146 272 361.5 375.5> 200 48<297 308> 243 50<632.5 646.5> 280 48<297 308> 319 46 359 26 359 47<158.5 173> 398 50<96 146 98 146 227.5 241.5> 398 65<96 191 98 191 227.5 241.5>
LayerCount: 2
Back
Fore
SplineSet
457 279 m 1xd54d5510
 463 272 l 1
 463 191 l 1xdb4d5510
 463 146 l 1xab4d5510
 459 141 l 1
 437 120 l 1
 402 85 l 1
 372 54 l 1
 359 41 l 1
 328 11 l 1
 317 0 l 1
 169 0 l 1
 156 13 l 1
 121 46 l 1
 93 74 l 1
 78 91 l 1
 34 135 l 1xdb4d2a40
 23 146 l 1
 23 209 l 1
 23 257 l 1
 23 344 l 1
 23 394 l 1
 23 479 l 1
 23 529 l 1
 23 555 l 1xa52d5510
 43 574 l 1
 63 596 l 1
 91 622 l 1
 124 657 l 1xdb4caa90
 150 681 l 1
 158 690 l 1xdb4d5510
 169 701 l 1
 174 701 l 1
 204 701 l 1
 252 701 l 1
 285 701 l 1
 332 701 l 1
 365 701 l 1xdb4b2910
 385 701 l 1
 385 683 l 1
 385 596 l 1
 385 555 l 1
 369 555 l 1
 326 555 l 1
 289 555 l 1
 245 555 l 1
 208 555 l 1xdb4b5490
 169 555 l 1
 169 520 l 1
 169 487 l 1
 169 446 l 1
 169 426 l 1
 169 418 l 1
 211 418 l 1
 241 418 l 1
 291 418 l 1
 317 418 l 1xda8d2a90
 319 416 l 1
 341 394 l 1
 369 366 l 1
 441 294 l 1
 452 283 l 1
 457 279 l 1xd54d5510
406 313 m 2xd54d5440
 409 309 409 307 409 302 c 0
 409 294 404 287 400 283 c 1
 437 283 l 1
 406 313 l 2xd54d5440
313 407 m 1
 169 407 l 1
 169 387 l 1xab4d2a90
 174 392 178 394 185 394 c 0
 198 394 208 383 208 368 c 0xdb4d5510
 208 355 198 344 185 344 c 0
 178 344 174 346 169 350 c 1
 169 302 l 1
 169 302 169 300 169 300 c 1
 169 300 169 300 169 300 c 1
 169 283 l 1xd54d2a90
 208 283 l 1xd54d5510
 202 287 200 294 200 300 c 0
 200 316 211 326 224 326 c 0xdb4d4a90
 237 326 248 316 248 300 c 0
 248 294 245 287 241 283 c 1
 289 283 l 1xd54d4a90
 282 287 280 294 280 300 c 0
 280 316 291 326 304 326 c 0
 317 326 328 316 328 300 c 0xdb4d5290
 328 294 326 287 319 283 c 1
 367 283 l 1xd54d5510
 363 287 359 294 359 302 c 0
 359 316 369 326 385 326 c 0xdb4d5490
 389 326 393 324 396 322 c 2
 365 355 l 1
 361 348 352 344 346 344 c 0
 330 344 319 355 319 370 c 0xdb4d5510
 319 376 324 385 330 390 c 1
 313 407 l 1
317 185 m 1
 317 272 l 1
 169 272 l 1
 169 252 l 1
 169 213 l 1
 169 146 l 1xab4d2a90
 208 146 l 1xab4d5510
 235 146 l 1
 289 146 l 1
 315 146 l 1
 317 146 l 1
 317 146 l 1
 317 185 l 1
158 146 m 1xab4d5510
 158 146 l 1
 156 146 156 146 156 146 c 1
 158 146 l 1xab4d5510
211 690 m 1
 169 690 l 1
 169 670 l 1
 169 664 l 1
 169 653 l 1
 174 659 180 664 189 664 c 0
 202 664 213 653 213 640 c 0
 213 625 202 614 189 614 c 0
 180 614 174 618 169 625 c 1
 169 618 l 1
 169 614 l 1
 169 592 l 1
 169 588 l 1
 169 583 l 2
 171 581 171 577 171 570 c 2
 171 570 171 568 171 566 c 2
 204 566 l 2xdb152a90
 202 568 202 570 202 572 c 0
 202 585 213 596 228 596 c 0xdb4d5510
 241 596 252 585 252 572 c 0
 252 570 252 568 252 566 c 2
 282 566 l 2xdb155510
 282 568 282 570 282 572 c 0
 282 585 293 596 306 596 c 0xdb4d5510
 322 596 332 585 332 572 c 0
 332 570 332 568 332 566 c 2
 363 566 l 2
 363 568 363 570 363 572 c 0
 363 581 367 588 374 592 c 1
 374 614 l 1
 374 618 l 1
 374 638 l 1
 374 644 l 1
 374 664 l 1
 374 670 l 1
 374 688 l 1
 374 688 372 690 372 690 c 1
 328 690 l 1
 324 685 317 681 309 681 c 0
 302 681 295 685 291 690 c 1
 248 690 l 1xdb154a90
 243 685 237 681 228 681 c 0
 221 681 215 685 211 690 c 1
34 211 m 1
 34 146 l 1
 50 146 l 1
 43 150 39 157 39 165 c 0
 39 178 50 189 63 189 c 0
 76 189 87 178 87 165 c 0
 87 157 82 150 76 146 c 1
 80 146 l 1
 87 146 l 1
 106 146 l 1
 113 146 l 1
 130 146 l 1xab4caa90
 121 150 117 157 117 165 c 0
 117 178 128 191 143 191 c 0
 148 191 154 189 158 185 c 1
 158 272 l 1
 158 281 l 1
 154 279 150 276 143 276 c 0
 130 276 119 287 119 300 c 0
 119 316 130 326 143 326 c 0
 150 326 154 324 158 322 c 1
 158 416 l 1
 154 413 150 411 145 411 c 0
 132 411 121 422 121 435 c 0
 121 450 132 461 145 461 c 0
 150 461 154 459 158 457 c 1
 158 548 l 1xdb4d5510
 154 548 152 546 148 546 c 0
 134 546 124 557 124 570 c 0xdb4d2a90
 124 585 134 596 148 596 c 0
 152 596 154 594 158 594 c 1
 158 675 l 1
 137 655 l 1
 132 648 l 1
 130 648 l 1
 132 644 132 642 132 638 c 0
 132 625 121 614 108 614 c 0
 104 614 102 614 100 616 c 2
 87 603 l 1
 80 596 l 1
 78 594 l 1
 87 590 91 581 91 570 c 0xdb4c9510
 91 557 80 546 67 546 c 0
 56 546 47 553 45 561 c 1
 34 551 l 1
 34 527 l 1
 43 522 52 514 52 503 c 0
 52 492 43 483 34 481 c 1
 34 392 l 1
 43 387 50 379 50 368 c 0
 50 359 43 350 34 346 c 1
 34 255 l 1
 43 250 47 244 47 233 c 0
 47 224 43 215 34 211 c 1
163 22 m 2
 174 11 l 1
 206 11 l 1
 200 15 195 22 195 30 c 0
 195 44 206 57 221 57 c 0
 235 57 245 44 245 30 c 0
 245 22 241 15 235 11 c 1
 287 11 l 1
 280 15 276 22 276 30 c 0
 276 46 287 57 300 57 c 0
 306 57 313 52 317 50 c 1
 317 57 l 1
 317 63 l 1
 317 83 l 1
 317 89 l 1
 317 94 l 2
 317 96 317 98 317 98 c 2
 317 100 317 102 317 104 c 2
 317 109 l 1
 317 113 l 1
 317 135 l 1
 169 135 l 1xdb4d2a90
 50 135 l 1
 69 113 l 1
 76 109 l 1
 78 107 l 1
 82 115 91 122 102 122 c 0
 115 122 126 111 126 98 c 0xdb4d5510
 126 87 119 78 108 74 c 1
 121 63 l 1
 128 57 l 1
 130 54 l 2
 134 54 137 54 141 54 c 0
 154 54 165 44 165 30 c 0
 165 28 165 24 163 22 c 2
315 11 m 1
 317 11 l 1
 317 13 l 1
 317 13 315 11 315 11 c 1
437 168 m 0
 437 176 443 185 452 189 c 1
 452 272 l 1
 430 272 l 1
 426 272 l 1
 406 272 l 1
 400 272 l 1
 380 272 l 1
 374 272 l 1
 354 272 l 1
 348 272 l 1
 328 272 l 1
 328 252 l 1
 332 257 337 259 343 259 c 0
 356 259 367 248 367 233 c 0
 367 220 356 209 343 209 c 0
 337 209 332 211 328 215 c 1
 328 146 l 1
 328 120 l 1xab4d5240
 332 122 337 124 341 124 c 0
 354 124 365 113 365 98 c 0xdb4d5510
 365 85 354 74 341 74 c 0
 337 74 332 76 328 78 c 1
 328 26 l 1
 348 46 l 1
 354 52 l 1
 374 72 l 1
 380 78 l 1
 398 96 l 1
 398 96 398 98 398 98 c 2
 398 113 409 124 422 124 c 2
 422 124 424 124 426 124 c 1
 426 124 l 1
 430 128 l 1
 448 146 l 1xab4d52a0
 441 150 437 159 437 168 c 0
267 614 m 0
 254 614 243 625 243 640 c 0
 243 653 254 664 267 664 c 0
 282 664 293 653 293 640 c 0xdb2d5510
 293 625 282 614 267 614 c 0
348 614 m 0
 335 614 324 625 324 640 c 0
 324 653 335 664 348 664 c 0
 363 664 374 653 374 640 c 0
 374 625 363 614 348 614 c 0
106 479 m 0
 93 479 82 490 82 503 c 0
 82 518 93 529 106 529 c 0
 119 529 130 518 130 503 c 0
 130 490 119 479 106 479 c 0
91 435 m 0xdb4caaa0
 91 422 80 411 65 411 c 0
 52 411 41 422 41 435 c 0
 41 450 52 461 65 461 c 0
 80 461 91 450 91 435 c 0xdb4caaa0
80 368 m 0
 80 383 91 394 104 394 c 0
 119 394 130 383 130 368 c 0
 130 355 119 344 104 344 c 0
 91 344 80 355 80 368 c 0
265 344 m 0
 252 344 241 355 241 368 c 0
 241 383 252 394 265 394 c 0
 278 394 289 383 289 368 c 0
 289 355 278 344 265 344 c 0
89 300 m 0
 89 287 78 276 65 276 c 0
 50 276 39 287 39 300 c 0
 39 313 50 326 65 326 c 0
 78 326 89 313 89 300 c 0
78 233 m 0
 78 246 89 259 104 259 c 0
 117 259 128 246 128 233 c 0
 128 220 117 209 104 209 c 0
 89 209 78 220 78 233 c 0
424 259 m 0
 437 259 448 248 448 235 c 0
 448 220 437 209 424 209 c 0
 409 209 398 220 398 235 c 0
 398 248 409 259 424 259 c 0
383 191 m 0
 396 191 406 181 406 165 c 0xdb4d5440
 406 152 396 141 383 141 c 0
 369 141 359 152 359 165 c 0
 359 181 369 191 383 191 c 0
206 98 m 0
 206 85 195 74 182 74 c 0
 167 74 156 85 156 98 c 0
 156 111 167 124 182 124 c 0
 195 124 206 111 206 98 c 0
261 74 m 0
 248 74 237 85 237 98 c 0
 237 113 248 124 261 124 c 0
 276 124 287 113 287 98 c 0
 287 85 276 74 261 74 c 0
EndSplineSet
EndChar
StartChar: seven
Encoding: 55 55 60
Width: 477
Flags: MW
HStem: 0 52<319 321 321 327.5 393 407.5 308 321> 70 50<353.5 368> 138 50<319 321 319 321 395.5 408.5> 205 51<355.5 369> 273 50<322 323 323 329.5 397.5 410.5> 341 50<358.5 371.5> 417 42<24 91.5 77.5 91.5 77.5 103 77.5 146> 476 50<41.5 52.5 117.5 130.5 360.5 373.5> 476 92<41.5 52.5 117.5 130.5> 544 50<80.5 90.5 325 334> 557 37<15 26 26 26 26 65 162 172.5 162 162 240.5 253.5> 612 50<41.5 53.5 120 133.5 200.5 213.5 281.5 291.5> 612 89<41.5 53.5 120 133.5 200.5 213.5 281.5 291.5>
VStem: 15 55<417 507.5 493.5 507.5 493.5 546 493.5 557 493.5 568> 59 103<432 440> 100 62<493.5 507.5> 151 168<456 498 498 498 505 546> 183 48<630 644.5> 262 57<630 644.5> 308 37<0 33.5 24 33.5 24 48 24 142> 343 48 376 50<24 33.5> 421 31<495.5 507.5>
LayerCount: 2
Back
Fore
SplineSet
430 579 m 1xff4c8a
 452 557 l 1
 452 526 l 1
 452 478 l 1
 452 389 l 1
 452 343 l 1
 452 253 l 1
 452 207 l 1
 452 118 l 1
 452 72 l 1
 452 0 l 1
 308 0 l 1
 308 7 l 1
 308 48 l 1
 308 142 l 1
 308 181 l 1
 308 227 l 1
 308 234 l 1
 308 280 l 1
 308 317 l 1
 308 356 l 1
 308 376 l 1
 308 417 l 1
 308 450 l 1
 308 489 l 1
 308 515 l 1
 308 555 l 1
 308 557 l 1
 306 557 l 1
 269 557 l 1
 225 557 l 1
 188 557 l 1
 162 557 l 1
 162 546 l 1
 162 459 l 1
 162 417 l 1xff3252
 146 417 l 1
 103 417 l 1
 65 417 l 1
 24 417 l 1
 15 417 l 1
 15 454 l 1
 15 546 l 1
 15 557 l 1xff356a
 15 568 l 1
 15 592 l 1
 15 681 l 1
 15 701 l 1
 33 701 l 1
 63 701 l 1
 111 701 l 1
 144 701 l 1
 192 701 l 1
 225 701 l 1
 273 701 l 1
 303 701 l 1
 308 701 l 1xfe8d54
 319 690 l 1
 330 679 l 1
 352 657 l 1
 386 622 l 1
 417 592 l 1
 430 579 l 1xff4c8a
151 505 m 2xff548a
 151 550 l 2
 148 553 146 555 146 557 c 2
 107 557 l 1xff348a
 103 548 96 544 85 544 c 0xff556a
 76 544 70 548 65 557 c 1
 26 557 l 2
 26 555 26 555 26 555 c 1
 26 518 l 1
 30 522 37 526 46 526 c 0
 59 526 70 515 70 500 c 0xff356a
 70 487 59 476 46 476 c 0
 37 476 30 480 26 485 c 1
 26 443 l 2
 28 441 28 437 28 432 c 2
 28 432 28 430 28 428 c 2
 61 428 l 2
 59 430 59 432 59 432 c 1xff526a
 59 448 70 459 85 459 c 0
 98 459 109 448 109 432 c 2
 109 432 109 430 109 428 c 2
 140 428 l 2
 140 430 140 432 140 432 c 2
 140 441 144 448 151 452 c 1
 151 498 l 2xff548a
 148 487 137 476 124 476 c 0
 111 476 100 487 100 500 c 0xff556a
 100 515 111 526 124 526 c 0
 137 526 148 515 151 505 c 2xff548a
271 568 m 1xfe956a
 303 568 l 2xfe9554
 301 568 301 568 301 570 c 0
 301 574 303 579 308 583 c 1
 308 587 l 1
 308 594 l 1
 308 614 l 1
 308 618 l 1
 308 622 l 1xff5554
 303 616 295 612 288 612 c 0
 275 612 262 622 262 638 c 0xff556a
 262 651 275 662 288 662 c 0
 295 662 303 657 308 653 c 1
 308 666 l 1
 308 670 l 1
 308 690 l 1
 269 690 l 1
 264 684 258 679 249 679 c 0
 240 679 231 684 227 690 c 1
 188 690 l 1
 183 684 177 679 168 679 c 0
 159 679 153 684 148 690 c 1
 109 690 l 1
 105 684 96 679 87 679 c 0
 79 679 72 684 68 690 c 1
 28 690 l 1
 28 690 26 690 26 688 c 2
 26 670 l 1
 26 666 l 1
 26 651 l 1
 30 657 37 662 46 662 c 0
 61 662 72 651 72 636 c 0
 72 622 61 612 46 612 c 0
 37 612 30 616 26 622 c 1
 26 618 l 1
 26 614 l 1
 26 594 l 1xff5554
 26 587 l 1
 26 583 l 2
 28 579 30 574 30 568 c 1
 30 568 30 568 30 568 c 1
 61 568 l 1
 61 568 61 568 61 568 c 1xfe956a
 61 583 72 594 85 594 c 0xff556a
 100 594 111 583 111 568 c 1
 111 568 111 568 111 568 c 1
 142 568 l 1xfe956a
 142 568 142 568 142 570 c 0
 142 583 153 594 166 594 c 0xff556a
 179 594 192 583 192 570 c 0
 192 568 190 568 190 568 c 1
 223 568 l 1xfe956a
 223 568 223 568 223 570 c 0
 223 583 234 594 247 594 c 0xff556a
 260 594 271 583 271 570 c 0
 271 568 271 568 271 568 c 1xfe956a
441 70 m 1
 428 70 417 81 417 96 c 0
 417 109 428 120 441 120 c 1
 441 120 441 120 441 120 c 1
 441 205 l 1
 428 207 419 218 419 232 c 0
 419 245 428 253 441 256 c 1
 441 341 l 1
 430 343 419 354 419 367 c 0
 419 378 430 389 441 391 c 1
 441 478 l 1
 430 480 421 489 421 502 c 0
 421 513 430 524 441 526 c 1
 441 553 l 1
 430 563 l 1
 428 553 419 544 408 544 c 0
 393 544 382 557 382 570 c 0
 382 581 391 590 400 594 c 1
 378 616 l 2
 376 614 371 612 369 612 c 0
 354 612 343 625 343 638 c 0xff556a
 343 640 345 644 345 649 c 2xff5554
 319 675 l 1
 319 592 l 2
 321 594 323 594 327 594 c 0
 341 594 352 583 352 570 c 0
 352 555 341 544 327 544 c 0
 323 544 321 546 319 546 c 2
 319 456 l 2
 321 459 323 459 325 459 c 0
 338 459 349 448 349 435 c 0
 349 419 338 408 325 408 c 0
 323 408 321 408 319 411 c 2
 319 323 l 1
 319 323 321 323 323 323 c 0
 336 323 349 312 349 299 c 0
 349 284 336 273 323 273 c 0
 321 273 319 273 319 275 c 2
 319 188 l 1
 319 188 321 188 321 188 c 2
 336 188 347 177 347 162 c 0
 347 149 336 138 321 138 c 2
 321 138 319 138 319 138 c 1
 319 52 l 1xff548a
 319 52 319 52 321 52 c 0
 334 52 345 41 345 26 c 0
 345 22 343 15 338 11 c 1
 382 11 l 1
 378 15 376 22 376 26 c 0
 376 41 386 52 400 52 c 0
 415 52 426 41 426 26 c 0
 426 22 424 15 419 11 c 1
 441 11 l 1
 441 70 l 1
 441 70 441 70 441 70 c 1
127 662 m 0
 140 662 153 651 153 638 c 0
 153 622 140 612 127 612 c 0
 113 612 103 622 103 638 c 0
 103 651 113 662 127 662 c 0
207 662 m 0
 220 662 231 651 231 638 c 0
 231 622 220 612 207 612 c 0
 194 612 183 622 183 638 c 0
 183 651 194 662 207 662 c 0
391 502 m 0
 391 487 380 476 367 476 c 0
 354 476 341 487 341 502 c 0
 341 515 354 526 367 526 c 0
 380 526 391 515 391 502 c 0
380 435 m 0
 380 448 393 459 406 459 c 0
 419 459 430 448 430 435 c 0
 430 419 419 408 406 408 c 0
 393 408 380 419 380 435 c 0
389 367 m 0
 389 352 378 341 365 341 c 0
 352 341 341 352 341 367 c 0
 341 380 352 391 365 391 c 0
 378 391 389 380 389 367 c 0
380 299 m 0
 380 312 391 323 404 323 c 0
 417 323 428 312 428 299 c 0
 428 284 417 273 404 273 c 0
 391 273 380 284 380 299 c 0
389 232 m 0
 389 216 376 205 362 205 c 0
 349 205 338 216 338 232 c 0
 338 245 349 256 362 256 c 0
 376 256 389 245 389 232 c 0
402 188 m 0
 415 188 428 177 428 164 c 0
 428 149 415 138 402 138 c 0
 389 138 378 149 378 164 c 0
 378 177 389 188 402 188 c 0
360 120 m 0
 376 120 386 109 386 94 c 0
 386 81 376 70 360 70 c 0
 347 70 336 81 336 94 c 0
 336 109 347 120 360 120 c 0
EndSplineSet
EndChar
StartChar: eight
Encoding: 56 56 61
Width: 496
Flags: MW
HStem: 0 78<113 185 113 176 113 226 239.5 252.5 319.5 333> 31 47<161 162 161 165 239.5 252.5 319.5 333> 98 48<119.5 133.5 200 213.5 280.5 293.5 360.5 368 368 374.5> 135 79<400.5 414.5> 166 48<80.5 94.5 158.5 165 400.5 414.5> 233 48<41 47 41 42 121.5 134.5 363.5 375.5> 270 79<67 176 89 176 93 176 148 176 162.5 165 162.5 176 162.5 189 162.5 228 242.5 256.5 329 335> 301 48<162.5 176 242.5 256.5 329 330 329 335> 368 48<121.5 126 126 128 203.5 204 204 215 215 217.5 282.5 285 285 296 296 297> 405 79<39 97.5 71 97.5 84.5 97.5 84.5 108 84.5 150 84.5 161 84.5 165> 436 48<84.5 97.5> 504 48<49.5 58.5 124.5 138.5> 504 63<124.5 335 365.5 378.5 445.5 453> 556 63<172 180.5 174 180.5 174 335> 571 48<174 180.5> 639 61<126 335 126 335 174 174 206.5 219.5 287.5 300.5 172 375.5 172 381 172 381>
VStem: 28 48<443 534.5 477 534.5 521 534 534 534.5 521 556 521 556> 67 50 106 46 148 26<567 600.5> 161 37 185 50<385.5 394.5> 228 48<588.5 601.5> 265 51<385.5 394.5> 305 41 335 57<115.5 135 115.5 166 115.5 214> 348 44 387 48<100 135 453.5 467.5> 425 56<133 168 250.5 263.5>
LayerCount: 2
Back
Fore
SplineSet
470 567 m 1xadabaa48
 481 556 l 1
 481 482 l 1
 481 438 l 1
 481 416 l 1xadb5aaa8
 470 408 l 1
 435 373 l 1xadb5aa90
 414 349 l 1
 407 344 l 1
 433 318 l 1
 481 270 l 1
 481 214 l 1x92b5aaa8
 481 168 l 1
 481 146 l 1xadb5aaa8
 470 135 l 1
 468 133 l 1
 435 100 l 1
 435 100 l 1x95b5aa90
 414 78 l 1
 414 78 l 1
 383 48 l 1
 383 48 l 1
 335 0 l 1
 307 0 l 1
 263 0 l 1
 226 0 l 1
 185 0 l 1
 176 0 l 1
 165 11 l 1
 165 11 l 1
 50 126 l 1
 34 142 l 1
 34 142 l 1
 30 146 l 1
 30 183 l 1
 30 196 l 1
 30 240 l 1
 30 270 l 1xaab5a548
 39 279 l 1
 41 281 l 1
 69 310 l 1
 102 342 l 1
 100 344 l 1
 69 375 l 1
 69 375 l 1
 39 405 l 1xad55aaa8
 28 416 l 1
 28 443 l 1
 28 477 l 1
 28 521 l 1
 28 534 l 1
 28 556 l 1xadb5aaa8
 163 689 l 1
 163 689 l 1
 172 700 l 1
 335 700 l 1
 355 680 l 1
 390 645 l 1
 416 621 l 1
 438 597 l 1
 470 567 l 1xadabaa48
174 643 m 1
 174 639 l 1
 174 619 l 1xadb59548
 187 619 198 608 198 595 c 0xadb5aaa8
 198 582 187 571 174 571 c 1
 174 567 l 1
 335 567 l 1xadab9548
 453 567 l 1
 435 584 l 1
 431 578 422 571 414 571 c 0
 398 571 387 582 387 595 c 0xadabaa90
 387 606 394 615 403 617 c 1
 381 639 l 1
 381 639 l 1
 379 639 377 639 374 639 c 0
 359 639 348 650 348 663 c 0
 348 665 350 667 350 669 c 2
 331 689 l 1
 174 689 l 1
 174 669 l 1
 174 663 l 1
 174 643 l 1
335 436 m 1
 335 484 l 1
 335 556 l 1
 172 556 l 1
 172 484 l 1
 172 484 l 1
 172 436 l 1
 172 436 l 1
 172 416 l 1
 176 416 l 1
 204 416 l 1
 215 416 l 1
 285 416 l 1
 296 416 l 1
 335 416 l 1
 335 436 l 1
335 214 m 1
 335 270 l 1
 309 270 l 1
 268 270 l 1
 228 270 l 1
 189 270 l 1
 176 270 l 1
 176 214 l 1
 176 166 l 1
 176 146 l 1
 198 146 l 1xaa53aa48
 215 146 l 1
 278 146 l 1
 296 146 l 1
 335 146 l 1
 335 166 l 1
 335 214 l 1
154 395 m 2
 165 405 l 1
 150 405 l 2
 152 403 154 399 154 395 c 2
39 506 m 1
 39 416 l 1
 45 416 l 2
 47 416 47 416 50 416 c 0
 52 416 52 416 54 416 c 2
 58 416 l 1
 65 416 l 1
 84 416 l 1
 89 416 l 1
 111 416 l 1
 115 416 l 1
 126 416 l 1
 126 416 128 416 130 416 c 0
 132 416 132 416 135 416 c 2
 137 416 l 1
 141 416 l 1
 161 416 l 1xadb5aaa8
 161 438 l 1
 152 440 145 449 145 460 c 0
 145 471 152 480 161 484 c 1
 161 573 l 1xad55aaa8
 154 578 148 586 148 595 c 0xadb59548
 148 606 154 613 161 617 c 1
 161 674 l 1
 156 669 l 2
 159 667 159 665 159 663 c 0
 159 650 148 639 132 639 c 0
 130 639 128 639 126 639 c 2
 115 628 l 1
 111 623 l 1
 104 617 l 1
 113 613 117 604 117 595 c 0xadb54aa8
 117 582 106 571 93 571 c 0
 82 571 76 576 71 584 c 1
 65 576 l 1
 58 571 l 1
 39 552 l 1
 39 549 l 1
 43 552 47 552 52 552 c 0
 65 552 76 541 76 528 c 0
 76 514 65 504 52 504 c 0
 47 504 43 504 39 506 c 1
74 386 m 1
 80 379 l 1
 100 360 l 1
 106 353 l 1
 108 351 l 1
 128 368 l 1xadb5aaa8
 115 368 106 379 106 392 c 0
 106 397 106 401 108 405 c 1
 71 405 l 1xad55aaa8
 74 401 74 397 74 392 c 0
 74 390 74 388 74 386 c 1
 74 386 l 1
78 303 m 2
 56 281 l 1
 163 281 l 1
 176 281 l 1
 178 281 l 1
 335 281 l 1
 335 301 l 2xadb5aa48
 333 301 331 301 329 301 c 0
 316 301 305 312 305 325 c 0xadb5aaa8
 305 338 316 349 329 349 c 0
 331 349 333 349 335 349 c 2
 335 405 l 1
 311 405 l 1xaa55aa48
 313 401 316 397 316 392 c 0
 316 379 305 368 289 368 c 0xadb5a948
 276 368 265 379 265 392 c 0
 265 397 268 401 270 405 c 1
 231 405 l 1xad55a948
 233 401 235 397 235 392 c 0
 235 379 224 368 211 368 c 0xadb5a548
 196 368 185 379 185 392 c 0
 185 397 187 401 189 405 c 1
 180 405 l 1
 117 342 l 1
 117 342 l 1xad555548
 111 336 l 2
 113 334 113 329 113 325 c 0
 113 312 102 301 89 301 c 0
 84 301 80 301 78 303 c 2
119 72 m 1
 139 52 l 1
 141 50 l 1
 141 50 141 52 141 54 c 0
 141 68 152 78 165 78 c 1
 165 146 l 1
 165 146 l 1
 165 166 l 1
 152 166 143 177 143 190 c 0
 143 203 152 214 165 214 c 1
 165 270 l 1
 148 270 l 2x6ab59548
 152 268 152 262 152 257 c 0
 152 244 141 233 128 233 c 0xadb5aaa8
 115 233 104 244 104 257 c 0
 104 262 106 268 108 270 c 2
 93 270 l 1
 89 270 l 1
 67 270 l 2xaab55548
 71 268 74 262 74 257 c 0
 74 244 63 233 47 233 c 0
 45 233 43 233 41 233 c 2
 41 150 l 1
 45 146 l 1
 45 146 45 146 45 146 c 1
 60 146 71 135 71 122 c 2
 71 122 71 120 71 120 c 1
 89 102 l 1
 93 98 l 1
 113 78 l 1
 119 72 l 1
161 31 m 2x55b5aaa8
 165 26 l 1
 165 31 l 2
 163 31 163 31 161 31 c 2x55b5aaa8
357 37 m 1
 377 57 l 1
 381 63 l 1
 383 63 l 1
 385 70 392 74 398 78 c 2
 403 83 l 1
 407 87 l 1
 427 107 l 1
 425 111 422 118 422 122 c 0
 422 126 425 131 425 135 c 1x95b5aaa8
 387 135 l 1x95b5aa90
 390 131 392 126 392 122 c 0
 392 109 381 98 368 98 c 0xadb5aa48
 353 98 342 109 342 122 c 0
 342 126 344 131 346 135 c 1x95b5aaa8
 335 135 l 1
 309 135 l 1x95b5aa48
 311 131 311 126 311 122 c 0
 311 109 300 98 287 98 c 0xadb5aaa8
 274 98 263 109 263 122 c 0
 263 126 263 131 265 135 c 1x95b5a948
 228 135 l 1x95b5aaa8
 231 131 231 126 231 122 c 0
 231 109 220 98 207 98 c 0xadb5aaa8
 193 98 183 109 183 122 c 0
 183 126 183 131 185 135 c 1x95b5a548
 176 135 l 1
 176 76 l 1
 185 72 191 63 191 54 c 0
 191 44 185 35 176 33 c 1
 176 11 l 1
 200 11 l 2
 202 11 202 11 204 11 c 0
 207 11 209 11 211 11 c 2
 278 11 l 2
 281 11 283 11 285 11 c 0
 287 11 289 11 292 11 c 2
 331 11 l 1
 350 31 l 1
 357 37 l 1
444 292 m 1
 427 310 l 1
 422 303 416 301 409 301 c 0
 396 301 387 310 385 323 c 1
 346 281 l 1xadb5aaa8
 346 270 l 1
 346 270 l 1xaab5aaa8
 346 266 l 1
 350 277 359 281 368 281 c 0
 383 281 394 270 394 257 c 0
 394 244 383 233 368 233 c 0
 359 233 350 240 346 249 c 1
 346 207 l 1
 350 203 353 196 353 190 c 0
 353 183 350 177 346 172 c 1
 346 146 l 1xadb5aaa8
 357 146 l 2
 361 146 363 146 368 146 c 0
 370 146 374 146 377 146 c 2
 392 146 l 1
 398 146 l 1
 418 146 l 1
 422 146 l 1
 438 146 l 2
 440 146 444 146 446 146 c 0
 451 146 453 146 457 146 c 2
 470 146 l 1xadb5aa48
 470 174 l 1
 466 179 464 183 464 190 c 0
 464 196 466 203 470 207 c 1
 470 244 l 1
 466 238 457 233 449 233 c 0
 435 233 425 244 425 257 c 0
 425 270 435 283 449 283 c 0
 451 283 453 281 455 281 c 2
 449 288 l 1
 444 292 l 1
418 371 m 1
 422 375 l 1
 429 381 l 2
 427 384 427 388 427 392 c 0
 427 408 438 419 451 419 c 0
 455 419 459 416 464 414 c 1
 470 421 l 1
 470 449 l 2
 468 453 466 458 466 460 c 0
 466 464 468 469 470 471 c 2
 470 510 l 1
 466 506 459 504 453 504 c 0
 438 504 427 514 427 528 c 0
 427 543 438 554 453 554 c 0
 459 554 466 549 470 547 c 1
 470 556 l 1
 449 556 l 1
 444 556 l 1
 422 556 l 1
 418 556 l 1
 398 556 l 1
 392 556 l 1
 372 556 l 1
 366 556 l 1
 346 556 l 1
 346 480 l 1
 353 475 355 469 355 460 c 0
 355 453 353 445 346 440 c 1
 346 416 l 1
 346 416 l 1
 346 395 l 2
 346 408 357 419 370 419 c 0
 383 419 394 405 394 392 c 0
 394 379 383 368 370 368 c 0
 357 368 346 379 346 390 c 2
 346 344 l 1
 350 340 355 334 355 325 c 0
 355 318 350 312 346 307 c 1
 346 299 l 1xadb5aaa8
 366 318 l 1
 372 323 l 1
 392 344 l 1
 392 344 l 1xadb5aa48
 398 349 l 1
 401 351 l 1
 418 371 l 1
213 639 m 0
 200 639 189 650 189 663 c 0
 189 676 200 689 213 689 c 0
 226 689 237 676 237 663 c 0
 237 650 226 639 213 639 c 0
294 639 m 0
 281 639 270 650 270 663 c 0
 270 678 281 689 294 689 c 0
 307 689 318 678 318 663 c 0
 318 650 307 639 294 639 c 0
228 595 m 0
 228 608 239 621 252 621 c 0
 265 621 276 608 276 595 c 0
 276 582 265 571 252 571 c 0xadb3aaa8
 239 571 228 582 228 595 c 0
309 595 m 0
 309 610 320 621 333 621 c 0
 346 621 357 610 357 595 c 0
 357 582 346 571 333 571 c 0
 320 571 309 582 309 595 c 0
132 504 m 0
 117 504 106 514 106 528 c 0
 106 541 117 552 132 552 c 0
 145 552 156 541 156 528 c 0
 156 514 145 504 132 504 c 0
396 528 m 0
 396 514 385 504 372 504 c 0
 359 504 348 514 348 528 c 0
 348 543 359 554 372 554 c 0
 385 554 396 543 396 528 c 0
91 436 m 0
 78 436 67 447 67 460 c 0xadb55510
 67 473 78 484 91 484 c 0
 104 484 115 473 115 460 c 0
 115 447 104 436 91 436 c 0
435 460 m 0
 435 447 425 436 411 436 c 0
 398 436 387 447 387 460 c 0
 387 475 398 486 411 486 c 0
 425 486 435 475 435 460 c 0
193 325 m 0
 193 312 183 301 169 301 c 0
 156 301 145 312 145 325 c 0
 145 338 156 349 169 349 c 0
 183 349 193 338 193 325 c 0
250 301 m 0
 235 301 224 312 224 325 c 0
 224 338 235 349 250 349 c 0
 263 349 274 338 274 325 c 0
 274 312 263 301 250 301 c 0
113 190 m 0
 113 177 102 166 87 166 c 0
 74 166 63 177 63 190 c 0
 63 203 74 214 87 214 c 0
 102 214 113 203 113 190 c 0
383 190 m 0
 383 203 394 214 407 214 c 0
 422 214 433 203 433 190 c 0
 433 177 422 166 407 166 c 0
 394 166 383 177 383 190 c 0
152 122 m 0x6db5aaa8
 152 109 141 98 126 98 c 0
 113 98 102 109 102 122 c 0
 102 135 113 146 126 146 c 0
 141 146 152 135 152 122 c 0x6db5aaa8
246 78 m 0
 259 78 270 68 270 54 c 0
 270 41 259 31 246 31 c 0
 233 31 222 41 222 54 c 0
 222 68 233 78 246 78 c 0
326 78 m 0
 340 78 350 68 350 54 c 0
 350 41 340 31 326 31 c 0
 313 31 302 41 302 54 c 0
 302 68 313 78 326 78 c 0
EndSplineSet
EndChar
StartChar: nine
Encoding: 57 57 62
Width: 474
Flags: MW
HStem: 0 81<97 132.5 97 132.5 122.5 132.5 122.5 143 122.5 187 199.5 212.5 122.5 224 279.5 293.5> 31 50<122.5 132.5 199.5 212.5> 98 48<160.5 173.5> 135 157<108 309 108 309 189 224 189 189 270 304 270 270 165 385 165 350 165 444> 168 124<165 374.5> 235 57<165 328 165 321> 281 70<126.5 176 126.5 161 201.5 216 282.5 293.5> 303 48<126.5 139 201.5 216 282.5 293.5 363.5 376.5> 371 56<89 91 89 89 162.5 177 243.5 256.5> 416 70<25 58.5 41 58.5 44 58.5 44 80 44 99 123.5 134.5> 438 48<44 58.5 123.5 134.5 364.5 378.5> 506 59<330.5 339.5 404.5 418.5> 554 67<97 97 97 98.5 97 150 97 161 206.5 219.5 286 300.5> 573 48<49 97 125.5 135.5 206.5 219.5 286 300.5> 641 59<171.5 180.5 246.5 260.5 161 336>
VStem: 14 64<427 506> 67 48 97 64<621 621> 150 48<658.5 661 661 665 665 669 669 670.5 658.5 674 658.5 674 658.5 689> 189 48<590.5 603.5> 228 50<658.5 670.5> 265 55<320.5 333.5> 309 43<117.5 179 252.5 265.5> 348 48 387 50<523.5 536.5> 426 29<456.5 467.5>
LayerCount: 2
Back
Fore
SplineSet
444 565 m 1xa9b75280
 455 554 l 1
 455 486 l 1
 455 438 l 1
 455 351 l 1
 455 303 l 1
 455 216 l 1
 455 168 l 1
 455 146 l 1xa9ab5540
 444 135 l 1
 431 122 l 1
 409 100 l 1
 383 74 l 1
 348 39 l 1x91b75540
 322 13 l 1
 309 0 l 1
 302 0 l 1
 267 0 l 1
 224 0 l 1
 187 0 l 1
 143 0 l 1
 106 0 l 1
 97 0 l 1
 97 9 l 1
 97 102 l 1
 97 146 l 1
 99 146 l 1
 154 146 l 1
 178 146 l 1
 235 146 l 1
 259 146 l 1
 309 146 l 1
 309 179 l 1
 309 205 l 1
 309 244 l 1
 309 275 l 1
 309 281 l 1
 256 281 l 1
 239 281 l 1
 176 281 l 1
 161 281 l 1xa2b75280
 161 283 l 1
 139 303 l 1
 106 336 l 1
 25 416 l 1xa9575540
 14 427 l 1
 14 506 l 1xa9b75540
 14 554 l 1
 14 554 l 1
 38 578 l 1
 71 613 l 1
 102 641 l 1
 117 656 l 1
 150 689 l 1xa9ab2a80
 161 700 l 1
 309 700 l 1
 322 687 l 1
 355 654 l 1
 444 565 l 1xa9b75280
161 689 m 1
 161 687 l 2
 163 687 165 689 167 689 c 2
 161 689 l 1
161 586 m 1
 161 565 l 1
 309 565 l 1xa9b75280
 429 565 l 1
 407 586 l 1
 403 591 l 1
 398 595 l 1
 396 584 385 573 372 573 c 0
 359 573 348 584 348 597 c 0
 348 610 359 621 372 623 c 1
 357 637 l 1
 350 643 l 1
 348 645 l 1xa9b75540
 344 643 339 641 333 641 c 0
 320 641 309 652 309 665 c 0
 309 671 311 676 313 680 c 1
 304 689 l 1
 261 689 l 2
 270 687 278 676 278 665 c 0
 278 652 267 641 254 641 c 0
 239 641 228 652 228 665 c 0
 228 676 237 687 248 689 c 2
 180 689 l 2
 191 687 198 676 198 665 c 0xa9b72a80
 198 652 187 641 174 641 c 0
 169 641 163 641 161 645 c 2
 161 643 l 1
 161 637 l 1
 161 617 l 1
 161 613 l 1
 161 591 l 1
 161 586 l 1
328 554 m 2xa9ab5540
 320 554 l 1
 320 552 l 2
 322 554 326 554 328 554 c 2xa9ab5540
161 508 m 1
 161 427 l 1
 309 427 l 1
 309 445 l 1
 309 480 l 1
 309 521 l 1
 309 538 l 1
 309 554 l 1xa9ab5280
 161 554 l 1
 161 552 l 1
 161 508 l 1
25 510 m 1
 25 427 l 1
 45 427 l 1
 52 427 l 1
 71 427 l 1
 78 427 l 1
 97 427 l 1xa9b75540
 104 427 l 1
 123 427 l 1
 128 427 l 1
 150 427 l 1
 150 445 l 1
 145 440 139 438 130 438 c 0
 117 438 106 449 106 462 c 0
 106 475 117 486 130 486 c 0
 139 486 145 484 150 477 c 1
 150 521 l 2
 147 523 147 525 147 530 c 0
 147 534 147 536 150 538 c 2
 150 554 l 1xa9ab2a80
 150 580 l 1
 145 576 139 573 132 573 c 0
 119 573 108 584 108 597 c 0
 108 610 119 621 132 621 c 0
 139 621 145 619 150 615 c 1
 150 661 l 2
 150 663 150 665 150 665 c 2
 150 667 150 667 150 669 c 2
 150 674 l 1xa9b72a80
 128 654 l 1
 123 647 l 1
 104 628 l 1
 97 621 l 1
 78 602 l 1
 76 602 l 2
 78 599 78 599 78 597 c 0
 78 584 67 573 52 573 c 2
 52 573 49 573 49 573 c 1xa9b75540
 45 571 l 1
 25 549 l 1
 25 549 l 1
 32 545 36 538 36 530 c 0
 36 521 32 514 25 510 c 1
65 395 m 2
 65 403 71 412 80 416 c 1
 41 416 l 1x91575540
 65 392 l 1
 65 392 65 395 65 395 c 2
165 292 m 1
 309 292 l 1
 309 312 l 1x91b75280
 304 307 298 303 289 303 c 0
 276 303 265 314 265 327 c 0xa9b75540
 265 340 276 351 289 351 c 0
 298 351 304 349 309 342 c 1
 309 381 l 2
 307 386 307 390 307 395 c 0
 307 399 307 403 309 408 c 2
 309 416 l 1
 261 416 l 1xa9575280
 270 412 274 403 274 395 c 0
 274 381 263 371 250 371 c 0xa9b75540
 237 371 226 381 226 395 c 0
 226 403 230 412 239 416 c 1
 180 416 l 1xa9575540
 189 412 195 403 195 395 c 0
 195 381 185 371 169 371 c 0xa9b75540
 156 371 145 381 145 395 c 0
 145 403 152 412 158 416 c 1
 99 416 l 1xa9575540
 108 412 115 403 115 395 c 0
 115 381 104 371 91 371 c 0
 89 371 89 371 89 371 c 1
 113 344 l 1
 117 349 123 351 130 351 c 0xa2b6aa80
 143 351 154 340 154 327 c 0
 154 320 152 314 147 310 c 1
 165 292 l 1
374 81 m 2
 396 102 l 1xa9575540
 387 107 383 116 383 124 c 0
 383 129 383 131 385 135 c 1
 350 135 l 1
 350 131 352 129 352 124 c 0
 352 111 341 100 326 100 c 0
 313 100 302 111 302 124 c 0
 302 129 302 131 304 135 c 1
 270 135 l 1
 270 131 272 129 272 124 c 0
 272 111 261 100 248 100 c 0
 232 100 222 111 222 124 c 0
 222 129 224 131 224 135 c 1
 189 135 l 1x91b75280
 191 131 191 129 191 124 c 0
 191 111 180 98 167 98 c 0xa9b75540
 154 98 141 111 141 124 c 0
 141 129 143 131 145 135 c 1
 108 135 l 1
 110 131 110 126 110 124 c 0
 110 120 110 116 108 113 c 2
 108 74 l 1
 113 78 119 81 126 81 c 0
 139 81 150 70 150 57 c 0
 150 41 139 31 126 31 c 0x51b72a80
 119 31 113 35 108 39 c 1
 108 11 l 1
 154 11 l 2
 158 13 161 13 165 13 c 0
 169 13 171 13 176 11 c 2
 235 11 l 2
 237 13 241 13 246 13 c 0
 250 13 252 13 256 11 c 2
 304 11 l 1
 344 48 l 1
 341 52 341 54 341 57 c 0
 341 70 352 81 365 81 c 0
 370 81 372 81 374 81 c 2
444 486 m 1
 444 554 l 1
 422 554 l 1
 418 554 l 1
 416 554 l 2xa94b5540
 429 554 437 543 437 530 c 0
 437 517 426 506 411 506 c 0xa9b75480
 398 506 387 517 387 530 c 0
 387 543 396 554 409 554 c 2
 398 554 l 1
 392 554 l 1
 372 554 l 1
 365 554 l 1
 346 554 l 1
 339 554 l 1
 335 554 l 2xa9ab5480
 348 554 357 543 357 530 c 0
 357 517 346 506 333 506 c 0
 328 506 324 506 320 508 c 1
 320 427 l 1xa9b75540
 320 416 l 1xa9575540
 324 419 326 419 331 419 c 0
 344 419 355 408 355 395 c 0
 355 381 344 371 331 371 c 0
 326 371 324 371 320 373 c 1
 320 283 l 2xa9b75540
 322 283 326 283 328 283 c 0
 341 283 352 272 352 259 c 0xa9b75280
 352 246 341 235 328 235 c 0
 326 235 322 235 320 235 c 2xa5b75540
 320 148 l 2
 322 148 324 148 326 148 c 0
 331 148 337 148 339 146 c 1
 339 146 l 1
 346 146 l 1
 365 146 l 1
 372 146 l 1
 392 146 l 1
 394 146 l 2
 398 148 403 148 407 148 c 0
 411 148 416 148 420 146 c 2
 422 146 l 1
 444 146 l 1
 444 168 l 1
 433 170 424 181 424 192 c 0
 424 205 433 214 444 216 c 1
 444 303 l 1
 433 307 424 316 424 327 c 0
 424 338 433 349 444 351 c 1
 444 440 l 1
 433 443 426 451 426 462 c 0
 426 473 433 482 444 486 c 1
213 621 m 0
 226 621 237 610 237 597 c 0
 237 584 226 573 213 573 c 0xa9b75540
 200 573 189 584 189 597 c 0
 189 610 200 621 213 621 c 0
317 597 m 0
 317 584 307 573 294 573 c 0
 278 573 267 584 267 597 c 0
 267 610 278 621 294 621 c 0
 307 621 317 610 317 597 c 0
91 506 m 0
 78 506 67 517 67 530 c 0
 67 543 78 554 91 554 c 0xa9aaaa80
 106 554 117 543 117 530 c 0
 117 517 106 506 91 506 c 0
76 462 m 0
 76 449 65 438 52 438 c 0
 36 438 25 449 25 462 c 0
 25 475 36 486 52 486 c 0
 65 486 76 475 76 462 c 0
396 462 m 0
 396 449 385 438 372 438 c 0
 357 438 346 449 346 462 c 0
 346 475 357 486 372 486 c 0
 385 486 396 475 396 462 c 0
385 395 m 0
 385 408 396 419 411 419 c 0
 424 419 435 408 435 395 c 0
 435 381 424 371 411 371 c 0
 396 371 385 381 385 395 c 0
208 351 m 0
 224 351 235 340 235 327 c 0
 235 314 224 303 208 303 c 0
 195 303 185 314 185 327 c 0
 185 340 195 351 208 351 c 0
394 327 m 0
 394 314 383 303 370 303 c 0
 357 303 346 314 346 327 c 0
 346 340 357 351 370 351 c 0
 383 351 394 340 394 327 c 0
385 259 m 0
 385 272 396 283 409 283 c 0
 422 283 433 272 433 259 c 0
 433 246 422 235 409 235 c 0
 396 235 385 246 385 259 c 0
368 216 m 0
 381 216 392 205 392 192 c 0
 392 179 381 168 368 168 c 0x69b75540
 355 168 344 179 344 192 c 0
 344 205 355 216 368 216 c 0
206 81 m 0
 219 81 230 70 230 57 c 0
 230 44 219 31 206 31 c 0
 193 31 180 44 180 57 c 0
 180 70 193 81 206 81 c 0
287 81 m 0
 300 81 311 70 311 57 c 0
 311 44 300 33 287 33 c 0
 272 33 261 44 261 57 c 0
 261 70 272 81 287 81 c 0
EndSplineSet
EndChar
StartChar: less
Encoding: 60 60 68
Width: 351
Flags: MW
HStem: 48 21G<229 229> 148 89<174.5 186> 167 51<131 145 214 228> 218 229<59 59 59 59 52 145 52 228> 237 51<91 105 181 185> 237 191<92 105 17 188> 288 159<17 66 52 105 52 185 52 185> 428 90<17 108 98 106.5> 498 20 518 51<177 191> 518 121<98 234 177 234> 663 20G<228 228>
VStem: 17 67<377 480 466 472 472 472> 31 53 74 53 114 53 155 49 199 53
LayerCount: 2
Back
Fore
SplineSet
123 366 m 1xc11940
 335 154 l 1
 243 62 l 1
 229 48 l 1
 204 73 l 1
 204 73 l 1
 179 97 l 1
 179 97 l 1
 153 123 l 1
 153 123 l 1
 80 196 l 1
 80 196 80 196 80 196 c 1
 59 218 l 1
 59 218 59 218 59 218 c 1x909880
 32 244 l 1
 32 244 l 1
 17 260 l 1
 17 260 l 1
 17 288 l 1xc29940
 17 377 l 1
 17 428 l 1
 17 472 l 1
 156 612 l 1
 167 623 l 1
 167 623 l 1
 228 683 l 1
 334 577 l 1
 123 366 l 1xc11940
26 426 m 1
 35 422 42 413 42 403 c 0
 42 392 35 383 26 379 c 1
 27 285 l 1
 50 308 l 1
 39 311 31 321 31 333 c 0xc29480
 31 347 43 358 57 358 c 0
 68 358 78 351 81 340 c 1
 202 461 l 1
 200 465 199 469 199 473 c 0
 199 488 211 499 225 499 c 0
 229 499 233 498 237 496 c 1
 260 519 l 1
 250 522 242 532 242 544 c 0
 242 558 253 569 267 569 c 0
 279 569 289 561 292 551 c 1
 318 577 l 1
 307 588 l 1
 295 590 285 599 284 611 c 1
 228 667 l 1
 168 608 l 1
 166 598 159 591 149 588 c 1
 120 560 l 1
 124 556 127 550 127 543 c 0xc25240
 127 529 115 518 101 518 c 0
 95 518 89 520 84 524 c 1
 59 498 l 1
 73 498 84 487 84 473 c 0
 84 459 73 447 59 447 c 0
 45 447 33 459 33 473 c 1
 26 466 l 1
 26 426 l 1
301 135 m 1
 304 139 l 1
 319 154 l 1
 306 168 l 2
 305 168 305 168 304 168 c 0
 290 168 279 179 279 193 c 0
 279 194 279 194 279 195 c 2
 206 268 l 2
 206 266 206 265 206 263 c 0
 206 249 195 237 181 237 c 0
 166 237 155 249 155 263 c 0xa49880
 155 277 166 288 181 288 c 0
 182 288 184 288 185 288 c 2
 158 315 l 1
 154 311 147 307 140 307 c 0
 126 307 114 319 114 333 c 0xc29940
 114 340 117 347 122 351 c 1
 115 358 l 1
 80 323 l 2
 78 317 73 312 66 309 c 2
 35 278 l 1
 38 274 40 268 40 263 c 0
 40 260 40 257 38 254 c 2
 157 136 l 1
 161 143 170 148 179 148 c 0
 193 148 204 137 204 123 c 0
 204 113 199 105 192 101 c 1
 215 78 l 2
 216 78 218 78 219 78 c 0
 226 78 232 76 237 71 c 1
 244 78 l 1
 248 82 l 1
 263 97 l 1
 263 97 l 1
 262 97 262 97 262 97 c 2
 248 97 236 109 236 123 c 0
 236 137 248 148 262 148 c 0
 276 148 287 137 287 123 c 2
 287 123 287 122 287 122 c 1
 301 135 l 1
227 588 m 0
 212 588 201 600 201 614 c 0
 201 628 212 639 227 639 c 0
 241 639 252 628 252 614 c 0xc23940
 252 600 241 588 227 588 c 0
184 518 m 0
 170 518 159 529 159 543 c 0
 159 558 170 569 184 569 c 0xc25940
 198 569 210 558 210 543 c 0
 210 529 198 518 184 518 c 0
142 448 m 0
 128 448 116 459 116 473 c 0
 116 487 128 499 142 499 c 0
 156 499 167 487 167 473 c 0
 167 459 156 448 142 448 c 0
99 377 m 0
 85 377 74 389 74 403 c 0
 74 417 85 428 99 428 c 0xa49280
 114 428 125 417 125 403 c 0
 125 389 114 377 99 377 c 0
123 263 m 0
 123 249 112 237 98 237 c 0
 84 237 72 249 72 263 c 0
 72 277 84 288 98 288 c 0xa91940
 112 288 123 277 123 263 c 0
138 218 m 0xa29940
 152 218 164 207 164 193 c 0
 164 179 152 167 138 167 c 0
 124 167 113 179 113 193 c 0
 113 207 124 218 138 218 c 0xa29940
221 218 m 0
 235 218 247 207 247 193 c 0
 247 179 235 167 221 167 c 0
 207 167 196 179 196 193 c 0
 196 207 207 218 221 218 c 0
EndSplineSet
EndChar
StartChar: greater
Encoding: 62 62 69
Width: 346
Flags: MW
HStem: 43 21G<120 121.5> 135 90<75 172.5 158.5 168> 154 52<115.5 129.5 199.5 208.5> 206 90<115.5 215.5 203.5 214> 277 90<158.5 258.5 244 256.5 244 334> 438 51<295 301> 489 20 509 51 579 52<121 135> 665 20G<120 120>
VStem: 70 32<598 607> 102 50 106 32<105 116 105 116> 138 57 152 29 195 33<527.5 539 527.5 542> 234 34 268 50 268 66<456.5 471> 277 47
LayerCount: 2
Back
Fore
SplineSet
268 538 m 1xcdeb20
 334 472 l 1
 334 418 l 1
 334 368 l 1
 334 277 l 1
 334 257 l 1xcaeb20
 277 201 l 1xcaeb90
 267 190 l 1
 267 190 267 190 267 190 c 1
 179 102 l 1
 160 83 l 1
 160 83 160 83 160 83 c 1
 136 59 l 1
 136 59 l 1
 120 43 l 1
 104 58 l 1
 11 150 l 1
 183 321 l 1
 183 321 l 1
 209 348 l 1
 209 348 l 1
 227 365 l 1
 13 578 l 1
 120 685 l 1
 189 617 l 1
 189 617 l 1
 224 583 l 1
 224 583 l 1
 247 560 l 1
 247 560 l 1
 268 538 l 1xcdeb20
125 63 m 2
 149 88 l 1
 142 92 138 101 138 109 c 0
 138 123 149 135 164 135 c 0xcae490
 172 135 180 131 185 124 c 1
 218 157 l 2
 215 155 210 154 207 154 c 0
 192 154 181 166 181 180 c 0
 181 194 192 206 207 206 c 0
 221 206 232 194 232 180 c 0
 232 176 232 172 230 169 c 2
 308 247 l 2
 307 249 307 250 307 251 c 0
 307 260 312 268 318 272 c 1xaaeb40
 295 297 l 2
 294 296 293 296 293 296 c 1
 278 296 267 308 267 322 c 0
 267 323 267 323 267 324 c 2
 234 357 l 1
 222 344 l 1
 229 339 234 331 234 322 c 0
 234 308 223 296 208 296 c 0x92eb90
 199 296 191 301 187 309 c 1
 64 186 l 2
 64 184 64 181 64 180 c 0
 64 166 53 154 39 154 c 0xaaeb90
 37 154 34 154 32 155 c 2
 28 150 l 1
 43 135 l 1
 47 131 l 1
 57 122 l 1
 61 129 70 135 80 135 c 0
 94 135 106 123 106 109 c 0
 106 99 100 91 91 86 c 1
 100 78 l 1
 104 73 l 1
 115 63 l 2
 117 63 119 64 121 64 c 0
 122 64 123 64 125 63 c 2
325 370 m 1
 316 374 309 383 309 393 c 0
 309 403 316 412 325 417 c 1
 325 466 l 1
 319 471 l 2
 320 468 320 467 320 464 c 0
 320 449 308 438 295 438 c 0xcdeb90
 280 438 268 449 268 464 c 0
 268 478 280 489 295 489 c 0
 297 489 299 489 301 489 c 2xcaeb90
 272 517 l 1
 268 512 261 509 253 509 c 0
 238 509 228 520 228 535 c 0
 228 543 230 549 236 554 c 1
 210 580 l 1
 198 581 188 591 187 604 c 1
 120 669 l 1
 68 616 l 2
 69 613 70 609 70 605 c 0
 70 591 59 579 44 579 c 0
 41 579 37 580 33 582 c 1
 29 578 l 1
 61 546 l 1
 66 554 75 560 85 560 c 0xcdeb90
 100 560 111 548 111 535 c 0
 111 524 105 516 96 511 c 1
 119 488 l 2
 121 489 123 489 126 489 c 0
 140 489 152 477 152 464 c 0
 152 461 151 458 151 456 c 2
 271 336 l 1
 276 343 284 348 293 348 c 0
 307 348 318 337 318 322 c 0xcad140
 318 313 314 305 307 300 c 1
 324 283 l 1
 325 370 l 1
154 605 m 0
 154 591 142 579 128 579 c 0
 114 579 102 591 102 605 c 0
 102 620 114 631 128 631 c 0
 142 631 154 620 154 605 c 0
195 535 m 0
 195 520 183 508 169 508 c 0
 155 508 143 520 143 535 c 0
 143 549 155 560 169 560 c 0
 183 560 195 549 195 535 c 0
236 464 m 0
 236 449 225 437 210 437 c 0
 196 437 184 449 184 464 c 0
 184 478 196 489 210 489 c 0
 225 489 236 478 236 464 c 0
251 418 m 0
 266 418 277 408 277 393 c 0
 277 378 266 367 251 367 c 0
 237 367 226 378 226 393 c 0
 226 408 237 418 251 418 c 0
166 225 m 0
 151 225 139 237 139 250 c 0
 139 265 151 277 166 277 c 0
 179 277 191 265 191 250 c 0
 191 237 179 225 166 225 c 0
249 225 m 0
 236 225 224 237 224 251 c 0
 224 265 236 277 249 277 c 0
 264 277 276 265 276 251 c 0
 276 237 264 225 249 225 c 0
149 180 m 0
 149 166 137 154 122 154 c 0
 109 154 97 166 97 180 c 0
 97 194 109 206 122 206 c 0xaaeb90
 137 206 149 194 149 180 c 0
EndSplineSet
EndChar
StartChar: question
Encoding: 63 63 67
Width: 504
Flags: MW
HStem: 0 66<200 210.5 275.5 289.5 176 210.5> 16 50<200 210.5 275.5 289.5> 135 82<217.5 226.5 297.5 304 217.5 311 187 226.5> 193 24<176 226.5 217.5 226.5 217.5 246 217.5 277 297.5 304> 235 50<255.5 269.5> 370 48<339.5 346 322 351.5> 423 64<58.5 71.5 138 145 10 71.5> 438 49<58.5 71.5 138 145 379 392.5 459 469> 505 60<21 27 21 22 98.5 112.5> 554 68<72 153.5 94 153.5 98.5 153.5 100 153.5 120 153.5 140 145 220 233.5 300.5 314 140 156> 573 49<140 153.5 220 233.5 300.5 314 379.5 393.5> 640 59<113 346 181 194.5 261.5 275 156 346>
VStem: 10 41<423 535.5 522.5 535.5 522.5 549 522.5 554 522.5 554> 82 49<522.5 536.5> 120 36<434 434 455 468.5> 145 212<434 438 438 438 487 507 553 554 418 554 418 554> 164 49<657.5 670.5> 176 37 176 51<33.5 47.5 33.5 88 33.5 130> 176 132<33.5 47.5 33.5 88 33.5 130 33.5 144 33.5 144> 202 49<590 603.5> 220 48<101.5 115> 244 49<657.5 670.5> 279 43 311 59<387.5 392 392 392 387.5 407> 324 33<407 507> 346 24<387.5 420 387.5 505 387.5 420> 359 53 401 51<523.5 537.5> 441 51<456 469.5>
LayerCount: 2
Back
Fore
SplineSet
176 130 m 1xaebc4554
 176 144 l 1
 322 144 l 1
 322 133 l 1
 322 84 l 1
 322 0 l 1
 176 0 l 1
 176 88 l 1
 176 130 l 1xaebc4554
311 135 m 1x6e5c2284
 187 135 l 1
 187 115 l 2
 187 113 189 111 189 108 c 0
 189 106 187 104 187 102 c 2
 187 60 l 1
 191 64 196 66 204 66 c 0
 217 66 227 55 227 40 c 0
 227 27 217 16 204 16 c 0
 196 16 191 18 187 22 c 1
 187 11 l 1
 311 11 l 1
 311 88 l 1
 304 91 299 100 299 109 c 0
 299 119 304 126 311 130 c 1
 311 135 l 1x6e5c2284
492 554 m 1
 492 418 l 1
 355 281 l 1
 355 281 l 1
 346 274 l 1
 322 274 l 1
 322 274 l 1
 322 193 l 1
 322 193 l 1x9d5c8524
 277 193 l 1
 246 193 l 1
 198 193 l 1
 176 193 l 1
 176 235 l 1
 176 235 l 1
 176 274 l 1
 187 283 l 1
 187 283 187 283 187 283 c 1
 211 306 l 1
 211 306 l 1
 244 339 l 1
 244 339 244 339 244 339 c 1
 277 374 l 1
 277 374 277 374 277 374 c 1
 286 381 l 1
 286 381 286 381 286 381 c 1
 311 407 l 1x9ebc4288
 322 418 l 1
 337 418 l 1
 346 418 l 1
 346 420 l 1
 346 420 l 1
 346 505 l 1
 346 505 l 1xaebc8528
 346 554 l 1
 346 554 l 1
 346 554 l 1
 156 554 l 1
 156 483 l 1
 156 440 l 1
 156 423 l 1
 10 423 l 1
 10 509 l 1
 10 549 l 1
 10 554 l 1xae5a8528
 21 565 l 1
 156 699 l 1
 346 699 l 1xaeba8528
 357 688 l 1xaebd0014
 492 554 l 1
145 487 m 1xadbd0014
 145 554 l 1xad5d0014
 125 554 l 1
 120 554 l 1
 100 554 l 1
 94 554 l 1
 72 554 l 1
 69 554 l 1
 47 554 l 1
 41 554 l 1
 21 554 l 1
 21 553 l 2
 23 553 25 554 27 554 c 0xae5a8554
 40 554 51 542 51 529 c 0
 51 516 40 505 27 505 c 0
 25 505 23 505 21 505 c 2
 21 434 l 1
 41 434 l 1
 47 434 l 1
 69 434 l 1
 72 434 l 1
 94 434 l 1
 100 434 l 1
 120 434 l 1xaeba8554
 125 434 l 1
 145 434 l 1
 145 438 l 1xadbd0014
 131 438 120 449 120 461 c 0xadba8554
 120 476 131 487 145 487 c 1xadbd0014
156 565 m 1xaeba8288
 346 565 l 1
 346 586 l 1
 346 591 l 1
 346 611 l 1
 346 617 l 1
 346 637 l 1
 346 640 l 1xaeba8528
 333 642 324 651 324 666 c 0
 324 677 331 686 341 688 c 2
 273 688 l 2
 284 686 293 677 293 664 c 0xaebc8254
 293 651 282 640 268 640 c 0xaebc8554
 255 640 244 651 244 664 c 0
 244 677 251 686 262 688 c 2
 193 688 l 2
 204 686 213 677 213 664 c 0
 213 651 202 640 187 640 c 0
 175 640 164 651 164 664 c 0
 164 677 171 686 182 688 c 2
 160 688 l 1
 140 668 l 1
 134 662 l 1
 133 660 l 2
 131 649 122 642 113 640 c 2
 109 637 l 1
 89 617 l 1
 85 613 l 1
 89 609 91 604 91 596 c 0
 91 584 80 573 67 573 c 0
 61 573 54 575 51 578 c 1
 38 565 l 1
 156 565 l 1xaeba8288
324 407 m 2xaebc8554
 322 407 l 1
 322 405 l 1
 322 405 322 407 324 407 c 2xaebc8554
311 215 m 2xaebc8488
 311 274 l 1
 311 303 l 2xaebc8488
 310 303 306 303 304 303 c 0
 289 303 279 314 279 326 c 0xaebc8554
 279 341 289 352 304 352 c 0
 306 352 310 352 311 350 c 2
 311 392 l 1
 248 328 l 1
 248 328 248 328 248 326 c 0
 248 314 237 303 224 303 c 0
 222 303 222 303 222 303 c 1
 198 279 l 1
 204 274 207 266 207 259 c 0
 207 248 198 237 187 235 c 1
 187 204 l 1
 200 204 l 1
 206 212 213 217 222 217 c 0
 231 217 238 212 242 204 c 1
 280 204 l 1
 286 212 293 217 302 217 c 0
 306 217 308 215 311 215 c 2xaebc8488
414 356 m 1
 419 361 l 1
 428 370 l 1
 428 370 426 370 424 370 c 0
 412 370 401 381 401 394 c 0
 401 399 401 403 403 407 c 1
 366 407 l 1
 368 403 370 399 370 394 c 0xaebc8488
 370 381 359 370 344 370 c 0
 335 370 326 376 322 385 c 1
 322 381 l 1
 322 361 l 1
 322 356 l 1
 322 343 l 1
 326 339 328 334 328 326 c 0
 328 321 326 316 322 310 c 1
 322 310 l 1
 322 305 l 1
 322 285 l 1
 339 285 l 2
 341 285 341 285 342 285 c 2
 362 305 l 1
 368 308 l 1
 362 314 359 319 359 326 c 0xaebc8554
 359 341 370 352 384 352 c 0
 392 352 397 348 403 345 c 1
 414 356 l 1
448 390 m 2
 465 407 l 1
 446 407 l 1
 448 403 448 399 448 394 c 2
 448 394 448 392 448 390 c 2
461 418 m 1
 481 418 l 1
 481 443 l 1
 476 440 472 438 466 438 c 0
 452 438 441 449 441 463 c 0xadbc8284
 441 476 452 487 466 487 c 0
 472 487 476 485 481 482 c 1
 481 549 l 1
 461 571 l 1
 455 576 l 1
 452 578 l 2
 450 580 448 580 448 582 c 2
 434 596 l 1
 428 602 l 1
 408 622 l 1
 403 627 l 1
 383 648 l 1
 377 653 l 1
 372 658 l 1
 370 651 364 646 357 642 c 1
 357 554 l 1
 357 553 l 1
 364 547 372 540 372 529 c 0
 372 520 364 511 357 507 c 1
 357 418 l 1xad5d0008
 377 418 l 1
 383 418 l 1
 403 418 l 1
 408 418 l 1
 417 418 l 2
 419 420 423 420 424 420 c 0
 428 420 430 420 434 418 c 1
 434 418 l 1
 455 418 l 1
 461 418 l 1
244 84 m 0
 229 84 220 95 220 108 c 0xaebc8554
 220 122 229 133 244 133 c 0xaebc8288
 257 133 268 122 268 108 c 0xaebc8554
 268 95 257 84 244 84 c 0
258 40 m 0
 258 55 269 66 282 66 c 0
 297 66 308 55 308 40 c 0xaebc1088
 308 27 297 16 282 16 c 0
 269 16 258 27 258 40 c 0
147 622 m 0
 160 622 171 611 171 596 c 0
 171 584 160 573 147 573 c 0
 133 573 122 584 122 596 c 0
 122 611 133 622 147 622 c 0
227 622 m 0xaebc2288
 240 622 251 611 251 596 c 0xae5c0954
 251 584 240 573 227 573 c 0xaebc2288
 213 573 202 584 202 596 c 0xaebc0954
 202 611 213 622 227 622 c 0xaebc2288
308 622 m 0xaebc1054
 320 622 331 611 331 596 c 0
 331 584 320 573 308 573 c 0
 293 573 282 584 282 596 c 0
 282 611 293 622 308 622 c 0xaebc1054
412 598 m 0
 412 584 401 573 386 573 c 0
 373 573 362 584 362 598 c 0
 362 611 373 622 386 622 c 0
 401 622 412 611 412 598 c 0
105 554 m 0xae5d0014
 120 554 131 544 131 529 c 0
 131 516 120 505 105 505 c 0xaebd0014
 92 505 82 516 82 529 c 0
 82 544 92 554 105 554 c 0xae5d0014
452 531 m 0
 452 516 439 505 426 505 c 0xadbd0008
 414 505 401 516 401 531 c 0
 401 544 414 554 426 554 c 0
 439 554 452 544 452 531 c 0
65 487 m 0
 78 487 91 474 91 461 c 0
 91 449 78 438 65 438 c 0
 52 438 41 449 41 461 c 0
 41 474 52 487 65 487 c 0
386 487 m 0
 399 487 410 476 410 461 c 0
 410 449 399 438 386 438 c 0
 372 438 361 449 361 461 c 0
 361 476 372 487 386 487 c 0
262 285 m 0
 277 285 288 274 288 259 c 0
 288 246 277 235 262 235 c 0
 249 235 238 246 238 259 c 0
 238 274 249 285 262 285 c 0
EndSplineSet
EndChar
StartChar: A
Encoding: 65 65 64
Width: 610
Flags: MW
HStem: -2 21G<478 478> 37 47<76.5 89> 104 49<433 446 517.5 523.5> 170 49<400 400 400 407 474 481 474 475> 237 47<130 130 197 211> 304 49<395 409 475 484.5> 371 49<360.5 361 360.5 363 436 450.5> 435 51<240 252 398 412> 502 51<203.5 213 203.5 213 359 373> 569 51<241 252 241 255 320.5 334.5> 636 49<214 242 214 242 282 296 360 371.5> 636 66<214 388 214 388 282 296 360 373>
VStem: 60 49 100 51 139 133 151 30<388 396.5> 181 51 190 33<320.5 335 454 466> 223 49<586.5 594 594 595 586.5 601> 232 30<521 533> 262 49<521 527 479 534> 302 47<455.5 507> 311 31 342 46 349 32 381 47 388 32 420 47 428 29 457 47 467 28 504 30<187 197.5 187 201>
LayerCount: 2
Back
Fore
SplineSet
597 90 m 1xffda0444
 578 76 l 1
 578 76 l 1
 539 46 l 1
 539 46 l 1
 478 -2 l 1
 205 174 l 1
 197 151 l 1
 197 151 l 1
 184 112 l 1
 184 112 l 1
 172 83 l 1
 172 83 l 1
 158 37 l 1
 146 0 l 1
 146 0 l 1
 146 0 l 1
 9 49 l 1
 21 77 l 1
 21 77 21 77 21 77 c 1
 35 123 l 1
 46 151 l 1
 46 151 l 1
 61 193 l 1
 61 193 l 1
 65 207 l 1
 65 207 l 1
 98 306 l 1
 98 306 98 306 98 306 c 1
 109 335 l 1
 109 335 l 1
 121 371 l 1
 121 371 l 1
 137 414 l 1
 137 414 l 1
 148 448 l 1
 148 448 l 1
 158 479 l 1
 214 636 l 1
 214 636 l 1
 227 678 l 1
 227 678 l 1
 235 702 l 1
 388 702 l 1xffda0104
 416 615 l 1
 416 615 416 615 416 615 c 1
 428 585 l 1
 428 585 l 1
 439 550 l 1
 439 550 439 550 439 550 c 1
 455 506 l 1
 455 506 l 1
 465 478 l 1
 465 478 l 1
 478 435 l 1
 478 435 l 1
 530 284 l 1
 530 284 l 1
 541 249 l 1
 541 249 541 249 541 249 c 1
 553 218 l 1
 553 218 l 1
 569 172 l 1
 569 172 l 1
 578 142 l 1
 578 142 l 1
 592 104 l 1
 592 104 592 104 592 104 c 1
 597 90 l 1xffda0444
444 502 m 1
 430 502 420 515 420 527 c 0xffe88911
 420 536 425 541 428 546 c 1xffea0444
 420 574 l 1xffea0411
 416 572 411 569 406 569 c 0
 392 569 381 579 381 594 c 0
 381 608 392 616 406 620 c 1
 392 658 l 1
 390 646 379 636 367 636 c 0
 353 636 342 646 342 660 c 0xffea0244
 342 674 353 685 367 685 c 0
 376 685 379 681 383 678 c 2
 381 688 l 1
 360 688 l 1
 353 688 l 1
 332 688 l 1
 328 688 l 1
 306 688 l 1
 300 688 l 1
 277 688 l 1
 274 688 l 1
 253 688 l 1
 253 688 l 1
 300 546 l 1
 306 541 311 536 311 527 c 0
 311 525 311 522 311 520 c 2
 321 483 l 2
 323 486 323 486 325 486 c 0
 339 486 349 476 349 460 c 0xffe88891
 349 451 344 443 337 439 c 1
 348 411 l 2
 351 414 358 420 363 420 c 0
 378 420 388 409 388 393 c 0
 388 381 378 371 363 371 c 0
 362 371 362 371 360 371 c 2
 414 214 l 2
 418 212 420 209 421 204 c 2
 462 179 l 2
 457 183 455 190 455 193 c 0
 455 209 465 219 481 219 c 0
 493 219 504 209 504 193 c 0
 504 181 493 170 481 170 c 0
 478 170 476 170 474 170 c 2
 506 148 l 1
 511 151 515 153 520 153 c 0
 532 153 543 142 543 126 c 2
 543 126 543 126 543 125 c 2
 581 102 l 1
 558 170 l 1
 544 170 534 181 534 193 c 0
 534 202 539 209 543 212 c 1
 534 241 l 1
 530 239 525 237 522 237 c 0
 506 237 495 248 495 260 c 0xffea010b
 495 272 506 284 520 286 c 1
 506 323 l 1
 504 311 493 304 483 304 c 0
 467 304 457 314 457 327 c 0
 457 342 467 353 483 353 c 0
 486 353 493 351 497 346 c 2
 464 448 l 2
 462 451 458 455 458 460 c 2
 444 502 l 1
363 242 m 1
 400 219 l 1
 400 219 l 1
 311 481 l 1
 311 479 l 1
 311 479 l 1
 306 467 l 1
 290 416 l 1
 290 416 l 1
 274 372 l 1
 274 372 l 1
 263 342 l 1
 263 342 l 1
 253 314 l 1
 262 309 l 1
 262 309 l 1
 339 260 l 1
 339 260 l 1
 363 242 l 1
242 685 m 1
 234 662 l 1
 234 662 234 662 234 660 c 0
 234 653 232 650 227 643 c 2
 193 546 l 2
 197 550 200 553 207 553 c 0
 219 553 232 539 232 527 c 0xffe48911
 232 515 219 502 207 502 c 0
 197 502 186 509 184 520 c 1
 170 483 l 1
 184 481 190 472 190 460 c 0
 190 448 179 435 167 435 c 0
 162 435 160 435 156 439 c 1
 146 409 l 1
 149 404 151 400 151 393 c 0
 151 383 142 372 132 371 c 1
 100 276 l 1
 165 372 l 1
 223 335 l 1xffe44911
 225 344 234 351 244 351 c 0
 248 351 251 351 255 348 c 1
 265 381 l 1
 262 385 262 390 262 393 c 0xffe95444
 262 404 267 414 276 416 c 1
 304 499 l 1
 302 507 l 1xffea0444
 297 506 291 502 286 502 c 0
 272 502 262 515 262 527 c 0xffe88911
 262 541 272 553 286 553 c 1
 286 553 286 553 286 553 c 1
 272 595 l 1
 272 595 272 594 272 594 c 2
 272 579 262 569 248 569 c 0
 234 569 223 579 223 594 c 0xffe92444
 223 608 234 620 248 620 c 0
 256 620 263 615 267 608 c 2
 242 685 l 1
100 258 m 2
 100 256 l 1
 102 256 l 2
 100 256 100 256 100 258 c 2
181 140 m 2
 197 181 l 1
 186 186 l 1
 184 176 176 170 165 170 c 0
 149 170 139 181 139 193 c 0
 139 200 142 209 148 212 c 1
 91 249 l 1
 81 218 l 1
 81 218 83 218 84 218 c 0
 98 218 109 207 109 193 c 0
 109 181 98 170 84 170 c 0
 76 170 70 172 65 179 c 1
 54 148 l 1
 63 144 68 135 68 126 c 0
 68 114 56 104 44 104 c 0
 42 104 42 104 40 104 c 2
 26 65 l 1
 26 65 28 61 28 60 c 0
 28 58 26 56 26 54 c 2
 42 47 l 1
 47 47 l 1
 65 39 l 1
 72 39 l 1
 91 30 l 1
 95 30 l 1
 114 21 l 1
 119 21 l 1
 139 12 l 1
 148 40 l 1
 140 46 139 51 139 60 c 0xffea0444
 139 74 149 84 162 84 c 1
 162 84 162 84 162 84 c 1
 177 128 l 2
 179 133 179 137 181 140 c 2
474 12 m 1
 532 60 l 1
 532 60 532 60 532 60 c 1
 532 76 543 86 558 86 c 0
 560 86 562 84 564 84 c 2
 574 93 l 1
 539 114 l 1
 534 107 527 104 520 104 c 0
 504 104 493 114 493 126 c 0
 493 133 495 137 500 142 c 1
 425 190 l 1
 421 179 414 170 400 170 c 0
 388 170 378 181 378 193 c 0
 378 202 381 211 388 214 c 1
 306 267 l 2
 306 265 306 262 306 260 c 0
 306 248 295 237 283 237 c 0
 270 237 258 248 258 260 c 0
 258 272 267 281 281 284 c 1
 251 304 l 2
 248 304 246 304 244 304 c 0
 234 304 223 311 219 323 c 1
 167 358 l 1
 162 351 l 1
 162 351 165 351 165 351 c 2
 179 351 190 339 190 327 c 0xffe94911
 190 314 179 304 165 304 c 0
 153 304 146 309 142 320 c 1
 118 284 l 2
 119 284 121 284 126 284 c 0
 139 284 149 272 149 260 c 0
 149 249 140 239 130 237 c 1
 160 218 l 1
 160 218 162 218 165 218 c 0
 176 218 184 211 188 200 c 1
 267 146 l 1
 272 151 276 151 281 151 c 0
 295 151 306 140 306 126 c 0
 306 125 306 125 304 123 c 2
 379 76 l 1
 383 79 390 84 399 84 c 0
 411 84 421 74 421 60 c 0
 421 56 421 51 420 47 c 2
 474 12 l 1
313 660 m 0
 313 646 302 636 290 636 c 0
 274 636 263 646 263 660 c 0
 263 674 274 685 290 685 c 0
 302 685 313 674 313 660 c 0
351 594 m 0
 351 579 341 569 328 569 c 0
 313 569 302 579 302 594 c 0xffe92444
 302 608 313 620 328 620 c 0
 341 620 351 608 351 594 c 0
390 527 m 0
 390 515 379 502 367 502 c 0
 351 502 341 515 341 527 c 0
 341 541 351 553 367 553 c 0
 379 553 390 541 390 527 c 0
223 460 m 0
 223 472 234 486 246 486 c 0
 258 486 270 472 270 460 c 0
 270 448 258 435 246 435 c 0
 234 435 223 448 223 460 c 0
379 460 m 0
 379 476 390 486 406 486 c 0
 418 486 428 476 428 460 c 0
 428 448 418 435 406 435 c 0
 390 435 379 448 379 460 c 0
205 416 m 0
 218 416 228 406 228 393 c 0
 228 381 218 371 205 371 c 0
 193 371 181 381 181 393 c 0xffe48911
 181 406 193 416 205 416 c 0
418 393 m 0
 418 409 428 420 444 420 c 0
 457 420 467 409 467 393 c 0
 467 381 457 371 444 371 c 0
 428 371 418 381 418 393 c 0
427 327 m 0
 427 314 416 304 402 304 c 0
 388 304 378 314 378 327 c 0
 378 342 388 353 402 353 c 0
 416 353 427 342 427 327 c 0
228 260 m 0
 228 248 218 237 204 237 c 0
 190 237 179 248 179 260 c 0
 179 272 190 284 204 284 c 0
 218 284 228 272 228 260 c 0
416 260 m 0
 416 276 427 286 441 286 c 0
 455 286 465 276 465 260 c 0
 465 248 455 237 441 237 c 0
 427 237 416 248 416 260 c 0
242 218 m 0
 256 218 267 207 267 193 c 0
 267 181 256 170 242 170 c 0
 228 170 218 181 218 193 c 0
 218 207 228 218 242 218 c 0
344 193 m 0
 344 181 334 170 321 170 c 0
 309 170 297 181 297 193 c 0
 297 207 309 218 321 218 c 0
 334 218 344 207 344 193 c 0
123 151 m 0
 137 151 148 140 148 126 c 0
 148 114 137 104 123 104 c 0
 111 104 100 114 100 126 c 0
 100 140 111 151 123 151 c 0
360 151 m 0
 372 151 383 140 383 126 c 0
 383 114 372 104 360 104 c 0
 348 104 337 114 337 126 c 0
 337 140 348 151 360 151 c 0
464 126 m 0
 464 114 453 104 439 104 c 0
 427 104 416 114 416 126 c 0
 416 140 427 153 439 153 c 0
 453 153 464 140 464 126 c 0
83 84 m 0
 95 84 107 74 107 60 c 0
 107 47 95 37 83 37 c 0
 70 37 60 47 60 60 c 0xffea0444
 60 74 70 84 83 84 c 0
478 86 m 0
 492 86 502 74 502 60 c 0
 502 47 492 37 478 37 c 0
 465 37 455 47 455 60 c 0
 455 74 465 86 478 86 c 0
EndSplineSet
EndChar
StartChar: B
Encoding: 66 66 1
Width: 521
Flags: MW
HStem: 0 78<58 66.5 58 80 36 66.5 58 121 58 80 134.5 147.5 58 121 213.5 227.5 293.5 307.5> 28 50<58 66.5 134.5 147.5> 96 50<95.5 108.5> 135 78<135.5 149.5 59 123 380 388.5 456.5 469.5> 165 48<135.5 149.5 380 388.5 456.5 469.5> 233 50<182 356> 272 76<216.5 230 297.5 310.5> 300 48<61.5 71.5 136.5 150.5 216.5 230 297.5 310.5 382 391> 368 50<182 184 171 182 258.5 271.5 338.5 347.5 418.5 421 421 432.5> 407 76<383.5 393.5> 435 48<61.5 72.5 138.5 151.5 383.5 393.5> 503 48<99.5 112.5> 503 63<99.5 112.5> 555 63<36 47 47 47 63.5 73.5 140.5 153.5 221.5 234.5 300.5 314.5> 570 48<63.5 73.5 140.5 153.5 221.5 234.5 300.5 314.5> 638 50<340.5 349.5 340.5 361> 638 63<36 361 47 47 101.5 114.5 182.5 195.5 261.5 275.5 340.5 349.5 36 361 36 421 36 421>
VStem: 36 57<505 600.5 548 600.5 555 600.5 587.5 600.5 587.5 638 587.5 685> 84 42 123 46 158 24<252.5 261> 171 39<279 394 372 394 385.5 418 385.5 507> 202 50<587.5 600.5> 241 48<385.5 394> 282 50<587.5 600.5> 319 52<135 168 385.5 390> 361 45<146 195.5 182.5 195.5 182.5 200 182.5 239 182.5 272> 398 47<115.5 124> 443 48<418 466.5> 478 26<135 233 251.5 260>
LayerCount: 2
Back
Fore
SplineSet
485 577 m 1xadb55554
 504 555 l 1
 504 553 l 1
 504 503 l 1
 504 418 l 1
 504 418 l 1
 504 418 l 1
 432 344 l 1
 458 318 l 1
 474 302 l 1
 474 302 474 302 474 302 c 1
 504 272 l 1xaab55554
 504 233 l 1
 504 146 l 1
 504 146 l 1xadb55554
 493 135 l 1
 493 135 l 1
 361 0 l 1
 361 0 l 1
 361 0 l 1x95b55528
 319 0 l 1
 319 0 l 1
 200 0 l 1
 200 0 l 1
 189 0 l 1
 121 0 l 1
 121 0 l 1
 80 0 l 1
 80 0 l 1
 36 0 l 1
 36 4 l 1
 36 48 l 1
 36 59 l 1
 36 102 l 1
 36 141 l 1
 36 144 l 1
 36 144 l 1
 36 235 l 1
 36 276 l 1
 36 370 l 1
 36 413 l 1
 36 505 l 1
 36 548 l 1
 36 555 l 1xadb55554
 36 566 l 1
 36 638 l 1
 36 685 l 1
 36 701 l 1
 361 701 l 1xadaad528
 371 690 l 1
 404 655 l 1
 421 638 l 1
 421 638 l 1
 450 611 l 1
 450 611 l 1
 485 577 l 1xadb55554
461 300 m 1xadb55554
 450 302 441 311 439 322 c 1
 371 390 l 1
 371 346 l 2
 374 348 380 348 384 348 c 0
 398 348 408 337 408 324 c 0
 408 311 398 300 384 300 c 0
 380 300 374 300 371 305 c 2
 371 298 l 1
 371 298 l 1
 371 283 l 1
 371 283 l 1
 371 211 l 2xadb54a54
 374 213 378 213 382 213 c 0
 395 213 406 202 406 189 c 0x95b55528
 406 176 395 165 382 165 c 0
 378 165 374 165 371 168 c 2
 371 146 l 1
 413 146 l 2
 415 146 419 146 421 146 c 0
 424 146 428 146 430 146 c 2
 493 146 l 1
 493 146 493 146 493 146 c 1
 493 235 l 1
 485 237 478 246 478 257 c 0
 478 263 482 270 487 274 c 1
 461 300 l 1xadb55554
182 146 m 1
 361 146 l 1
 361 181 l 1
 361 200 l 1
 361 239 l 1
 361 272 l 1
 324 272 l 1
 282 272 l 1
 243 272 l 1
 202 272 l 1
 182 272 l 1xaab54aa8
 182 233 l 1
 182 146 l 1
 182 146 l 1
182 302 m 1
 182 283 l 1
 356 283 l 1
 361 287 l 1
 361 320 l 2
 361 322 358 322 358 324 c 0
 358 326 361 326 361 329 c 2
 361 372 l 1
 356 370 350 368 345 368 c 0xadb54aa8
 332 368 319 379 319 392 c 0
 319 396 321 403 324 407 c 1
 284 407 l 1xad555554
 289 403 289 396 289 392 c 0
 289 379 278 368 265 368 c 0xadb55554
 252 368 241 379 241 392 c 0
 241 396 241 403 245 407 c 1
 204 407 l 1
 208 403 210 396 210 392 c 0xad555554
 210 379 197 368 184 368 c 2
 184 368 182 368 182 368 c 1
 182 359 l 1
 182 355 l 1
 182 335 l 1
 182 329 l 1
 182 309 l 1
 182 302 l 1
361 548 m 1
 361 555 l 1
 182 555 l 1
 182 551 l 1
 182 503 l 1
 182 418 l 1
 361 418 l 1
 361 507 l 1
 361 548 l 1
47 579 m 1
 47 566 l 1
 182 566 l 1
 361 566 l 1
 361 588 l 1
 361 592 l 1
 361 611 l 1
 361 618 l 1
 361 638 l 1
 361 640 l 1
 356 638 352 638 347 638 c 0
 334 638 324 648 324 662 c 0
 324 677 334 688 347 688 c 0
 352 688 356 685 361 683 c 1
 361 690 l 1
 47 690 l 1
 47 677 l 1
 52 672 54 668 54 662 c 0
 54 655 52 651 47 646 c 1
 47 644 l 1
 47 638 l 1
 47 618 l 1
 47 611 l 1
 47 609 l 1
 52 614 60 618 67 618 c 0
 80 618 93 607 93 594 c 0
 93 581 80 570 67 570 c 0xadab4aa8
 60 570 52 572 47 579 c 1
171 555 m 1xadb55554
 47 555 l 1
 47 540 l 2
 49 535 52 531 52 527 c 0
 52 522 49 518 47 514 c 2
 47 477 l 1
 52 481 58 483 65 483 c 0
 80 483 91 472 91 459 c 0
 91 446 80 435 65 435 c 0
 58 435 52 437 47 442 c 1
 47 400 l 2
 49 398 49 394 49 392 c 0
 49 387 49 385 47 383 c 2
 47 342 l 1
 52 346 58 348 65 348 c 0
 78 348 89 337 89 324 c 0
 89 311 78 300 65 300 c 0
 58 300 52 302 47 305 c 1
 47 257 l 1
 47 257 47 257 47 257 c 1
 47 257 47 255 47 255 c 1
 47 209 l 1
 52 211 56 213 62 213 c 0x55b52554
 75 213 86 202 86 189 c 0
 86 174 75 163 62 163 c 0
 56 163 52 165 47 170 c 1
 47 146 l 1
 171 146 l 1
 171 235 l 1xadb55554
 163 239 158 248 158 257 c 0xadb54aa8
 158 265 163 274 171 279 c 1
 171 372 l 1
 165 376 160 383 160 392 c 0
 160 400 165 407 171 411 c 1
 171 418 l 1
 171 507 l 1
 165 511 163 520 163 527 c 0
 163 535 165 542 171 546 c 1
 171 555 l 1xadb55554
47 33 m 1
 47 11 l 1
 97 11 l 1
 97 11 99 11 99 11 c 2
 102 11 102 11 104 11 c 2
 176 11 l 2
 178 11 178 11 180 11 c 2
 180 11 182 11 182 11 c 1
 256 11 l 2
 258 11 258 11 260 11 c 2
 260 11 263 11 263 11 c 1
 337 11 l 1
 337 11 339 11 339 11 c 2
 341 11 343 11 343 11 c 1
 356 11 l 1
 376 30 l 1
 365 33 356 44 356 54 c 0
 356 67 367 78 380 78 c 0
 393 78 402 72 404 61 c 1
 478 135 l 1x55554a54
 443 135 l 1x95b55548
 445 131 445 126 445 122 c 0
 445 109 435 98 421 98 c 0
 408 98 398 109 398 122 c 0
 398 126 398 131 400 135 c 1
 363 135 l 1
 365 131 367 126 367 122 c 0
 367 109 354 98 341 98 c 0
 328 98 317 109 317 122 c 0
 317 126 317 131 319 135 c 1x95b55554
 282 135 l 1x95b554a8
 284 131 287 126 287 122 c 0
 287 109 276 98 260 98 c 0
 247 98 237 109 237 122 c 0
 237 126 239 131 241 135 c 1x95b55554
 202 135 l 1
 204 131 206 126 206 122 c 0
 206 109 195 98 182 98 c 0x95b54aa8
 167 98 156 109 156 122 c 0
 156 126 158 131 160 135 c 1
 123 135 l 1x95b55554
 126 131 126 126 126 122 c 0
 126 107 115 96 102 96 c 0xadb52aa8
 89 96 78 107 78 122 c 0
 78 126 78 131 80 133 c 2
 47 133 l 1
 47 74 l 1
 52 76 56 78 60 78 c 0
 73 78 84 67 84 54 c 0
 84 39 73 28 60 28 c 0
 56 28 52 30 47 33 c 1
458 385 m 1
 478 407 l 1
 445 407 l 1xad555554
 448 403 450 398 450 392 c 0
 450 379 439 368 426 368 c 0xadb55554
 411 368 400 379 400 392 c 0
 400 398 402 403 404 407 c 1
 371 407 l 1
 424 353 l 1
 428 355 l 1
 432 359 l 1
 452 381 l 1
 458 385 l 1
493 507 m 1
 487 511 482 518 482 527 c 0
 482 535 487 544 493 548 c 1
 493 551 l 1
 474 570 l 2
 472 570 469 570 467 570 c 0
 454 570 443 581 443 594 c 0
 443 596 443 598 443 601 c 2
 443 603 l 1xadb32aa8
 421 622 l 1
 417 629 l 1
 398 648 l 1
 391 653 l 1
 371 675 l 1
 371 672 l 2
 371 668 374 666 374 662 c 0
 374 659 371 655 371 653 c 2
 371 614 l 1
 376 616 380 620 387 620 c 0
 402 620 413 609 413 594 c 0
 413 581 402 570 387 570 c 0xadb35554
 380 570 376 572 371 577 c 1
 371 555 l 1
 371 531 l 2
 371 529 371 529 371 527 c 2
 371 527 371 524 371 522 c 2
 371 479 l 1
 376 483 380 483 387 483 c 0
 400 483 411 472 411 459 c 0
 411 446 400 435 387 435 c 0
 380 435 376 437 371 440 c 1
 371 418 l 1
 391 418 l 1
 398 418 l 1xadb55554
 417 418 l 1
 421 418 l 1
 443 418 l 1
 448 418 l 1
 469 418 l 1
 474 418 l 1
 493 418 l 1xadb55548
 493 507 l 1
132 662 m 0
 132 648 121 638 108 638 c 0
 95 638 84 648 84 662 c 0
 84 675 95 685 108 685 c 0
 121 685 132 675 132 662 c 0
189 638 m 0
 176 638 163 648 163 662 c 0
 163 675 176 685 189 685 c 0
 202 685 213 675 213 662 c 0
 213 648 202 638 189 638 c 0
269 638 m 0
 254 638 243 648 243 662 c 0
 243 675 254 685 269 685 c 0
 282 685 293 675 293 662 c 0
 293 648 282 638 269 638 c 0
147 618 m 0
 160 618 171 607 171 594 c 0
 171 581 160 570 147 570 c 0
 134 570 123 581 123 594 c 0xadb35554
 123 607 134 618 147 618 c 0
202 594 m 0xadb352a8
 202 607 215 618 228 618 c 0
 241 618 252 607 252 594 c 0
 252 581 241 570 228 570 c 0
 215 570 202 581 202 594 c 0xadb352a8
282 594 m 0
 282 607 293 618 308 618 c 0
 321 618 332 607 332 594 c 0
 332 581 321 570 308 570 c 0
 293 570 282 581 282 594 c 0
106 503 m 0
 93 503 82 514 82 527 c 0
 82 540 93 551 106 551 c 0
 119 551 132 540 132 527 c 0
 132 514 119 503 106 503 c 0
452 527 m 0
 452 514 441 503 426 503 c 0
 413 503 402 514 402 527 c 0
 402 542 413 553 426 553 c 0
 441 553 452 542 452 527 c 0
121 459 m 0
 121 472 132 483 145 483 c 0
 158 483 171 472 171 459 c 0xadb55548
 171 446 158 435 145 435 c 0
 132 435 121 446 121 459 c 0
441 459 m 0
 441 474 452 485 465 485 c 0
 480 485 491 474 491 459 c 0
 491 446 480 435 465 435 c 0
 452 435 441 446 441 459 c 0
130 392 m 0
 130 379 119 368 104 368 c 0
 91 368 80 379 80 392 c 0
 80 405 91 416 104 416 c 0
 119 416 130 405 130 392 c 0
119 324 m 0
 119 337 130 348 143 348 c 0
 158 348 169 337 169 324 c 0
 169 311 158 300 143 300 c 0
 130 300 119 311 119 324 c 0
223 348 m 0
 237 348 250 337 250 324 c 0
 250 311 237 300 223 300 c 0
 210 300 200 311 200 324 c 0
 200 337 210 348 223 348 c 0
304 348 m 0
 317 348 328 337 328 324 c 0
 328 311 317 300 304 300 c 0
 291 300 280 311 280 324 c 0
 280 337 291 348 304 348 c 0
128 257 m 0
 128 244 117 233 104 233 c 0
 89 233 78 244 78 257 c 0
 78 270 89 281 104 281 c 0
 117 281 128 270 128 257 c 0
398 257 m 0x6db55554
 398 270 411 281 424 281 c 0
 437 281 448 270 448 257 c 0
 448 244 437 233 424 233 c 0
 411 233 398 244 398 257 c 0x6db55554
117 189 m 0
 117 202 128 213 143 213 c 0
 156 213 167 202 167 189 c 0
 167 176 156 165 143 165 c 0
 128 165 117 176 117 189 c 0
437 189 m 0
 437 202 450 213 463 213 c 0
 476 213 487 202 487 189 c 0
 487 176 476 165 463 165 c 0
 450 165 437 176 437 189 c 0
141 28 m 0
 128 28 117 39 117 54 c 0
 117 67 128 78 141 78 c 0
 154 78 165 67 165 54 c 0
 165 39 154 28 141 28 c 0
221 30 m 0
 206 30 195 41 195 54 c 0
 195 67 206 78 221 78 c 0
 234 78 245 67 245 54 c 0
 245 41 234 30 221 30 c 0
300 30 m 0
 287 30 276 41 276 54 c 0
 276 67 287 78 300 78 c 0
 315 78 326 67 326 54 c 0
 326 41 315 30 300 30 c 0
EndSplineSet
EndChar
StartChar: C
Encoding: 67 67 2
Width: 503
Flags: MW
HStem: 0 68<168.5 181.5 249.5 262.5 328.5 342.5 408.5 422.5> 17 51<168.5 181.5 249.5 262.5 328.5 342.5 408.5 422.5> 85 61<129.5 131 131 142.5 209.5 222.5 289.5 303.5 369 383.5> 135 68<18 44 18 51 18 59 89.5 103> 153 50<18 18 89.5 103> 220 50<50.5 63.5 131.5 140> 288 50<18 18 92.5 105.5> 355 50<52.5 65.5 132.5 142> 423 50<18 18 93.5 107.5> 490 51<54 68.5 133.5 142> 556 52<94.5 153 178 188 255.5 268.5 335.5 349.5 415.5 430> 628 48<136.5 153 142 153 216.5 229.5 296 310.5 376.5 390.5 463 464 463 471> 628 74<136.5 166 142 166 216.5 229.5 296 310.5 376.5 390.5 456.5 464 463 471>
VStem: 18 24<146 182 172.5 182 172.5 203 172.5 288 308.5 318.5> 35 46 77 50<577.5 590.5> 112 52 153 52<538 590.5 581 590.5 581 628 581 628> 192 48<103.5 116.5> 238 48<581 590.5> 271 50<103.5 116.5> 317 50<581 590.5> 352 50<104.5 116.5> 397 50<581 590.5> 432 50<104.5 116.5>
LayerCount: 2
Back
Fore
SplineSet
441 702 m 1xafecaa80
 482 702 l 1
 482 669 l 1
 482 634 l 1
 482 597 l 1
 482 571 l 1
 482 556 l 1
 164 556 l 1
 164 528 l 1
 164 506 l 1
 164 467 l 1
 164 432 l 1
 164 386 l 1
 164 375 l 1
 164 334 l 1
 164 294 l 1
 164 198 l 1
 164 157 l 1
 164 146 l 1
 482 146 l 1
 482 63 l 1
 482 24 l 1
 482 0 l 1
 458 0 l 1
 452 0 l 1
 378 0 l 1
 371 0 l 1
 164 0 l 1xafecaa80
 120 44 l 1
 120 44 l 1
 96 68 l 1
 96 68 l 1
 72 92 l 1
 72 92 l 1
 38 126 l 1
 38 126 38 126 38 126 c 1
 18 146 l 1
 18 153 l 1
 18 203 l 1
 18 288 l 1
 18 338 l 1
 18 423 l 1
 18 473 l 1
 18 556 l 1
 20 558 l 1
 20 558 l 1
 46 584 l 1
 46 584 l 1
 118 658 l 1
 118 658 l 1
 127 667 l 1xaff555
 164 702 l 1
 166 702 l 1
 201 702 l 1
 247 702 l 1
 282 702 l 1
 328 702 l 1
 360 702 l 1
 408 702 l 1
 441 702 l 1xafecaa80
153 674 m 2x97f555
 153 676 l 1
 151 674 l 1
 151 674 151 674 153 674 c 2x97f555
44 135 m 1
 46 133 l 2
 49 133 49 133 51 135 c 2
 44 135 l 1
471 131 m 2
 471 135 l 1
 465 135 l 2
 467 133 469 133 471 131 c 2
210 135 m 1
 164 135 l 1
 142 135 l 1x97f4aa80
 153 131 160 122 160 111 c 0
 160 96 149 85 136 85 c 0xaff555
 123 85 112 96 112 111 c 0
 112 122 120 131 131 135 c 1
 59 135 l 2
 72 133 81 122 81 109 c 0
 81 107 79 102 79 100 c 2
 168 11 l 1
 471 11 l 1
 471 92 l 1
 467 87 463 87 456 87 c 0
 443 87 432 98 432 111 c 0
 432 122 439 131 450 135 c 1
 384 135 l 1x97f2aa80
 393 131 402 122 402 111 c 0
 402 98 391 85 376 85 c 0xaff55280
 362 85 352 98 352 111 c 0
 352 122 358 131 369 135 c 1
 304 135 l 1x97f55280
 312 131 321 122 321 111 c 0
 321 96 310 85 297 85 c 0xaff54a80
 282 85 271 96 271 111 c 0
 271 122 280 131 290 135 c 1
 223 135 l 1x97f54a80
 234 131 240 122 240 111 c 0
 240 96 229 85 216 85 c 0
 203 85 192 96 192 111 c 0xaff52a80
 192 122 199 131 210 135 c 1
153 538 m 1xaff555
 153 556 l 1
 153 628 l 1
 149 628 147 628 142 628 c 0
 131 628 123 634 120 643 c 1
 105 630 l 1
 101 623 l 1
 81 604 l 1xaff255
 75 597 l 1
 55 578 l 1
 49 573 l 1
 29 552 l 1
 29 471 l 1
 38 469 44 458 44 449 c 0
 44 438 38 429 29 425 c 1
 29 336 l 1
 38 331 42 323 42 314 c 0
 42 303 38 294 29 290 c 1
 29 198 l 1
 35 194 42 187 42 177 c 0xaff555
 42 168 35 161 29 157 c 1
 29 146 l 1
 49 146 l 1
 55 146 l 1
 75 146 l 1
 81 146 l 1xaff2aa80
 101 146 l 1
 105 146 l 1
 127 146 l 1
 131 146 l 1
 153 146 l 1
 153 177 l 1
 153 177 153 177 153 179 c 1
 153 179 153 179 153 179 c 1
 153 227 l 1
 149 222 142 220 138 220 c 0
 125 220 114 231 114 246 c 0
 114 259 125 270 138 270 c 0
 142 270 149 268 153 266 c 1
 153 360 l 1
 149 358 144 355 140 355 c 0
 125 355 114 366 114 381 c 0
 114 395 125 405 140 405 c 0
 144 405 149 403 153 401 c 1
 153 495 l 1
 149 493 144 490 140 490 c 0
 127 490 116 504 116 517 c 0
 116 530 127 541 140 541 c 0
 144 541 149 541 153 538 c 1xaff555
164 569 m 2xaff495
 164 567 l 1
 164 567 l 1
 164 567 164 567 164 569 c 2xaff495
463 676 m 0
 465 676 469 676 471 676 c 2
 471 691 l 1
 164 691 l 1
 164 671 l 1
 164 665 l 2
 166 661 166 656 166 652 c 0
 166 647 166 641 164 639 c 2
 164 619 l 1
 164 613 l 1
 164 599 l 1xaff4aa80
 168 606 175 608 181 608 c 0
 195 608 205 597 205 584 c 0xaff555
 205 578 203 571 201 567 c 1
 245 567 l 1
 240 571 238 578 238 584 c 0
 238 597 249 608 262 608 c 0
 275 608 286 597 286 584 c 0
 286 578 284 571 280 567 c 1
 323 567 l 1
 321 571 317 578 317 584 c 0
 317 597 328 608 343 608 c 0
 356 608 367 597 367 584 c 0
 367 578 365 571 360 567 c 1
 404 567 l 1
 399 571 397 578 397 584 c 0
 397 597 408 608 423 608 c 0
 437 608 447 597 447 584 c 0
 447 578 445 571 441 567 c 1
 471 567 l 1
 471 589 l 1
 471 593 l 1
 471 613 l 1
 471 619 l 1
 471 628 l 2
 469 628 465 628 463 628 c 0
 450 628 439 639 439 652 c 0
 439 665 450 676 463 676 c 0
223 676 m 0
 236 676 247 665 247 652 c 0
 247 639 236 628 223 628 c 0
 210 628 199 639 199 652 c 0
 199 665 210 676 223 676 c 0
304 676 m 0
 317 676 328 665 328 652 c 0
 328 639 317 628 304 628 c 0
 288 628 277 639 277 652 c 0
 277 665 288 676 304 676 c 0
384 676 m 0
 397 676 408 665 408 652 c 0
 408 639 397 628 384 628 c 0
 369 628 358 639 358 652 c 0
 358 665 369 676 384 676 c 0
101 608 m 0
 116 608 127 597 127 584 c 0
 127 571 116 558 101 558 c 0
 88 558 77 571 77 584 c 0xaff555
 77 597 88 608 101 608 c 0
86 517 m 0
 86 501 75 490 62 490 c 0
 46 490 35 501 35 517 c 0x6ff2aa80
 35 530 46 541 62 541 c 0
 75 541 86 530 86 517 c 0
75 449 m 0
 75 462 86 473 101 473 c 0
 114 473 125 462 125 449 c 0
 125 434 114 423 101 423 c 0
 86 423 75 434 75 449 c 0
83 381 m 0
 83 366 72 355 59 355 c 0
 46 355 35 366 35 381 c 0
 35 395 46 405 59 405 c 0
 72 405 83 395 83 381 c 0
75 314 m 0
 75 327 86 338 99 338 c 0
 112 338 123 327 123 314 c 0
 123 299 112 288 99 288 c 0
 86 288 75 299 75 314 c 0
81 246 m 0
 81 231 70 220 57 220 c 0
 44 220 33 231 33 246 c 0
 33 259 44 270 57 270 c 0
 70 270 81 259 81 246 c 0
72 179 m 0
 72 192 83 203 96 203 c 0
 110 203 120 192 120 179 c 0
 120 163 110 153 96 153 c 0
 83 153 72 163 72 179 c 0
151 44 m 0
 151 57 162 68 175 68 c 0
 188 68 199 57 199 44 c 0
 199 28 188 17 175 17 c 0
 162 17 151 28 151 44 c 0
256 17 m 0
 243 17 232 28 232 44 c 0
 232 57 243 68 256 68 c 0
 269 68 280 57 280 44 c 0
 280 28 269 17 256 17 c 0
336 17 m 0
 321 17 310 28 310 44 c 0
 310 57 321 68 336 68 c 0
 349 68 360 57 360 44 c 0
 360 28 349 17 336 17 c 0
415 17 m 0
 402 17 391 31 391 44 c 0
 391 57 402 68 415 68 c 0
 430 68 441 57 441 44 c 0
 441 31 430 17 415 17 c 0
EndSplineSet
EndChar
StartChar: D
Encoding: 68 68 3
Width: 527
Flags: MW
HStem: 0 39<110.5 123.5 34 34 34 34 34 34 189.5 197 197 203.5 269.5 283.5 350 357> 59 48<71 84.5 150.5 164.5 230.5 244.5 310.5 323.5 391.5 398 398 400> 59 87<71 84.5 150.5 164.5 230.5 244.5 310.5 323.5 391.5 394 394 398 398 400> 134 43 194 50<393.5 406.5 473.5 483> 262 48<34 34 34 45 112.5 126.5> 329 50<394.5 408.5 474.5 483> 397 48<34 34 45 50.5 114.5 127.5> 464 50<395.5 410 476.5 484> 532 35<34 51.5> 556 24<34 49.5 45 67 45 67 45 99> 599 48<77.5 90.5> 667 35<45 45 45 45 118.5 132 198.5 212.5 278.5 291.5>
VStem: 34 30<174 291 279 291 279 310 279 397> 60 48<616.5 630> 93 54 139 39<481.5 494.5> 167 200<174 194 194 194 242 264 310 329 329 329 377 397 445 464 464 464 512 532> 219 50<616.5 631> 300 50<616.5 631> 357 28<174 291 280.5 291 280.5 310 280.5 397> 381 47 413 55 459 44<481.5 496>
LayerCount: 2
Back
Fore
SplineSet
428 630 m 1xdfdd45
 503 556 l 1
 503 545 l 1
 503 504 l 1
 503 475 l 1
 503 436 l 1
 503 408 l 1
 503 366 l 1
 503 342 l 1
 503 303 l 1
 503 270 l 1
 503 229 l 1
 503 209 l 1
 503 170 l 1
 503 146 l 1
 503 146 l 1
 496 140 l 1
 496 140 l 1
 492 135 l 1
 492 135 l 1
 381 24 l 1
 381 24 l 1xafbd45
 357 0 l 1
 296 0 l 1
 296 0 l 1
 258 0 l 1
 258 0 l 1
 197 0 l 1
 178 0 l 1
 178 0 l 1
 136 0 l 1
 136 0 l 1
 132 0 l 1
 34 0 l 1
 34 0 l 1
 34 0 l 1
 34 39 l 1
 34 39 l 1
 34 126 l 1
 34 126 l 1
 34 144 l 1
 34 144 l 1
 34 144 l 1
 34 174 l 1
 34 262 l 1
 34 310 l 1
 34 397 l 1
 34 445 l 1
 34 534 l 1
 34 556 l 1xdfbcba
 34 567 l 1
 34 578 l 1
 34 669 l 1
 34 702 l 1
 67 702 l 1
 101 702 l 1
 147 702 l 1
 182 702 l 1
 228 702 l 1
 263 702 l 1
 309 702 l 1
 343 702 l 1
 357 702 l 1xdfdd3a
 367 691 l 1
 383 676 l 1
 411 647 l 1
 428 630 l 1xdfdd45
389 654 m 1
 374 669 l 2
 372 669 370 667 367 667 c 2
 367 580 l 1
 381 580 389 569 389 556 c 0xafbd45
 389 545 381 534 367 532 c 1
 367 445 l 1
 378 443 387 434 387 421 c 0
 387 410 378 401 367 397 c 1
 367 310 l 1xdfdd45
 378 305 385 296 385 286 c 0xdfdd3a
 385 275 378 266 367 264 c 1
 367 174 l 1
 376 170 383 161 383 150 c 0
 383 148 383 146 383 146 c 1
 389 146 l 1
 394 146 l 1
 415 146 l 1
 415 146 l 1xafdd45
 415 148 413 148 413 150 c 0
 413 163 426 177 439 177 c 0xdfdd42
 452 177 463 163 463 150 c 0
 463 148 463 148 463 146 c 2
 466 146 l 1
 472 146 l 1
 492 146 l 1
 492 196 l 1
 487 196 485 194 481 194 c 0
 466 194 455 205 455 218 c 0
 455 233 466 244 481 244 c 0
 485 244 487 242 492 240 c 1
 492 331 l 2
 490 329 485 329 481 329 c 0
 468 329 457 340 457 353 c 0
 457 368 468 379 481 379 c 0
 485 379 490 377 492 377 c 2
 492 467 l 2
 490 464 485 464 483 464 c 0
 470 464 459 475 459 488 c 0
 459 504 470 514 483 514 c 0
 485 514 490 514 492 512 c 2
 492 552 l 1
 472 571 l 1
 466 578 l 1
 446 597 l 1
 439 604 l 1
 428 615 l 1
 424 606 415 599 405 599 c 0
 391 599 381 610 381 623 c 0
 381 634 387 643 396 647 c 1
 394 650 l 1
 389 654 l 1
178 146 m 1xafbcba
 357 146 l 1
 357 174 l 1
 357 262 l 1
 357 310 l 1
 357 397 l 1
 357 445 l 1
 357 532 l 1xafdcba
 357 556 l 1
 339 556 l 1
 309 556 l 1
 258 556 l 1
 228 556 l 1
 178 556 l 1
 178 508 l 1
 178 471 l 1
 178 429 l 1
 178 412 l 1
 178 371 l 1
 178 336 l 1
 178 299 l 1
 178 272 l 1
 178 233 l 1
 178 203 l 1
 178 166 l 1
 178 146 l 1xafbcba
45 174 m 1
 56 170 62 161 62 150 c 0
 62 148 62 148 62 146 c 2
 93 146 l 2
 93 148 93 148 93 150 c 0
 93 163 104 174 119 174 c 0
 132 174 143 163 143 150 c 0
 143 148 143 148 143 146 c 2
 167 146 l 1
 167 194 l 2
 165 194 163 194 158 194 c 0
 145 194 134 205 134 218 c 0
 134 231 145 242 158 242 c 0
 163 242 165 242 167 242 c 2
 167 329 l 2
 165 329 163 329 160 329 c 0
 147 329 136 340 136 353 c 0
 136 366 147 377 160 377 c 0
 163 377 165 377 167 377 c 2
 167 464 l 1xafdd45
 167 464 165 464 163 464 c 0
 149 464 139 475 139 488 c 0xdfdcba
 139 501 149 512 163 512 c 0
 165 512 167 512 167 512 c 1
 167 556 l 1
 147 556 l 1
 147 556 147 556 147 556 c 1xdfbd45
 147 543 136 532 123 532 c 0xdfdd45
 110 532 99 543 99 556 c 1
 99 556 99 556 99 556 c 1
 67 556 l 1
 67 556 67 556 67 556 c 1xdfbd45
 67 543 58 532 45 532 c 1
 45 445 l 1
 56 445 67 434 67 421 c 0
 67 408 56 397 45 397 c 1
 45 310 l 1
 56 307 64 296 64 286 c 0
 64 272 56 264 45 262 c 1
 45 174 l 1
45 667 m 1
 45 667 45 667 45 667 c 1
 45 665 l 1
 45 645 l 1
 45 639 l 1
 45 619 l 1
 45 613 l 1
 45 593 l 1
 45 589 l 1
 45 580 l 1xdfbd3a
 54 580 60 576 64 567 c 1
 101 567 l 1xdfdd45
 106 576 115 580 123 580 c 0xdfbd45
 132 580 141 576 145 567 c 1
 178 567 l 1
 182 567 l 1
 184 576 193 582 204 582 c 0
 213 582 221 576 226 567 c 1
 261 567 l 1
 265 576 274 582 285 582 c 0
 293 582 302 576 306 567 c 1
 341 567 l 1xdfdcba
 346 573 350 578 357 580 c 1
 357 589 l 1
 357 593 l 1
 357 613 l 1
 357 619 l 1
 357 639 l 1
 357 645 l 1
 357 665 l 1
 357 669 l 1xdfbd3a
 348 671 341 680 341 691 c 1
 311 691 l 1
 309 678 298 667 285 667 c 0
 272 667 261 678 261 691 c 1
 230 691 l 1
 230 678 219 667 206 667 c 0
 191 667 180 678 180 691 c 1
 149 691 l 1
 149 678 139 667 125 667 c 0
 112 667 101 678 99 691 c 1
 69 691 l 1
 69 678 58 667 45 667 c 1
422 81 m 1
 476 135 l 1
 457 135 l 1
 452 129 446 126 439 126 c 0
 431 126 424 129 420 135 c 1
 376 135 l 1
 372 129 365 126 359 126 c 0
 352 126 346 129 341 135 c 1
 298 135 l 1
 293 129 287 126 278 126 c 0
 272 126 265 129 261 135 c 1
 217 135 l 1
 213 129 206 126 197 126 c 0
 191 126 184 129 180 135 c 1
 136 135 l 1
 132 129 125 126 119 126 c 0
 110 126 104 129 99 135 c 1
 56 133 l 2
 54 131 49 129 45 126 c 1
 45 37 l 1
 54 35 60 26 60 15 c 0
 60 13 60 11 60 11 c 1xdfdaba
 93 11 l 2
 93 13 93 13 93 15 c 0
 93 28 104 39 117 39 c 0
 130 39 141 28 141 15 c 0
 141 13 141 13 141 11 c 2
 173 11 l 2
 171 13 171 13 171 15 c 0
 171 28 182 39 197 39 c 0
 210 39 221 28 221 15 c 0
 221 13 221 13 221 11 c 2
 252 11 l 2
 252 13 252 13 252 15 c 0
 252 28 263 39 276 39 c 0
 291 39 302 28 302 15 c 0
 302 13 302 13 302 11 c 2
 333 11 l 2
 333 13 333 13 333 15 c 0
 333 28 343 39 357 39 c 0
 363 39 370 37 374 33 c 1
 400 59 l 1
 400 59 398 59 398 59 c 2
 385 59 374 70 374 83 c 0
 374 96 385 107 398 107 c 0
 411 107 422 96 422 83 c 2
 422 83 422 81 422 81 c 1
84 599 m 0
 71 599 60 610 60 623 c 0
 60 637 71 647 84 647 c 0
 97 647 108 637 108 623 c 0
 108 610 97 599 84 599 c 0
165 599 m 0
 152 599 139 610 139 623 c 0
 139 637 152 650 165 650 c 0
 178 650 189 637 189 623 c 0
 189 610 178 599 165 599 c 0
245 599 m 0
 230 599 219 610 219 623 c 0
 219 639 230 650 245 650 c 0
 258 650 269 639 269 623 c 0
 269 610 258 599 245 599 c 0
324 599 m 0
 311 599 300 610 300 623 c 0
 300 639 311 650 324 650 c 0
 339 650 350 639 350 623 c 0
 350 610 339 599 324 599 c 0
444 532 m 0
 431 532 420 543 420 556 c 0
 420 571 431 582 444 582 c 0
 457 582 468 571 468 556 c 0xdfbd42
 468 543 457 532 444 532 c 0
106 488 m 0
 106 475 95 464 82 464 c 0
 69 464 58 475 58 488 c 0
 58 501 69 512 82 512 c 0
 95 512 106 501 106 488 c 0
378 488 m 0
 378 504 389 514 402 514 c 0
 418 514 428 504 428 488 c 0
 428 475 418 464 402 464 c 0
 389 464 378 475 378 488 c 0
97 421 m 0
 97 434 108 445 121 445 c 0
 134 445 145 434 145 421 c 0
 145 408 134 397 121 397 c 0
 108 397 97 408 97 421 c 0
418 421 m 0
 418 436 428 447 442 447 c 0
 457 447 468 436 468 421 c 0xdfdd42
 468 408 457 397 442 397 c 0
 428 397 418 408 418 421 c 0
106 353 m 0
 106 340 95 329 80 329 c 0
 67 329 56 340 56 353 c 0
 56 366 67 377 80 377 c 0
 95 377 106 366 106 353 c 0
426 353 m 0
 426 340 415 329 402 329 c 0
 387 329 376 340 376 353 c 0
 376 368 387 379 402 379 c 0
 415 379 426 368 426 353 c 0
95 286 m 0
 95 299 106 310 119 310 c 0
 134 310 145 299 145 286 c 0
 145 272 134 262 119 262 c 0
 106 262 95 272 95 286 c 0
415 286 m 0
 415 301 426 312 442 312 c 0
 455 312 466 301 466 286 c 0
 466 272 455 262 442 262 c 0
 426 262 415 272 415 286 c 0
104 218 m 0
 104 205 93 194 80 194 c 0
 64 194 54 205 54 218 c 0
 54 231 64 242 80 242 c 0
 93 242 104 231 104 218 c 0
400 244 m 0
 413 244 424 231 424 218 c 0
 424 205 413 194 400 194 c 0
 387 194 374 205 374 218 c 0
 374 231 387 244 400 244 c 0
78 107 m 0
 91 107 101 96 101 83 c 0
 101 70 91 59 78 59 c 0
 64 59 54 70 54 83 c 0
 54 96 64 107 78 107 c 0
158 107 m 0
 171 107 182 96 182 83 c 0
 182 70 171 59 158 59 c 0
 143 59 132 70 132 83 c 0
 132 96 143 107 158 107 c 0
237 107 m 0
 252 107 263 96 263 83 c 0
 263 70 252 59 237 59 c 0
 224 59 213 70 213 83 c 0
 213 96 224 107 237 107 c 0
317 107 m 0
 330 107 341 96 341 83 c 0
 341 70 330 59 317 59 c 0
 304 59 293 70 293 83 c 0
 293 96 304 107 317 107 c 0
EndSplineSet
EndChar
StartChar: E
Encoding: 69 69 4
Width: 492
Flags: MW
HStem: 0 56<94.5 109 176.5 190 259 272.5 340.5 355 423 437.5> 74 51<54.5 68.5 136.5 150 219 232.5 300.5 315 383 397.5> 74 75<54.5 68.5 136.5 150 219 232.5 300.5 315 383 397.5> 138 56<96.5 110 96.5 163 96.5 174> 212 62<56.5 69.5 139 149> 263 69<25 25 25 25 25 36 98.5 112 25 69.5 180 194.5 262.5 277 344 358.5 426.5 439.5> 281 51<25 25 98.5 112 180 194.5 262.5 277 344 358.5 426.5 439.5> 350 62<58.5 72 140 154.5 222.5 237 303.5 318 386 399.5> 401 138<60 61 36 74.5 36 74.5 70 74.5 142 143 70 70 60 163 60 152 60 174 60 224> 401 163<36 257 70 257 70 257 152 257 152 257 163 257 208 224 235 257 290 306 235 235 317 337 371 386 317 317 400 420 400 400> 419 120<25 74.5 60 114.5> 488 51<60 74.5 142 152> 553 55<102 163 186.5 198 266 279.5 348.5 361.5 429.5 440.5> 626 51<150 150 150 152 225.5 239 308 321.5> 626 76<145.5 177 225.5 239 308 321.5>
VStem: 25 25<412 449 438.5 449 438.5 470 438.5 553> 41 49<367.5 381> 76 52<25.5 35.5> 123 51<507 510 510 517 517 521.5> 163 54<535 590.5 579.5 590.5 579.5 631 579.5 631> 203 52<369 382.5> 248 49<579.5 590.5> 286 51<369 382.5> 330 49<579.5 590.5> 368 49<369 382.5> 411 53<579.5 590.5>
LayerCount: 2
Back
Fore
SplineSet
174 412 m 1xdb2b2a40
 475 412 l 1xdb2d2a80
 475 401 l 1xda455540
 475 350 l 1
 475 263 l 1
 475 263 l 1
 471 263 l 1
 174 263 l 1
 174 189 l 1
 174 149 l 1
 475 149 l 1xa52d2a80
 475 125 l 1xdb2d5540
 475 74 l 1
 475 0 l 1
 25 0 l 1
 25 4 l 1
 25 53 l 1
 25 143 l 1
 25 149 l 1
 25 149 l 1
 25 149 l 1
 25 192 l 1
 25 263 l 1
 25 263 l 1xa52d5540
 25 281 l 1
 25 332 l 1
 25 412 l 1
 25 412 l 1
 25 419 l 1
 25 470 l 1
 25 553 l 1
 30 557 l 1
 30 557 l 1
 43 570 l 1
 125 653 l 1
 125 653 l 1
 150 677 l 1
 150 677 150 677 150 677 c 1xdb2d5540
 174 702 l 1
 177 702 l 1
 208 702 l 1
 259 702 l 1
 290 702 l 1
 342 702 l 1
 373 702 l 1
 424 702 l 1
 453 702 l 1
 464 702 l 1
 464 673 l 1
 464 631 l 1
 464 553 l 1
 174 553 l 1
 174 517 l 1
 174 510 l 1
 174 466 l 1
 174 426 l 1
 174 412 l 1xdb2b2a40
453 564 m 1xda455540
 453 564 l 1
 453 564 l 1
 453 564 453 564 453 564 c 1xda455540
453 691 m 1
 174 691 l 1
 174 671 l 1
 174 664 l 1
 174 662 l 2
 174 659 177 655 177 653 c 0
 177 648 174 646 174 642 c 2
 174 637 l 1
 174 617 l 1
 174 610 l 1
 174 602 l 1
 179 606 183 608 190 608 c 0xdb2d2a80
 206 608 217 597 217 584 c 0
 217 575 212 568 208 564 c 1
 257 564 l 1xda455540
 250 568 248 575 248 584 c 0
 248 597 259 608 273 608 c 0
 286 608 297 597 297 584 c 0xdb2d5540
 297 575 295 568 290 564 c 1
 337 564 l 1xda455280
 333 568 330 575 330 584 c 0
 330 597 342 608 355 608 c 0xdb2d5540
 368 608 379 597 379 584 c 0
 379 575 377 568 371 564 c 1
 420 564 l 1xda455540
 415 568 411 575 411 584 c 0
 411 597 422 608 437 608 c 0xdb2d5540
 444 608 449 606 453 602 c 1
 453 610 l 1
 453 617 l 1
 453 637 l 1
 453 644 l 1
 453 648 l 2
 453 651 453 651 453 653 c 2
 453 653 453 655 453 655 c 1
 453 664 l 1
 453 671 l 1
 453 691 l 1
163 675 m 1xdb2d5540
 163 675 l 1
 161 675 l 2
 163 675 163 675 163 675 c 1xdb2d5540
36 421 m 1
 36 412 l 1
 163 412 l 1
 163 492 l 1xdb2d5540
 159 490 154 488 150 488 c 0
 134 488 123 499 123 515 c 0xdb1d2a80
 123 528 134 539 150 539 c 0
 154 539 159 537 163 535 c 1
 163 553 l 1
 163 631 l 1
 159 628 154 626 150 626 c 0
 141 626 132 633 128 639 c 1xdb1d5540
 117 628 l 1
 110 622 l 1
 90 602 l 1xdb2caa80
 83 595 l 1
 63 575 l 1
 56 570 l 1
 36 548 l 1
 36 466 l 1
 45 463 50 455 50 443 c 0
 50 434 45 426 36 421 c 1
464 123 m 1
 464 138 l 1
 174 138 l 1xdb2d2a40
 163 138 l 1
 36 138 l 1
 36 138 l 1
 36 49 l 1
 41 45 45 38 45 29 c 0
 45 22 43 16 39 11 c 1
 83 11 l 1
 79 16 76 22 76 29 c 0
 76 42 88 56 101 56 c 0
 117 56 128 42 128 29 c 0
 128 22 123 16 119 11 c 1
 166 11 l 1
 161 16 159 22 159 29 c 0
 159 45 170 56 183 56 c 0
 197 56 208 45 208 29 c 0
 208 22 206 16 201 11 c 1
 248 11 l 1
 244 16 241 22 241 29 c 0
 241 45 252 56 266 56 c 0
 279 56 290 45 290 29 c 0
 290 22 288 16 284 11 c 1
 330 11 l 1
 326 16 322 22 322 29 c 0
 322 45 333 56 348 56 c 0
 362 56 373 45 373 29 c 0
 373 22 371 16 364 11 c 1
 413 11 l 1
 408 16 404 22 404 31 c 0
 404 45 415 56 431 56 c 0
 444 56 455 45 455 31 c 0
 455 22 451 16 446 11 c 1
 464 11 l 1
 464 76 l 1
 453 78 446 89 446 100 c 0
 446 111 453 120 464 123 c 1
163 256 m 1xd52d5540
 163 263 l 1
 36 263 l 1
 36 187 l 1
 43 183 48 176 48 167 c 0
 48 160 43 154 39 149 c 1
 88 149 l 1xa52d5540
 81 154 79 160 79 167 c 0
 79 183 90 194 103 194 c 0xdb2d5540
 117 194 128 183 128 167 c 0
 128 160 125 154 121 149 c 1
 163 149 l 1
 163 158 l 2
 161 160 161 165 161 167 c 0
 161 172 161 176 163 178 c 2
 163 218 l 1
 159 214 152 212 146 212 c 0xab2d5540
 132 212 121 223 121 236 c 0
 121 252 132 263 146 263 c 0
 152 263 159 261 163 256 c 1xd52d5540
174 274 m 1xdb2d2a80
 464 274 l 1
 464 354 l 1
 455 356 451 365 451 377 c 0
 451 385 455 394 464 399 c 1
 464 401 l 1
 400 401 l 1xda8caa40
 411 397 417 388 417 377 c 0
 417 361 406 350 393 350 c 0xdb2d5480
 379 350 368 361 368 377 c 0
 368 388 375 397 386 401 c 1
 317 401 l 1xda8d5480
 328 397 337 388 337 377 c 0
 337 361 326 350 310 350 c 0xdb2d5280
 297 350 286 361 286 377 c 0
 286 388 295 397 306 401 c 1
 235 401 l 1xda8d5280
 246 397 255 388 255 377 c 0
 255 361 244 350 230 350 c 0xdb2d4a80
 215 350 203 361 203 377 c 0
 203 388 212 397 224 401 c 1
 174 401 l 1xda8d2a80
 163 401 l 1
 152 401 l 2xda8d5540
 163 399 172 388 172 374 c 0
 172 361 161 350 148 350 c 0xdb2d5540
 132 350 121 361 121 374 c 0
 121 388 130 399 143 401 c 2
 70 401 l 2xda8d5540
 81 399 90 388 90 374 c 0
 90 361 79 350 65 350 c 0xdb2caa80
 52 350 41 361 41 374 c 0
 41 388 50 399 61 401 c 2
 36 401 l 1
 36 401 l 1
 36 328 l 1
 43 323 48 314 48 305 c 0
 48 296 43 290 36 285 c 1
 36 274 l 1
 36 274 l 1
 163 274 l 1xda8c9540
 174 274 l 1xdb2d2a80
232 626 m 0
 219 626 208 637 208 653 c 0
 208 666 219 677 232 677 c 0
 246 677 257 666 257 653 c 0
 257 637 246 626 232 626 c 0
315 626 m 0
 301 626 290 639 290 653 c 0
 290 666 301 677 315 677 c 0
 328 677 339 666 339 653 c 0
 339 639 328 626 315 626 c 0
397 628 m 0
 382 628 371 639 371 653 c 0
 371 666 382 677 397 677 c 0
 411 677 422 666 422 653 c 0
 422 639 411 628 397 628 c 0
110 557 m 0
 94 557 83 568 83 584 c 0
 83 597 94 608 110 608 c 0
 123 608 134 597 134 584 c 0
 134 568 123 557 110 557 c 0
92 512 m 0
 92 499 81 488 68 488 c 0xdb1d5540
 52 488 41 499 41 512 c 0
 41 528 52 539 68 539 c 0
 81 539 92 528 92 512 c 0
108 470 m 0
 121 470 132 459 132 443 c 0
 132 430 121 419 108 419 c 0xdb2d5540
 92 419 81 430 81 443 c 0
 81 459 92 470 108 470 c 0
105 332 m 0
 119 332 130 321 130 305 c 0
 130 292 119 281 105 281 c 0
 92 281 81 292 81 305 c 0
 81 321 92 332 105 332 c 0
188 332 m 0
 201 332 212 321 212 305 c 0
 212 292 201 281 188 281 c 0
 172 281 161 292 161 305 c 0
 161 321 172 332 188 332 c 0
270 332 m 0
 284 332 295 321 295 307 c 0
 295 292 284 281 270 281 c 0
 255 281 244 292 244 307 c 0
 244 321 255 332 270 332 c 0
351 332 m 0
 366 332 377 321 377 307 c 0
 377 292 366 281 351 281 c 0
 337 281 326 292 326 307 c 0
 326 321 337 332 351 332 c 0
433 332 m 0
 446 332 457 321 457 307 c 0
 457 292 446 281 433 281 c 0
 420 281 408 292 408 307 c 0
 408 321 420 332 433 332 c 0
63 212 m 0
 50 212 39 223 39 236 c 0
 39 252 50 263 63 263 c 0xd52d5540
 76 263 88 252 88 236 c 0
 88 223 76 212 63 212 c 0
61 125 m 0
 76 125 88 111 88 98 c 0
 88 85 76 74 61 74 c 0
 48 74 36 85 36 98 c 0
 36 111 48 125 61 125 c 0
143 125 m 0
 157 125 168 114 168 98 c 0
 168 85 157 74 143 74 c 0
 130 74 119 85 119 98 c 0
 119 114 130 125 143 125 c 0
226 74 m 0
 212 74 201 85 201 98 c 0
 201 114 212 125 226 125 c 0
 239 125 250 114 250 98 c 0
 250 85 239 74 226 74 c 0
308 74 m 0
 293 74 281 85 281 98 c 0
 281 114 293 125 308 125 c 0
 322 125 333 114 333 98 c 0
 333 85 322 74 308 74 c 0
391 74 m 0
 375 74 364 85 364 100 c 0
 364 114 375 125 391 125 c 0
 404 125 415 114 415 100 c 0
 415 85 404 74 391 74 c 0
EndSplineSet
EndChar
StartChar: F
Encoding: 70 70 5
Width: 454
Flags: MW
HStem: 0 150<27 74.5 27 74.5 60.5 74.5 60.5 88 60.5 123 140.5 150 60.5 168 60.5 173> 33 117<27 74.5 60.5 114> 100 50<60.5 74.5 140.5 150> 100 118<27 74.5 27 150> 235 48<38 75.5> 272 81<27 27 27 27 27 38 27 46 27 90 103.5 116.5 183.5 196.5 263.5 277.5 344 358.5 421.5 428> 305 48<27 38 263.5 277.5 344 358.5 421.5 428> 371 48<27 76.5> 408 80<27 49 27 38 27 38 105.5 118.5 27 92> 438 50<105.5 118.5> 508 59<145.5 417 153 417> 556 67<66 110 110 154 110 162 110 173 189.5 201.5 266.5 280.5 347.5 360.5> 576 47<110 110 110 114 114 120.5 189.5 201.5 266.5 280.5 347.5 360.5> 643 59<151 428 155 428 227.5 241.5 308 321.5 388.5 400.5>
VStem: 27 28<272 334.5 323.5 334.5 323.5 353 323.5 419 458.5 469.5> 44 50<254 264> 88 50<592.5 599> 127 46<525.5 538.5> 162 57<146 283 240 283 283 283 592.5 606> 210 50<660.5 672.5> 249 50<592.5 606> 291 48<660.5 672.5> 330 48<592.5 606> 371 68 417 22<390.5 399>
LayerCount: 2
Back
Fore
SplineSet
404 419 m 1x8b6eaa80
 439 419 l 1
 439 272 l 1
 413 272 l 1
 367 272 l 1
 332 272 l 1
 288 272 l 1
 251 272 l 1
 208 272 l 1
 173 272 l 1
 173 268 l 1
 173 253 l 1
 173 211 l 1
 173 174 l 1
 173 78 l 1
 173 37 l 1
 173 0 l 1x856e55
 168 0 l 1
 123 0 l 1
 88 0 l 1x8b6eaa80
 44 0 l 1x8b6d55
 27 0 l 1x8b6eaa80
 27 33 l 1x4b6eaa80
 27 83 l 1
 27 168 l 1
 27 218 l 1
 27 272 l 1
 27 272 l 1
 27 303 l 1
 27 353 l 1
 27 419 l 1
 27 419 l 1x156eaa80
 27 440 l 1
 27 488 l 1
 27 556 l 1x8a96aa80
 131 661 l 1
 131 661 l 1
 153 682 l 1
 173 702 l 1
 428 702 l 1
 428 623 l 1
 428 576 l 1x8b6e55
 428 556 l 1
 395 556 l 1
 391 556 l 1
 173 556 l 1
 173 545 l 1
 173 517 l 1
 173 480 l 1
 173 449 l 1
 173 419 l 1x8b5655
 219 419 l 1
 243 419 l 1
 299 419 l 1
 323 419 l 1
 378 419 l 1
 404 419 l 1x8b6eaa80
417 676 m 2x8b6e9480
 417 691 l 1
 402 691 l 2
 408 689 415 682 417 676 c 2x8b6e9480
230 691 m 2
 173 691 l 1
 173 682 l 1
 177 678 179 674 179 667 c 0
 179 661 177 654 173 650 c 1
 173 645 l 1
 173 639 l 1
 173 619 l 1
 173 613 l 1
 173 613 l 1x8aae55
 177 619 184 623 195 623 c 0
 208 623 219 613 219 599 c 0x8b6eaa80
 219 586 208 576 195 576 c 0
 184 576 177 580 173 586 c 1
 173 567 l 1
 417 567 l 1
 417 582 l 1
 413 586 410 593 410 599 c 0
 410 608 413 615 417 619 c 1
 417 619 l 1
 417 639 l 1
 417 645 l 1
 417 658 l 2x8b6e5480
 415 650 406 643 395 643 c 0
 382 643 371 654 371 667 c 0x8b6ea9
 371 678 378 689 386 691 c 2
 321 691 l 2
 332 689 339 678 339 667 c 0
 339 654 328 643 315 643 c 0
 301 643 291 654 291 667 c 0
 291 678 297 689 308 691 c 2
 240 691 l 2
 251 689 260 678 260 667 c 0
 260 654 249 643 234 643 c 0
 221 643 210 654 210 667 c 0
 210 678 219 689 230 691 c 2
38 440 m 1
 38 419 l 1
 59 419 l 2
 62 419 66 421 70 421 c 0
 75 421 79 419 83 419 c 2
 138 419 l 2
 142 421 147 421 151 421 c 0
 155 421 158 421 162 419 c 1
 162 508 l 2x856eaa80
 160 508 155 508 153 508 c 0
 138 508 127 519 127 532 c 0x8b6e55
 127 545 138 556 153 556 c 0
 155 556 160 556 162 554 c 2
 162 556 l 1x8b56aa80
 162 643 l 2
 160 643 158 643 155 643 c 0
 147 643 140 645 136 650 c 1
 136 650 l 1
 116 630 l 1
 110 623 l 1
 110 623 l 1
 112 623 112 623 114 623 c 0
 127 623 138 613 138 599 c 0
 138 586 127 576 114 576 c 0
 99 576 88 586 88 599 c 1x8b6eaa80
 88 599 88 602 90 602 c 2
 83 597 l 1
 64 578 l 1
 59 573 l 1
 38 552 l 1
 38 488 l 1
 49 484 55 475 55 464 c 0
 55 453 49 443 38 440 c 1
116 11 m 1
 134 11 l 2
 138 13 142 15 147 15 c 0
 151 15 155 13 158 11 c 2
 162 11 l 1
 162 105 l 1
 158 102 153 100 147 100 c 0
 134 100 123 111 123 126 c 0
 123 140 134 150 147 150 c 0
 153 150 158 148 162 146 c 1
 162 240 l 1
 158 238 153 235 149 235 c 0x2b6eaa80
 136 235 125 246 125 262 c 0
 125 266 125 268 127 272 c 1
 90 272 l 1x856e55
 92 268 94 266 94 262 c 0
 94 246 83 235 68 235 c 0
 55 235 44 246 44 262 c 0x8b6d55
 44 266 46 268 46 272 c 1
 38 272 l 1
 38 216 l 1
 46 211 53 203 53 194 c 0
 53 183 46 174 38 170 c 1
 38 78 l 1
 46 74 51 68 51 57 c 0
 51 48 46 41 38 37 c 1
 38 11 l 1
 53 11 l 2
 57 13 62 15 66 15 c 0
 70 15 75 13 77 11 c 2
 83 11 l 1
 90 11 l 1
 110 11 l 1
 116 11 l 1
402 283 m 2
 428 283 l 1
 428 305 l 1
 415 305 406 316 406 329 c 0
 406 342 415 353 428 353 c 1
 428 408 l 1
 415 408 l 1
 415 403 417 401 417 397 c 0
 417 384 406 373 391 373 c 0
 378 373 367 384 367 397 c 0
 367 401 367 403 369 408 c 1
 334 408 l 1
 334 403 336 401 336 397 c 0
 336 384 325 373 312 373 c 0
 297 373 286 384 286 397 c 0
 286 401 288 403 288 408 c 1
 253 408 l 1
 256 403 256 401 256 397 c 0
 256 384 245 373 232 373 c 0
 216 373 206 384 206 397 c 0
 206 401 208 403 208 408 c 1
 173 408 l 1x8aae4a80
 175 403 175 399 175 397 c 0
 175 384 164 371 151 371 c 0x8b6eaa80
 138 371 127 384 127 397 c 0
 127 399 127 403 129 408 c 1
 92 408 l 1x8aae55
 94 403 94 399 94 397 c 0
 94 381 83 371 70 371 c 0x8b6d55
 57 371 46 381 46 397 c 0
 46 399 46 403 49 408 c 1
 38 408 l 1
 38 408 l 1
 38 351 l 1
 49 349 55 340 55 329 c 0
 55 318 49 310 38 305 c 1
 38 283 l 1
 38 283 l 1
 59 283 l 2
 62 286 66 286 68 286 c 0
 73 286 77 286 79 283 c 2
 138 283 l 2
 142 286 144 286 149 286 c 0
 153 286 158 286 160 283 c 2
 162 283 l 1x8aaeaa80
 173 283 l 1x8b6e55
 219 283 l 2
 221 286 225 286 230 286 c 0
 234 286 236 286 240 283 c 2
 299 283 l 2
 301 286 306 286 310 286 c 0
 315 286 317 286 321 283 c 2
 378 283 l 2
 382 286 386 286 391 286 c 0
 393 286 397 286 402 283 c 2
273 576 m 0
 260 576 249 586 249 599 c 0
 249 613 260 623 273 623 c 0
 288 623 299 613 299 599 c 0
 299 586 288 576 273 576 c 0
354 576 m 0
 341 576 330 586 330 599 c 0
 330 613 341 623 354 623 c 0
 367 623 378 613 378 599 c 0
 378 586 367 576 354 576 c 0
97 532 m 0
 97 519 86 506 73 506 c 0
 59 506 49 519 49 532 c 0
 49 545 59 556 73 556 c 0x8556aa80
 86 556 97 545 97 532 c 0
88 464 m 0
 88 477 99 488 112 488 c 0
 125 488 136 477 136 464 c 0
 136 451 125 438 112 438 c 0
 99 438 88 451 88 464 c 0
110 353 m 0
 123 353 134 342 134 329 c 0
 134 314 123 303 110 303 c 0
 97 303 86 314 86 329 c 0
 86 342 97 353 110 353 c 0
190 353 m 0
 203 353 214 342 214 329 c 0
 214 316 203 303 190 303 c 0
 177 303 166 316 166 329 c 0
 166 342 177 353 190 353 c 0
271 353 m 0
 284 353 295 342 295 329 c 0
 295 316 284 305 271 305 c 0x1b6eaa80
 256 305 245 316 245 329 c 0
 245 342 256 353 271 353 c 0
352 353 m 0
 365 353 376 342 376 329 c 0
 376 316 365 305 352 305 c 0
 336 305 325 316 325 329 c 0
 325 342 336 353 352 353 c 0
107 168 m 0
 94 168 83 179 83 194 c 0
 83 207 94 218 107 218 c 0
 123 218 134 207 134 194 c 0
 134 179 123 168 107 168 c 0
92 126 m 0
 92 111 81 100 68 100 c 0
 53 100 42 111 42 126 c 0
 42 140 53 150 68 150 c 0x2b6eaa80
 81 150 92 140 92 126 c 0
107 83 m 0
 121 83 131 72 131 59 c 0
 131 44 121 33 107 33 c 0x4b6eaa80
 92 33 81 44 81 59 c 0
 81 72 92 83 107 83 c 0
EndSplineSet
EndChar
StartChar: G
Encoding: 71 71 6
Width: 525
Flags: MW
HStem: 0 28<233 295.5 284.5 295.5 284.5 314 266 295.5 284.5 344 284.5 314> 46 50<244.5 257.5 323.5 337.5 410 410 410 410> 113 33<29 59 29 59 205.5 217.5 285.5 297.5> 113 48<48.5 59 48.5 59 48.5 75 125.5 136.5> 135 96<75 173 155 173 155 173 173 188 173 266 173 236> 181 50<173 173 173 173 405.5 418.5 492 493.5 492 497> 248 35 272 26<288 297.5> 316 50<87.5 100.5 327.5 340.5> 383 35<287.5 300.5 247 376> 383 50<52 61.5 128 142.5> 450 50<88.5 102.5> 518 48<129.5 210> 555 80<162 177 173 177 173 177 177 183.5 173 194 173 238 250.5 263.5 330.5 344.5 409.5 424> 585 50<173 177 173 174 250.5 263.5 330.5 344.5 409.5 424> 653 48<142 210 211.5 224.5 291.5 305.5 370.5 384.5 451.5 462>
VStem: 29 48<265.5 278.5 265.5 555> 70 53 112 48 149 24<335 344.5> 162 39<555 617 592 617 602.5 672> 162 95<283 316 283 318 283 318 283 366 366 407 283 455> 233 46 247 32<272 346 334 346 334 363 318 346 334 418 334 363> 273 50<671.5 681> 312 50<603.5 618> 312 63<11 113> 364 39 390 52 427 61 477 31<128 146 265.5 272>
LayerCount: 2
Back
Fore
SplineSet
364 418 m 1xd5dba954
 508 272 l 1
 508 224 l 1
 508 187 l 1
 508 146 l 1
 508 146 l 1
 508 146 l 1
 508 144 l 1
 508 144 508 144 508 144 c 1xe5dba492
 436 72 l 1
 436 72 l 1
 410 46 l 1
 410 46 l 1
 386 22 l 1
 386 22 l 1
 364 0 l 1
 344 0 l 1
 344 0 l 1
 314 0 l 1
 314 0 l 1
 266 0 l 1
 266 0 l 1
 233 0 l 1
 233 0 l 1
 186 0 l 1
 186 0 l 1
 173 0 l 1
 114 61 l 1
 114 61 114 61 114 61 c 1
 81 91 l 1
 81 91 81 91 81 91 c 1
 59 113 l 1
 59 113 l 1
 29 146 l 1
 29 146 l 1
 29 146 l 1
 29 555 l 1
 173 701 l 1
 210 701 l 1
 227 701 l 1
 288 701 l 1
 307 701 l 1
 368 701 l 1
 388 701 l 1
 447 701 l 1
 469 701 l 1
 488 701 l 1
 488 633 l 1
 488 588 l 1
 488 555 l 1xe6d59254
 477 555 l 1
 436 555 l 1
 397 555 l 1
 355 555 l 1
 318 555 l 1
 275 555 l 1
 238 555 l 1
 194 555 l 1
 173 555 l 1
 173 500 l 1
 173 500 173 500 173 500 c 1
 173 450 l 1
 173 450 173 450 173 450 c 1
 173 366 l 1
 173 366 173 366 173 366 c 1
 173 316 l 1
 173 316 173 316 173 316 c 1
 173 231 l 1
 173 231 173 231 173 231 c 1
 173 181 l 1
 173 181 173 181 173 181 c 1
 173 146 l 1
 364 146 l 1xe6d59252
 364 161 l 1
 364 250 l 1
 364 272 l 1
 349 272 l 1
 349 272 l 1
 318 272 l 1
 318 272 l 1
 268 272 l 1
 268 272 l 1
 247 272 l 1
 247 318 l 1
 247 318 l 1
 247 363 l 1
 247 363 l 1
 247 418 l 1
 364 418 l 1xd5dba954
257 316 m 1
 257 283 l 1
 270 283 l 1xe6dba492
 275 292 284 298 292 298 c 0xe5dbaa54
 303 298 312 292 316 283 c 1
 351 283 l 1xe6dbaa54
 353 292 362 298 373 298 c 0xe5dbaa54
 384 298 392 292 397 283 c 1
 429 283 l 1xe6dbaa54
 434 292 442 298 453 298 c 0xe5dbaa54
 464 298 473 292 475 283 c 1
 482 283 l 1
 436 329 l 1
 432 322 423 316 414 316 c 0
 401 316 390 326 390 342 c 0xe6dbaa4a
 390 350 395 359 403 361 c 1xe6dbaa54
 381 385 l 2
 379 383 377 383 375 383 c 0
 362 383 351 394 351 407 c 1
 318 407 l 1
 318 394 307 383 294 383 c 0
 281 383 270 394 270 407 c 1
 257 407 l 1
 257 366 l 1xe6dba42a
 268 363 279 353 279 339 c 0xe6dbaa54
 279 329 268 318 257 316 c 1
197 690 m 1
 173 690 l 1
 173 670 l 1
 173 664 l 1
 173 644 l 1
 173 638 l 1
 173 635 l 2xe6db5254
 175 635 175 635 177 635 c 0
 190 635 201 625 201 609 c 0xe6d5aa54
 201 596 190 585 177 585 c 0
 175 585 175 585 173 585 c 2
 173 566 l 1xe6db9254
 210 566 l 2
 212 568 214 568 216 568 c 0
 218 568 220 568 223 566 c 2
 290 566 l 2
 292 568 294 568 297 568 c 0
 299 568 301 568 303 566 c 2
 368 566 l 2
 371 568 373 568 377 568 c 0
 379 568 381 568 384 566 c 2
 449 566 l 2
 451 568 453 568 455 568 c 0
 460 568 462 568 464 566 c 2
 477 566 l 1
 477 588 l 1
 477 592 l 1
 477 596 l 2
 475 601 473 605 473 611 c 0
 473 616 475 620 477 625 c 2
 477 638 l 1
 477 644 l 1
 477 664 l 1
 473 657 466 653 458 653 c 0
 445 653 434 666 434 679 c 0
 434 683 434 685 436 690 c 1
 399 690 l 1
 401 685 403 683 403 679 c 0
 403 664 392 653 377 653 c 0
 364 653 353 664 353 679 c 0
 353 683 355 685 355 690 c 1
 321 690 l 1
 321 685 323 683 323 679 c 0
 323 664 312 653 299 653 c 0
 284 653 273 664 273 679 c 0
 273 683 275 685 277 690 c 1
 240 690 l 1
 242 685 242 681 242 679 c 0
 242 664 231 653 218 653 c 0
 205 653 194 664 194 679 c 0
 194 681 194 685 197 690 c 1
64 577 m 1
 59 572 l 1
 55 568 l 1
 55 568 55 568 57 568 c 0
 70 568 81 557 81 542 c 0
 81 529 70 518 57 518 c 0
 49 518 44 520 40 524 c 1
 40 481 l 2
 40 479 40 477 40 474 c 0
 40 472 40 470 40 468 c 2
 40 426 l 1
 44 431 49 433 55 433 c 0
 68 433 79 420 79 407 c 0
 79 394 68 383 55 383 c 0
 49 383 44 385 40 390 c 1
 40 292 l 2
 42 296 49 296 53 296 c 0
 66 296 77 285 77 272 c 0xe5bbaa54
 77 259 66 248 53 248 c 0
 49 248 42 250 40 252 c 2
 40 159 l 2
 42 161 46 161 51 161 c 0xd6dbaa54
 62 161 70 154 75 146 c 1
 86 146 l 1
 90 146 l 1
 107 146 l 1xe6dbaa54
 112 154 120 161 131 161 c 0xd6dbaa54
 142 161 151 154 155 146 c 1
 162 146 l 1
 162 183 l 1
 153 187 146 196 146 205 c 0
 146 215 153 224 162 228 c 1
 162 318 l 1xe6dbaa54
 155 322 149 331 149 339 c 0xe6db9254
 149 350 155 357 162 361 c 1
 162 455 l 1
 155 459 151 466 151 474 c 0
 151 483 155 492 162 496 c 1
 162 555 l 1
 162 592 l 1
 157 596 153 603 153 609 c 0
 153 618 157 625 162 629 c 1
 162 672 l 2xe6d5aa54
 160 664 151 655 142 653 c 1
 136 648 l 1
 116 629 l 1
 114 627 l 1
 118 622 123 616 123 609 c 0
 123 596 112 585 96 585 c 0
 90 585 86 588 81 592 c 1
 64 577 l 1
157 30 m 1
 177 11 l 1
 186 11 l 1
 190 20 199 26 210 26 c 0
 220 26 229 20 233 11 c 1
 266 11 l 1
 270 20 279 28 290 28 c 0
 301 28 310 20 312 11 c 1
 347 11 l 1
 349 17 355 24 364 26 c 1
 364 30 l 1
 364 37 l 1
 364 57 l 1
 364 63 l 1
 364 83 l 1
 364 87 l 1
 364 109 l 1
 364 113 l 1xe6dbaa54
 364 115 l 1
 355 118 349 124 347 135 c 1
 316 135 l 1xcadbaa54
 314 122 303 113 292 113 c 0xe6dbaa54
 279 113 268 122 266 135 c 1
 236 135 l 1xcadbaa54
 233 122 223 113 212 113 c 0xe6dbaa54
 199 113 188 122 188 135 c 1
 173 135 l 1
 155 135 l 1xcadb9254
 153 122 144 113 131 113 c 0xe6dbaa54
 118 113 109 122 107 135 c 1
 75 135 l 1xcadbaa54
 75 128 72 124 68 120 c 1
 75 113 l 1
 79 109 l 1
 94 94 l 1
 105 91 114 85 114 74 c 1
 127 63 l 1
 131 57 l 1
 151 37 l 1
 157 30 l 1
497 231 m 2xcadbaa54
 497 272 l 1
 477 272 l 1xe5dba492
 477 259 466 248 453 248 c 0xe6dbaa54
 440 248 429 259 429 272 c 1
 425 272 l 1
 421 272 l 1
 399 272 l 1
 397 272 l 1xe5dbaa54
 397 259 386 248 375 248 c 1
 375 163 l 1
 386 161 397 150 397 137 c 0
 397 126 386 115 375 113 c 1
 375 26 l 1
 375 26 375 26 375 26 c 1
 395 46 l 1
 397 50 l 1
 390 54 386 61 386 70 c 0
 386 85 397 96 410 96 c 0
 418 96 427 91 432 83 c 1
 447 98 l 1
 451 104 l 1
 469 120 l 2
 464 115 458 113 451 113 c 0
 438 113 427 124 427 137 c 0xe6dbaa24
 427 152 438 163 451 163 c 0
 464 163 475 152 475 137 c 0
 475 133 473 126 471 122 c 2
 471 124 l 1
 477 128 l 1
 497 150 l 1
 497 181 l 2
 495 181 495 181 492 181 c 0xe6dbaa52
 479 181 469 191 469 207 c 0
 469 220 479 231 492 231 c 0
 495 231 495 231 497 231 c 2xcadbaa54
257 585 m 0
 244 585 233 596 233 611 c 0xe6dbaa54
 233 625 244 635 257 635 c 0
 270 635 281 625 281 611 c 0
 281 596 270 585 257 585 c 0
338 585 m 0
 323 585 312 596 312 611 c 0
 312 625 323 635 338 635 c 0
 351 635 362 625 362 611 c 0
 362 596 351 585 338 585 c 0
416 585 m 0
 403 585 392 596 392 611 c 0
 392 625 403 635 416 635 c 0
 432 635 442 625 442 611 c 0
 442 596 432 585 416 585 c 0
136 518 m 0
 123 518 112 529 112 542 c 0
 112 557 123 568 136 568 c 0
 151 568 162 557 162 542 c 0
 162 529 151 518 136 518 c 0
70 474 m 0xe6bb5254
 70 490 81 500 96 500 c 0
 109 500 120 490 120 474 c 0
 120 461 109 450 96 450 c 0
 81 450 70 461 70 474 c 0xe6bb5254
109 407 m 0
 109 422 120 433 136 433 c 0
 149 433 160 422 160 407 c 0xe5bbaa54
 160 394 149 383 136 383 c 0
 120 383 109 394 109 407 c 0
118 339 m 0
 118 326 107 316 94 316 c 0
 81 316 68 326 68 339 c 0
 68 353 81 366 94 366 c 0
 107 366 118 353 118 339 c 0
334 316 m 0
 321 316 310 326 310 339 c 0
 310 355 321 366 334 366 c 0
 347 366 358 355 358 339 c 0
 358 326 347 316 334 316 c 0
107 272 m 0
 107 285 120 298 133 298 c 0
 146 298 157 285 157 272 c 0xe5dbaa54
 157 259 146 248 133 248 c 0xe6dbaa54
 120 248 107 259 107 272 c 0
92 228 m 0
 105 228 116 218 116 205 c 0
 116 191 105 181 92 181 c 0
 79 181 68 191 68 205 c 0
 68 218 79 228 92 228 c 0
412 231 m 0
 425 231 436 220 436 205 c 0
 436 191 425 181 412 181 c 0
 399 181 388 191 388 205 c 0
 388 220 399 231 412 231 c 0
194 70 m 0
 194 57 183 46 170 46 c 0
 157 46 146 57 146 70 c 0
 146 83 157 94 170 94 c 0
 183 94 194 83 194 70 c 0
251 46 m 0
 238 46 225 57 225 70 c 0
 225 83 238 96 251 96 c 0
 264 96 275 83 275 70 c 0
 275 57 264 46 251 46 c 0
331 46 m 0
 316 46 305 57 305 70 c 0
 305 85 316 96 331 96 c 0
 344 96 355 85 355 70 c 0
 355 57 344 46 331 46 c 0
EndSplineSet
EndChar
StartChar: H
Encoding: 72 72 7
Width: 529
Flags: MW
HStem: 0 35<43 108.5 95.5 108.5 95.5 124 95.5 159> 54 48<56.5 69.5> 122 50<95.5 109.5 417 431.5> 190 50<56.5 70.5 136.5 146.5 381 391.5 457.5 471.5> 190 93<56.5 70.5 136.5 146.5> 257 50<99.5 109.5 418 432.5> 272 35<47 110.5 97.5 161 97.5 128 178.5 191.5 258.5 271.5 338.5 347> 325 50<58.5 71.5 145 152 219.5 232.5 299.5 313.5 382 393 459.5 471.5> 392 27<183.5 191.5 262.5 272 341.5 348> 392 51<99.5 112.5 420.5 433.5> 460 50<60.5 73.5 141.5 150 383 394 461.5 472.5> 528 50<101.5 115 422.5 435.5> 595 50<62.5 75.5 142.5 152 384.5 396.5> 663 39<103 117.5>
VStem: 28 24<412 421.5 547.5 557> 45 42 80 55 124 48<0 35 477.5 491.5 613.5 627.5> 124 126<342.5 491.5> 161 205<26 61 11 63 11 63 98 135 135 135 159 196 196 196 231 270 390 390 390 390 432 464 464 464 506 536 569 599 599 599 641 669> 281 50<343.5 357.5> 355 52<0 86 71.5 86 71.5 126 71.5 168> 398 57 442 46 442 59<343.5 357.5>
LayerCount: 2
Back
Fore
SplineSet
490 702 m 1xf3be4c80
 501 702 l 1
 501 665 l 1
 501 578 l 1
 501 530 l 1
 501 443 l 1xf57e8c80
 501 395 l 1
 501 307 l 1
 501 259 l 1
 501 172 l 1
 501 122 l 1
 501 37 l 1
 501 0 l 1
 481 0 l 1
 444 0 l 1
 401 0 l 1
 363 0 l 1
 355 0 l 1
 355 33 l 1
 355 126 l 1
 355 168 l 1
 355 259 l 1
 355 272 l 1
 322 272 l 1
 287 272 l 1
 241 272 l 1
 207 272 l 1
 172 272 l 1
 172 262 l 1
 172 262 l 1
 172 168 l 1
 172 168 l 1
 172 124 l 1
 172 124 l 1
 172 35 l 1
 172 35 l 1
 172 0 l 1
 172 0 l 1
 159 0 l 1
 124 0 l 1
 78 0 l 1
 43 0 l 1
 28 0 l 1
 28 0 l 1
 28 702 l 1
 28 702 l 1
 50 702 l 1
 89 702 l 1
 130 702 l 1
 169 702 l 1
 172 702 l 1
 172 702 l 1
 172 671 l 1
 172 671 l 1
 172 628 l 1
 172 628 172 628 172 628 c 1
 172 613 l 1
 172 613 172 613 172 613 c 1
 172 571 l 1
 172 571 l 1
 172 534 l 1
 172 534 172 534 172 534 c 1
 172 438 l 1
 172 438 l 1
 172 419 l 1
 211 419 l 1
 241 419 l 1
 292 419 l 1
 322 419 l 1
 355 419 l 1
 355 440 l 1
 355 530 l 1
 355 576 l 1
 355 665 l 1
 355 702 l 1
 370 702 l 1
 409 702 l 1
 451 702 l 1
 490 702 l 1xf3be4c80
244 408 m 1
 209 408 l 1
 204 399 196 392 187 392 c 0
 180 392 174 395 169 399 c 1
 161 390 l 1
 161 390 l 1
 145 375 l 1
 145 375 145 375 145 375 c 1
 159 375 169 364 169 349 c 0
 169 336 159 325 145 325 c 0
 132 325 122 336 122 349 c 2
 122 349 122 351 122 351 c 1
 54 283 l 1
 80 283 l 1xe9be92
 80 296 91 307 104 307 c 0xf3be92
 117 307 128 296 130 283 c 1
 161 283 l 1xe9be92
 161 296 172 307 185 307 c 0xf5be92
 198 307 209 296 209 283 c 1
 241 283 l 1xe9be92
 241 296 252 307 265 307 c 0xf5be92
 278 307 289 296 289 283 c 1
 320 283 l 1xe9be92
 320 296 331 307 346 307 c 0
 348 307 353 305 355 305 c 2
 355 395 l 2
 353 395 350 392 346 392 c 0
 337 392 329 399 324 408 c 1
 289 408 l 1
 285 399 276 392 268 392 c 0
 257 392 248 399 244 408 c 1
58 691 m 1
 54 691 l 2
 54 689 54 689 54 687 c 0
 54 678 47 667 39 665 c 1
 39 576 l 1
 47 571 52 562 52 552 c 0
 52 543 47 534 39 530 c 1
 39 438 l 1
 45 434 52 427 52 416 c 0
 52 408 45 399 39 395 c 1
 39 303 l 1
 43 299 45 296 47 292 c 1
 161 408 l 1
 161 464 l 2xf5be92
 159 462 152 460 148 460 c 0
 135 460 124 471 124 484 c 0xf5be2d
 124 499 135 510 148 510 c 0
 152 510 159 508 161 506 c 2
 161 599 l 2xf5be92
 159 597 154 595 150 595 c 0
 135 595 124 606 124 621 c 0xf5be4d
 124 634 135 645 150 645 c 0
 154 645 159 643 161 641 c 2
 161 691 l 1
 141 691 l 1
 137 691 l 1
 135 691 l 2
 135 689 135 689 135 689 c 2
 135 674 124 663 111 663 c 0
 95 663 84 674 84 689 c 2
 84 689 84 689 84 691 c 1
 84 691 l 1
 65 691 l 1
 58 691 l 1
137 11 m 1
 141 11 l 1
 156 11 l 1
 156 17 159 22 161 26 c 2
 161 63 l 1
 156 59 150 54 141 54 c 0
 128 54 117 65 117 78 c 0
 117 92 128 105 141 105 c 0
 150 105 156 100 161 94 c 1
 161 135 l 2
 159 137 159 142 159 146 c 0
 159 150 159 155 161 159 c 2
 161 196 l 1
 156 192 150 190 143 190 c 0
 130 190 119 201 119 214 c 0
 119 229 130 240 143 240 c 0
 150 240 156 235 161 231 c 1
 161 272 l 1
 128 272 l 1xf3be91
 124 264 115 257 104 257 c 0xf5be92
 95 257 87 264 82 272 c 1
 47 272 l 1
 45 268 43 264 39 262 c 1
 39 166 l 1
 43 161 47 155 47 146 c 0
 47 140 43 131 39 126 c 1
 39 85 l 2
 41 96 50 102 63 102 c 0
 76 102 87 92 87 78 c 0
 87 65 76 54 63 54 c 0
 50 54 41 61 39 72 c 2
 39 28 l 1
 43 24 45 17 45 11 c 1xf3bd4d
 58 11 l 1
 65 11 l 1
 76 11 l 1
 78 26 89 35 102 35 c 0
 115 35 126 26 126 11 c 1
 137 11 l 1
490 401 m 1
 486 405 483 412 483 419 c 0
 483 425 486 432 490 436 c 1
 490 475 l 1
 486 467 477 460 468 460 c 0
 455 460 444 471 444 486 c 0
 444 499 455 510 468 510 c 0
 477 510 486 504 490 497 c 1
 490 538 l 1
 486 541 483 547 483 554 c 0
 483 560 486 565 490 569 c 1
 490 606 l 1
 486 599 479 597 470 597 c 0
 455 597 444 608 444 621 c 0
 444 634 455 645 470 645 c 0
 479 645 486 641 490 634 c 1
 490 676 l 2
 488 678 486 685 486 689 c 2
 486 689 486 691 486 691 c 1
 455 691 l 1
 455 691 455 689 455 689 c 2
 455 676 444 665 431 665 c 0
 416 665 405 676 405 689 c 2
 405 689 405 691 405 691 c 1
 374 691 l 2
 374 689 374 689 374 689 c 2
 374 680 372 674 366 669 c 1
 366 630 l 1
 370 639 379 645 390 645 c 0
 403 645 414 634 414 621 c 0
 414 606 403 595 390 595 c 0
 379 595 370 602 366 613 c 1
 366 569 l 1
 370 565 372 560 372 554 c 0
 372 547 370 541 366 536 c 1
 366 497 l 1
 370 506 379 510 387 510 c 0
 401 510 411 499 411 486 c 0
 411 471 401 460 387 460 c 0
 379 460 370 467 366 473 c 1
 366 432 l 1
 370 427 372 423 372 419 c 0
 372 412 370 408 366 403 c 1
 366 364 l 1
 370 371 379 375 385 375 c 0
 401 375 411 364 411 351 c 0
 411 336 401 325 385 325 c 0
 379 325 370 329 366 336 c 1
 366 294 l 2
 368 290 370 288 370 283 c 0xe9bd12
 370 277 368 275 366 270 c 2
 366 231 l 1
 370 235 377 240 385 240 c 0
 398 240 409 229 409 216 c 0
 409 201 398 190 385 190 c 0
 377 190 370 194 366 198 c 1
 366 155 l 2
 368 153 368 150 368 146 c 0
 368 144 368 142 366 140 c 2
 366 98 l 1xf5be92
 370 102 377 105 383 105 c 0
 396 105 407 94 407 78 c 0xf5be8d
 407 65 396 54 383 54 c 0
 377 54 370 57 366 61 c 1
 366 11 l 1
 398 11 l 1
 398 11 398 11 398 11 c 1
 398 26 409 37 422 37 c 0
 435 37 446 26 446 11 c 1
 446 11 446 11 446 11 c 1
 477 11 l 1
 477 11 477 11 477 13 c 0
 477 22 483 28 490 33 c 1
 490 126 l 1
 483 131 479 140 479 148 c 0
 479 155 483 163 490 168 c 1
 490 264 l 1
 483 268 481 275 481 283 c 0xe9be92
 481 290 483 296 490 301 c 1
 490 344 l 2
 488 334 477 325 466 325 c 0
 453 325 442 336 442 351 c 0
 442 364 453 375 466 375 c 0
 477 375 488 366 490 355 c 2
 490 401 l 1
45 619 m 0
 45 634 56 645 69 645 c 0
 82 645 93 634 93 619 c 0
 93 606 82 595 69 595 c 0
 56 595 45 606 45 619 c 0
84 552 m 0
 84 567 95 578 108 578 c 0
 122 578 132 567 132 552 c 0
 132 538 122 528 108 528 c 0
 95 528 84 538 84 552 c 0
453 554 m 0
 453 538 442 528 429 528 c 0
 416 528 405 538 405 554 c 0
 405 567 416 578 429 578 c 0
 442 578 453 567 453 554 c 0
91 484 m 0
 91 471 80 460 67 460 c 0
 54 460 43 471 43 484 c 0
 43 499 54 510 67 510 c 0
 80 510 91 499 91 484 c 0
82 416 m 0
 82 432 93 443 106 443 c 0xf57e92
 119 443 130 432 130 416 c 0
 130 403 119 392 106 392 c 0
 93 392 82 403 82 416 c 0
427 443 m 0
 440 443 451 432 451 419 c 0
 451 403 440 392 427 392 c 0
 414 392 403 403 403 419 c 0xf5be92
 403 432 414 443 427 443 c 0
65 375 m 0
 78 375 91 364 91 349 c 0
 91 336 78 325 65 325 c 0
 52 325 41 336 41 349 c 0
 41 364 52 375 65 375 c 0
202 349 m 0
 202 364 213 375 226 375 c 0
 239 375 250 364 250 349 c 0
 250 336 239 325 226 325 c 0
 213 325 202 336 202 349 c 0
307 325 m 0
 292 325 281 336 281 351 c 0
 281 364 292 375 307 375 c 0
 320 375 331 364 331 351 c 0
 331 336 320 325 307 325 c 0
401 283 m 0
 401 296 411 307 425 307 c 0xf5be92
 440 307 451 296 451 283 c 0xe9be92
 451 268 440 257 425 257 c 0xf5be92
 411 257 401 268 401 283 c 0
89 214 m 0
 89 201 78 190 63 190 c 0
 50 190 39 201 39 214 c 0
 39 227 50 240 63 240 c 0xf5be92
 78 240 89 227 89 214 c 0
440 216 m 0
 440 229 451 240 464 240 c 0
 479 240 490 229 490 216 c 0
 490 201 479 190 464 190 c 0
 451 190 440 201 440 216 c 0
128 146 m 0
 128 133 117 122 102 122 c 0
 89 122 78 133 78 146 c 0
 78 159 89 172 102 172 c 0
 117 172 128 159 128 146 c 0
449 148 m 0
 449 133 438 122 425 122 c 0
 409 122 398 133 398 148 c 0
 398 161 409 172 425 172 c 0
 438 172 449 161 449 148 c 0
438 81 m 0
 438 94 449 105 464 105 c 0
 477 105 488 94 488 81 c 0xf5be91
 488 65 477 54 464 54 c 0
 449 54 438 65 438 81 c 0
EndSplineSet
EndChar
StartChar: I
Encoding: 73 73 8
Width: 348
Flags: MW
HStem: 0 83<19 50.5 19 50.5 19 50.5 41 50.5 41 61 41 106 117.5 130.5 41 141 198 211.5 278.5 291.5> 33 50<41 50.5 117.5 130.5 198 211.5 278.5 291.5> 100 46<78.5 91.5> 135 83<30 126 109 126 109 126 124 126 126 132.5 124 141 200.5 213.5 124 189> 168 50<124 126 124 126 200.5 213.5> 235 51<160.5 174 240.5 248> 303 50<124 128 124 125 201.5 215.5> 371 50<162 176.5> 438 50<129 130 130 136.5 202.5 216.5> 508 59<248 248 259 259> 556 67<47.5 58.5 47.5 113 19 58.5 285.5 298.5> 573 50<47.5 58.5 130 130> 641 61<84.5 98.5>
VStem: 19 57<591.5 606 591.5 702> 67 50<660.5 672.5> 100 50<50.5 64.5> 113 37<186.5 200.5> 148 48<660.5 672.5> 187 48<592.5 606> 220 39 248 68<556 606 556 606 592.5 606 592.5 643 592.5 643> 300 31<0 13 119.5 127.5>
LayerCount: 2
Back
Fore
SplineSet
19 702 m 1xafaca8
 331 702 l 1
 331 691 l 1
 331 643 l 1
 331 556 l 1
 259 556 l 1
 259 556 l 1xafad14
 259 508 l 1
 259 419 l 1
 259 373 l 1
 259 283 l 1
 259 240 l 1
 259 146 l 1
 259 146 l 1xafdd14
 261 146 l 1
 311 146 l 1
 331 146 l 1
 331 102 l 1
 331 13 l 1
 331 0 l 1
 300 0 l 1
 266 0 l 1
 222 0 l 1
 187 0 l 1
 141 0 l 1
 106 0 l 1
 61 0 l 1
 26 0 l 1
 19 0 l 1
 19 0 l 1
 19 146 l 1
 69 146 l 1
 100 146 l 1xafdd24
 113 146 l 1
 113 556 l 1
 19 556 l 1
 19 702 l 1xafaca8
30 567 m 1xafdd28
 124 567 l 1
 130 573 l 1
 117 576 106 586 106 599 c 0
 106 613 117 623 130 623 c 0
 146 623 157 613 157 599 c 1
 229 671 l 1
 231 680 237 689 246 691 c 2
 178 691 l 2
 189 689 196 678 196 667 c 0
 196 654 185 643 172 643 c 0
 159 643 148 654 148 667 c 0
 148 678 157 689 167 691 c 2
 96 691 l 2
 109 689 117 678 117 667 c 0
 117 654 106 641 91 641 c 0
 78 641 67 654 67 667 c 0xafda54
 67 678 76 689 87 691 c 2
 30 691 l 1
 30 682 l 1
 34 678 37 671 37 667 c 0
 37 661 34 654 30 650 c 1
 30 645 l 1
 30 639 l 1
 30 619 l 1
 30 613 l 1
 30 613 l 1
 34 619 43 623 52 623 c 0
 65 623 76 613 76 599 c 0
 76 584 65 573 52 573 c 0
 43 573 34 578 30 584 c 1
 30 567 l 1xafdd28
257 11 m 2
 309 11 l 2
 314 13 316 13 320 15 c 1
 320 102 l 1
 309 105 300 113 300 126 c 0
 300 129 303 131 303 135 c 1
 268 135 l 1x97ad24
 270 131 270 129 270 126 c 0
 270 111 259 100 246 100 c 0xafdd28
 233 100 220 111 220 126 c 0
 220 129 222 131 222 135 c 1
 189 135 l 1x97dd14
 189 131 189 129 189 126 c 0
 189 111 178 100 165 100 c 0xafdd28
 152 100 141 111 141 126 c 0
 141 129 141 131 141 135 c 1
 113 135 l 1
 109 135 l 1x97dca8
 109 131 111 129 111 124 c 0
 111 111 98 100 85 100 c 0xafdd28
 72 100 61 111 61 124 c 0
 61 129 61 131 63 135 c 1
 30 135 l 1
 30 78 l 1
 34 81 39 83 43 83 c 0
 58 83 69 72 69 57 c 0
 69 44 58 33 43 33 c 0
 39 33 34 35 30 37 c 1
 30 11 l 1
 69 11 l 2
 74 13 78 15 82 15 c 0
 89 15 93 13 98 11 c 2
 150 11 l 2x57dca8
 154 13 159 15 163 15 c 0
 170 15 174 13 178 11 c 2
 231 11 l 2
 233 13 239 15 244 15 c 0
 248 15 255 13 257 11 c 2
248 556 m 1xafad28
 248 556 l 1xafad28
 248 567 l 1
 248 643 l 1
 239 645 233 650 229 658 c 1
 124 552 l 1
 124 488 l 2
 126 488 128 488 130 488 c 0
 143 488 154 477 154 464 c 0
 154 449 143 438 130 438 c 0
 128 438 126 440 124 440 c 2
 124 353 l 2
 126 353 126 353 128 353 c 0
 141 353 152 342 152 329 c 0
 152 314 141 303 128 303 c 0
 126 303 126 303 124 303 c 2
 124 218 l 1
 124 218 126 218 126 218 c 2
 139 218 150 207 150 194 c 0
 150 179 139 168 126 168 c 2
 126 168 124 168 124 168 c 1
 124 146 l 1
 150 146 l 2
 154 148 159 150 165 150 c 0
 172 150 176 148 181 146 c 2
 231 146 l 2
 235 148 239 150 246 150 c 2
 246 150 246 150 248 150 c 2
 248 235 l 1
 233 235 222 246 222 262 c 0
 222 275 233 286 248 286 c 1
 248 373 l 1
 235 373 224 384 224 397 c 0
 224 410 235 421 248 421 c 1
 248 508 l 1xafdd28
 235 508 226 519 226 532 c 0
 226 545 235 554 248 556 c 1xafad28
307 667 m 0
 307 676 314 685 320 689 c 1
 320 691 l 1
 259 691 l 2
 270 689 276 678 276 667 c 0
 276 656 270 645 259 643 c 1
 259 567 l 1
 320 567 l 1xafdd14
 320 589 l 1
 320 593 l 1
 320 613 l 1
 320 619 l 1
 320 639 l 1
 320 645 l 1
 320 645 l 1
 314 650 307 658 307 667 c 0
211 623 m 0xafad28
 224 623 235 613 235 599 c 0
 235 586 224 576 211 576 c 0
 198 576 187 586 187 599 c 0
 187 613 198 623 211 623 c 0xafad28
268 599 m 0
 268 613 279 623 292 623 c 0
 305 623 316 613 316 599 c 0
 316 586 305 576 292 576 c 0
 279 576 268 586 268 599 c 0
196 532 m 0xafac54
 196 519 185 506 170 506 c 0
 157 506 146 519 146 532 c 0
 146 545 157 556 170 556 c 0
 185 556 196 545 196 532 c 0xafac54
185 464 m 0
 185 477 196 488 209 488 c 0
 224 488 235 477 235 464 c 0x6fdd28
 235 451 224 438 209 438 c 0
 196 438 185 451 185 464 c 0
194 397 m 0
 194 381 183 371 170 371 c 0
 154 371 143 381 143 397 c 0
 143 410 154 421 170 421 c 0
 183 421 194 410 194 397 c 0
183 329 m 0
 183 342 194 353 209 353 c 0
 222 353 233 342 233 329 c 0
 233 314 222 303 209 303 c 0
 194 303 183 314 183 329 c 0
191 262 m 0
 191 246 181 235 167 235 c 0
 154 235 141 246 141 262 c 0
 141 275 154 286 167 286 c 0
 181 286 191 275 191 262 c 0
181 194 m 0
 181 207 194 218 207 218 c 0
 220 218 231 207 231 194 c 0
 231 179 220 168 207 168 c 0
 194 168 181 179 181 194 c 0
124 83 m 0
 137 83 150 72 150 57 c 0
 150 44 137 33 124 33 c 0
 111 33 100 44 100 57 c 0
 100 72 111 83 124 83 c 0
205 83 m 0
 218 83 229 72 229 59 c 0
 229 44 218 33 205 33 c 0
 191 33 181 44 181 59 c 0
 181 72 191 83 205 83 c 0
285 83 m 0
 298 83 309 72 309 59 c 0
 309 44 298 33 285 33 c 0
 272 33 259 44 259 59 c 0x6fdd14
 259 72 272 83 285 83 c 0
EndSplineSet
EndChar
StartChar: J
Encoding: 74 74 9
Width: 506
Flags: MW
HStem: 0 94<173 180.5 91 187 91 168 91 237 247 261.5> 44 50<173 174 247 261.5> 111 35<24 57 24 57 207.5 222> 111 50<57 57 57 57 128.5 139.5 291.5 299.5 379 379 379 379> 135 93<89.5 189 89.5 168 328.5 341.5> 178 50<89.5 102.5 328.5 341.5> 246 28<51.5 62 130.5 141.5> 246 50<292.5 302.5 369.5 383> 313 50<330.5 343.5> 381 50<293.5 304.5 371 384.5> 448 50<331.5 346> 516 50<296 300 300 306.5 372.5 384.5> 555 78<187 187 187 200 176 187 187 239 253.5 267.5 413 420 420 426.5> 583 50<253.5 267.5 339 346> 651 50<214.5 220 220 224 224 228.5 293.5 298 298 305 305 308>
VStem: 24 94<65 181> 70 48 109 59<128.5 135> 157 30<0 11 0 50> 176 70<669.5 679 669.5 701 669.5 701> 196 50<669.5 679> 235 44 268 58 309 57<59 113 66 113> 357 43 357 56<672.5 679> 403 43<555 615.5 566 615.5 592 615.5 602.5 664> 403 82<492 590 531 590 551 590 555 566 566 590 590 592 592 592 625 629 629 664 664 664 690 690 690 690 690 690>
LayerCount: 2
Back
Fore
SplineSet
466 701 m 1xa6ea52a0
 485 701 l 1
 485 679 l 1
 485 675 l 1
 485 629 l 1
 485 590 l 1
 485 555 l 1xa6eb2a90
 481 555 l 1
 440 555 l 1
 413 555 l 1
 413 498 l 1
 413 498 413 498 413 498 c 1
 413 450 l 1
 413 450 413 450 413 450 c 1
 413 363 l 1
 413 363 413 363 413 363 c 1
 413 316 l 1
 413 316 413 316 413 316 c 1
 413 228 l 1
 413 228 413 228 413 228 c 1
 413 178 l 1
 413 178 413 178 413 178 c 1
 413 146 l 1
 398 131 l 1
 398 131 398 131 398 131 c 1
 379 111 l 1
 379 111 379 111 379 111 c 1
 353 85 l 1
 353 85 353 85 353 85 c 1
 318 50 l 1
 318 50 318 50 318 50 c 1
 294 26 l 1
 294 26 l 1
 294 26 294 26 294 26 c 1
 268 0 l 1
 268 0 l 1
 268 0 l 1
 237 0 l 1
 187 0 l 1xa6eb2a40
 168 0 l 1xa6f652a0
 157 11 l 1
 98 72 l 1
 81 89 l 1
 81 89 l 1
 57 111 l 1
 57 111 57 111 57 111 c 1
 30 139 l 1
 30 139 l 1
 24 146 l 1
 24 181 l 1
 24 226 l 1
 24 274 l 1xa6f72aa0
 168 274 l 1
 168 226 l 1
 168 181 l 1
 168 146 l 1
 268 146 l 1
 268 555 l 1
 239 555 l 1
 200 555 l 1
 176 555 l 1
 176 701 l 1
 220 701 l 1
 224 701 l 1
 298 701 l 1
 305 701 l 1
 376 701 l 1
 385 701 l 1
 457 701 l 1
 466 701 l 1xa6ea52a0
403 690 m 1
 403 690 l 1
 403 690 l 1
 403 690 403 690 403 690 c 1
187 566 m 1xa6f72aa0
 279 566 l 1xa6f72520
 316 603 l 2
 316 605 316 607 316 609 c 0
 316 622 326 633 339 633 c 0
 342 633 344 633 346 633 c 2
 368 655 l 1
 361 659 357 668 357 677 c 0
 357 681 359 685 361 690 c 1
 322 690 l 1
 324 685 326 681 326 677 c 0
 326 664 316 651 300 651 c 0
 287 651 276 664 276 677 c 0
 276 681 279 685 281 690 c 1
 242 690 l 1
 244 685 246 681 246 677 c 0
 246 662 235 651 222 651 c 0
 207 651 196 662 196 677 c 0
 196 681 198 685 200 690 c 1
 187 690 l 1
 187 670 l 1
 187 664 l 1
 187 644 l 1
 187 638 l 1
 187 633 l 1xa6eb2aa0
 198 629 205 620 205 609 c 0
 205 596 198 588 187 585 c 1
 187 566 l 1xa6f72aa0
118 65 m 2
 157 26 l 1
 157 50 l 1
 152 54 148 61 148 67 c 0
 148 76 152 83 157 87 c 1
 157 126 l 1
 152 118 144 111 135 111 c 0x66f72520
 122 111 109 122 109 135 c 0x8af652a0
 109 150 122 161 135 161 c 0x96f72aa0
 144 161 152 154 157 146 c 1
 157 146 l 1xa6f72aa0
 157 187 l 1
 152 191 150 196 150 202 c 0
 150 209 152 215 157 220 c 1
 157 257 l 1
 152 250 146 246 137 246 c 0
 124 246 115 255 113 263 c 1
 81 263 l 1
 76 255 67 246 57 246 c 0
 46 246 37 252 35 261 c 2
 35 220 l 2
 37 215 39 209 39 202 c 0
 39 196 37 191 35 187 c 2
 35 150 l 1
 35 150 l 1
 39 157 46 161 54 161 c 0x96f72aa0
 67 161 78 148 78 135 c 0
 78 126 74 120 70 115 c 1x8af6aaa0
 91 94 l 1
 91 94 94 94 94 94 c 2
 107 94 118 81 118 67 c 2
 118 67 118 67 118 65 c 2
344 91 m 2
 361 109 l 1
 366 113 l 1
 357 118 350 126 350 135 c 1
 320 135 l 1x8af72920
 318 122 307 111 294 111 c 0xa6f72aa0
 281 111 270 122 270 135 c 1
 268 135 l 1
 239 135 l 1x8af72aa0
 239 122 229 111 215 111 c 0xa6f72aa0
 200 111 189 122 189 135 c 1
 168 135 l 1
 168 115 l 1
 168 109 l 1
 168 91 l 2
 170 94 172 94 174 94 c 0
 187 94 198 83 198 67 c 0
 198 54 187 44 174 44 c 0
 172 44 170 44 168 44 c 2
 168 37 l 1
 168 33 l 1
 168 11 l 1x4af652a0
 192 11 l 1
 196 20 202 26 213 26 c 0
 222 26 231 20 235 11 c 1
 263 11 l 1
 285 33 l 1
 289 37 l 1
 309 59 l 1
 311 59 l 2
 309 61 309 65 309 67 c 0
 309 83 320 94 333 94 c 0
 337 94 339 91 344 91 c 2
403 551 m 1
 403 555 l 1xa6eb2aa0
 403 566 l 1
 403 592 l 1
 398 596 396 603 396 609 c 0
 396 616 398 620 403 625 c 1
 403 664 l 1
 398 657 390 653 381 653 c 1
 381 653 381 653 381 653 c 1
 376 648 l 1
 357 629 l 1
 357 629 l 1xa6f72aa0
 361 622 366 616 366 609 c 0
 366 596 355 583 339 583 c 0
 333 583 326 588 322 594 c 1
 305 577 l 1
 300 572 l 1
 294 566 l 2
 296 566 298 566 300 566 c 0
 313 566 324 555 324 542 c 0
 324 527 313 516 300 516 c 0
 292 516 283 520 279 527 c 1
 279 487 l 2
 281 483 283 479 283 474 c 0
 283 468 281 463 279 459 c 2
 279 422 l 1
 283 426 289 431 298 431 c 0
 311 431 322 420 322 407 c 0
 322 392 311 381 298 381 c 0
 289 381 283 385 279 390 c 1
 279 350 l 2
 281 346 281 342 281 339 c 0
 281 335 281 331 279 329 c 2
 279 289 l 1
 283 294 289 296 296 296 c 0
 309 296 320 285 320 272 c 0
 320 257 309 246 296 246 c 0
 289 246 283 248 279 252 c 1
 279 209 l 2
 281 207 281 205 281 202 c 0
 281 200 281 198 279 198 c 2
 279 154 l 1
 283 159 289 161 294 161 c 0x95f72520
 305 161 313 154 318 146 c 1
 324 146 l 1
 331 146 l 1
 350 146 l 1
 353 146 l 1xa6f72aa0
 355 154 363 161 374 161 c 0x96f72aa0
 385 161 394 154 396 146 c 1
 403 146 l 1xa6f72aa0
 403 183 l 1
 396 187 392 196 392 205 c 0
 392 213 396 220 403 224 c 1
 403 320 l 1
 396 324 392 331 392 339 c 0
 392 346 396 355 403 359 c 1
 403 403 l 2
 400 392 390 381 379 381 c 0
 363 381 353 392 353 407 c 0
 353 420 363 431 379 431 c 0
 390 431 400 422 403 409 c 2
 403 455 l 1
 398 459 394 466 394 474 c 0
 394 481 398 487 403 492 c 1
 403 531 l 1
 398 522 390 516 379 516 c 0
 366 516 355 529 355 542 c 0
 355 555 366 566 379 566 c 0
 390 566 398 559 403 551 c 1
413 566 m 1xa6f72a40
 474 566 l 1xa6f72a40
 474 588 l 1
 474 592 l 1
 474 611 l 1
 474 618 l 1
 474 638 l 1
 474 644 l 1
 474 657 l 1
 470 653 466 653 461 653 c 0
 448 653 437 664 437 677 c 0
 437 681 437 685 440 690 c 1
 413 690 l 1
 413 633 l 2xa6eb2a40
 416 633 418 633 420 633 c 0
 433 633 446 622 446 609 c 0xa6eb2aa0
 446 596 433 585 420 585 c 0
 418 585 416 585 413 585 c 2
 413 566 l 1xa6f72a40
261 633 m 0x65f6a4a0
 274 633 285 622 285 609 c 0
 285 594 274 583 261 583 c 0
 246 583 235 594 235 609 c 0
 235 622 246 633 261 633 c 0x65f6a4a0
313 474 m 0
 313 487 324 498 339 498 c 0
 353 498 363 487 363 474 c 0
 363 459 353 448 339 448 c 0
 324 448 313 459 313 474 c 0
313 339 m 0
 313 353 324 363 337 363 c 0
 350 363 361 353 361 339 c 0
 361 324 350 313 337 313 c 0
 324 313 313 324 313 339 c 0
353 272 m 0
 353 285 363 296 376 296 c 0
 390 296 400 285 400 272 c 0
 400 257 390 246 376 246 c 0
 363 246 353 257 353 272 c 0
120 202 m 0
 120 189 109 178 96 178 c 0
 83 178 70 189 70 202 c 0
 70 218 83 228 96 228 c 0
 109 228 120 218 120 202 c 0
335 228 m 0
 348 228 359 218 359 205 c 0
 359 189 348 178 335 178 c 0
 322 178 311 189 311 205 c 0
 311 218 322 228 335 228 c 0
255 94 m 0
 268 94 279 83 279 67 c 0
 279 54 268 44 255 44 c 0
 239 44 229 54 229 67 c 0
 229 83 239 94 255 94 c 0
EndSplineSet
EndChar
StartChar: K
Encoding: 75 75 10
Width: 536
Flags: MW
HStem: -2 21G<438 438> 0 61<93 107.5 41 107.5> 79 50<59 68> 149 48<95.5 108.5 257 258 257 263 335.5 349.5> 216 48<60 69 138.5 144 143 149.5 216.5 230.5 303 309> 284 48<104 110.5 177 191.5> 352 48<62.5 71.5 148 150.5> 419 51 487 50<300.5 313.5> 555 48<99.5 113.5> 622 48<63.5 74.5 141 155.5> 622 79<63.5 74.5 141 155.5>
VStem: 41 45<50 111.5 98.5 111.5 98.5 118 98.5 155 98.5 188 233.5 246.5> 41 63<188 284 229 284 264 284 264 288 264 325 332 373 373 378 378 419> 80 48<302.5 312.5> 93 35 121 51<463 517.5 509 517.5 509 517.5> 159 26<167.5 178> 159 52 174 78<504.5 516.5 504.5 557 504.5 557> 200 52 237 50<170.5 179.5> 279 50<233.5 242.5 233.5 246.5 233.5 288> 324 49<572.5 586.5> 364 50 399 48<28 43.5 28 43.5 32.5 44> 445 43
LayerCount: 2
Back
Fore
SplineSet
213 349 m 1x7fd94940
 525 116 l 1
 525 116 l 1
 525 116 l 1
 519 105 l 1
 519 105 l 1
 438 -2 l 1xbfe88aa0
 421 13 l 1
 421 13 421 13 421 13 c 1
 399 28 l 1
 399 28 399 28 399 28 c 1
 320 87 l 1
 320 87 320 87 320 87 c 1
 281 118 l 1
 281 118 l 1
 204 175 l 1
 185 190 l 1
 185 149 l 1
 185 61 l 1
 185 13 l 1
 185 0 l 1
 41 0 l 1
 41 22 l 1
 41 50 l 1
 41 92 l 1
 41 118 l 1
 41 155 l 1
 41 188 l 1
 41 229 l 1
 41 249 l 1
 41 288 l 1
 41 325 l 1
 41 373 l 1
 41 378 l 1
 41 424 l 1
 41 463 l 1
 41 557 l 1
 41 601 l 1
 41 692 l 1
 41 701 l 1
 41 701 l 1
 185 701 l 1
 185 701 l 1
 185 690 l 1
 185 603 l 1
 185 555 l 1
 185 511 l 1
 438 701 l 1
 525 585 l 1
 460 535 l 1
 460 535 l 1
 447 526 l 1
 447 526 l 1
 355 456 l 1
 324 432 l 1
 324 432 324 432 324 432 c 1
 250 378 l 1
 250 378 l 1
 217 352 l 1
 217 352 l 1
 213 349 l 1x7fd94940
202 509 m 1
 185 498 l 1
 185 498 l 1
 183 496 l 1
 128 454 l 1x7fe24aa0
 130 450 130 448 130 443 c 0
 130 435 126 428 119 424 c 1
 121 424 l 1
 124 419 l 1
 124 417 l 1
 148 400 l 1
 156 400 165 393 167 384 c 1
 204 356 l 1
 207 358 l 1
 202 363 200 369 200 376 c 0
 200 389 211 400 224 400 c 0
 235 400 241 395 246 389 c 1
 322 446 l 1
 322 459 333 470 346 470 c 0
 349 470 351 467 353 467 c 2
 379 489 l 1
 370 491 364 500 364 511 c 0
 364 526 375 537 388 537 c 0
 401 537 412 526 412 513 c 1
 486 570 l 2
 484 572 484 577 484 579 c 0
 484 590 490 598 499 603 c 1
 499 603 l 1
 495 607 l 1
 482 625 l 1
 482 627 l 1
 477 625 473 622 469 622 c 0
 456 622 445 633 445 646 c 0
 445 655 447 660 451 664 c 1
 451 666 l 1
 449 670 l 1
 436 686 l 1
 407 664 l 1
 412 660 414 653 414 646 c 0
 414 633 403 622 390 622 c 0
 379 622 373 627 368 636 c 1
 292 579 l 1
 292 566 281 555 268 555 c 0
 266 555 263 555 263 555 c 1
 235 535 l 1
 244 531 252 522 252 511 c 0
 252 498 241 487 226 487 c 0
 213 487 202 498 202 509 c 1
154 11 m 1
 174 11 l 1
 174 13 l 1
 163 15 156 26 156 37 c 0
 156 48 163 59 174 61 c 1
 174 149 l 1x7fe91140
 165 153 159 162 159 173 c 0x7fe94aa0
 159 183 165 192 174 197 c 1
 174 197 l 1
 150 216 l 2
 148 216 145 216 143 216 c 0
 130 216 119 227 119 240 c 1
 119 240 119 240 119 240 c 1
 93 260 l 1
 93 286 l 1x7fe912a0
 84 290 80 297 80 308 c 0x7fe24aa0
 80 317 84 325 93 330 c 1
 93 422 l 1x7fe94aa0
 86 426 80 435 80 443 c 0x7fe24aa0
 80 456 91 467 106 467 c 0
 110 467 117 465 121 463 c 2
 154 487 l 2
 152 487 150 487 145 487 c 0
 132 487 121 498 121 511 c 0
 121 524 132 535 145 535 c 0
 161 535 172 524 172 511 c 0x7fe892a0
 172 507 169 500 167 496 c 2
 174 502 l 1
 174 557 l 1
 167 561 163 570 163 579 c 0
 163 587 167 596 174 601 c 1
 174 690 l 1
 154 690 l 1
 150 690 l 1
 128 690 l 1
 124 690 l 1
 110 690 l 1
 110 690 108 690 108 690 c 1
 108 690 108 690 108 690 c 1
 102 690 l 1
 97 690 l 1
 78 690 l 1
 71 690 l 1
 51 690 l 1
 51 664 l 1
 56 668 60 670 67 670 c 0
 82 670 93 660 93 646 c 0
 93 633 82 622 67 622 c 0
 60 622 56 625 51 629 c 1
 51 583 l 1
 51 583 51 581 51 579 c 0
 51 577 51 574 51 574 c 1
 51 531 l 1
 56 533 60 535 67 535 c 0
 80 535 91 524 91 511 c 0
 91 498 80 487 67 487 c 0
 60 487 56 489 51 491 c 1
 51 395 l 1
 56 400 60 400 65 400 c 0
 78 400 89 389 89 376 c 0
 89 363 78 352 65 352 c 0
 60 352 56 352 51 354 c 1
 51 262 l 2
 54 264 58 264 62 264 c 0
 76 264 86 253 86 240 c 0
 86 227 76 216 62 216 c 0
 58 216 54 216 51 218 c 2
 51 127 l 2
 54 129 58 129 60 129 c 0
 76 129 86 118 86 105 c 0x7fe912a0
 86 92 76 79 60 79 c 0
 58 79 54 81 51 81 c 2
 51 11 l 1
 71 11 l 1
 78 11 l 1
 97 11 l 1
 102 11 l 1
 124 11 l 1
 128 11 l 1
 150 11 l 1
 154 11 l 1
436 13 m 1
 510 114 l 1
 445 162 l 1x7fe91120
 442 153 434 149 423 149 c 0
 410 149 399 159 399 173 c 0
 399 179 401 186 407 190 c 1
 324 253 l 2x7fe94940
 327 249 329 245 329 240 c 0
 329 227 318 216 303 216 c 0
 290 216 279 227 279 240 c 0
 279 253 290 264 303 264 c 0
 305 264 307 264 309 264 c 2
 279 288 l 1
 274 286 270 284 263 284 c 0
 250 284 239 295 239 308 c 0
 239 310 239 314 241 317 c 2
 204 343 l 1
 204 343 l 1
 196 349 l 1
 196 349 l 1
 169 371 l 1
 167 358 156 352 145 352 c 0
 130 352 119 363 119 376 c 0
 119 384 126 393 132 397 c 1
 117 408 l 1
 117 408 l 1
 104 419 l 1
 104 419 104 419 104 419 c 1
 104 332 l 1x7fe492a0
 117 332 128 321 128 308 c 0x7fe24aa0
 128 295 117 284 104 284 c 1
 104 264 l 1
 121 251 l 1
 126 260 134 264 143 264 c 0
 156 264 167 253 167 240 c 0
 167 234 165 227 161 223 c 1
 241 162 l 2
 239 164 237 168 237 173 c 0
 237 186 248 197 263 197 c 0
 276 197 287 186 287 173 c 0
 287 159 276 149 263 149 c 0
 261 149 259 149 257 149 c 2
 287 124 l 1x7fe48540
 292 129 296 129 303 129 c 0
 316 129 327 118 327 105 c 0
 327 103 327 100 324 98 c 2
 399 44 l 1
 401 55 410 61 421 61 c 0
 436 61 447 50 447 37 c 0
 447 28 440 20 434 15 c 1
 436 13 l 1
148 622 m 0
 134 622 124 633 124 646 c 0
 124 660 134 670 148 670 c 0
 163 670 174 660 174 646 c 0
 174 633 163 622 148 622 c 0
132 579 m 0
 132 566 121 555 106 555 c 0
 93 555 82 566 82 579 c 0
 82 592 93 603 106 603 c 0
 121 603 132 592 132 579 c 0
349 555 m 0
 335 555 324 566 324 579 c 0
 324 594 335 605 349 605 c 0
 362 605 373 594 373 579 c 0
 373 566 362 555 349 555 c 0
429 555 m 0
 414 555 403 566 403 579 c 0
 403 594 414 605 429 605 c 0
 442 605 453 594 453 579 c 0
 453 566 442 555 429 555 c 0
307 487 m 0
 294 487 283 498 283 511 c 0
 283 524 294 537 307 537 c 0
 320 537 331 524 331 511 c 0
 331 498 320 487 307 487 c 0
161 443 m 0
 161 456 172 467 185 467 c 0x7fe94aa0
 200 467 211 456 211 443 c 0x7fe92540
 211 430 200 419 185 419 c 0x7fe94aa0
 172 419 161 430 161 443 c 0
266 419 m 0
 252 419 241 430 241 443 c 0
 241 456 252 467 266 467 c 0
 281 467 292 456 292 443 c 0
 292 430 281 419 266 419 c 0
209 308 m 0
 209 295 198 284 185 284 c 0
 169 284 159 295 159 308 c 0
 159 321 169 332 185 332 c 0
 198 332 209 321 209 308 c 0
224 264 m 0
 237 264 248 253 248 240 c 0
 248 227 237 216 224 216 c 0
 209 216 198 227 198 240 c 0
 198 253 209 264 224 264 c 0
126 173 m 0
 126 159 115 149 102 149 c 0
 89 149 78 159 78 173 c 0
 78 186 89 197 102 197 c 0
 115 197 126 186 126 173 c 0
368 173 m 0
 368 159 357 149 342 149 c 0
 329 149 318 159 318 173 c 0
 318 186 329 197 342 197 c 0
 357 197 368 186 368 173 c 0
165 105 m 0
 165 92 154 81 141 81 c 0
 128 81 117 92 117 105 c 0
 117 118 128 129 141 129 c 0
 154 129 165 118 165 105 c 0
381 129 m 0
 397 129 407 118 407 105 c 0
 407 92 397 81 381 81 c 0
 368 81 357 92 357 105 c 0
 357 118 368 129 381 129 c 0
438 105 m 0
 438 118 449 129 462 129 c 0
 477 129 488 118 488 105 c 0
 488 92 477 81 462 81 c 0
 449 81 438 92 438 105 c 0
100 61 m 0
 115 61 126 50 126 37 c 0
 126 24 115 11 100 11 c 0
 86 11 76 24 76 37 c 0
 76 50 86 61 100 61 c 0
EndSplineSet
EndChar
StartChar: L
Encoding: 76 76 11
Width: 446
Flags: MW
HStem: 0 68<200.5 213.5 125 165> 20 48<200.5 213.5> 87 59<96 96 165 174 241.5 254.5 321.5 335.5 400.5 410.5> 135 68<48 55.5 44.5 82 48 48 44.5 93 121.5 134.5> 155 48<44.5 55.5 121.5 134.5> 222 48<82.5 95.5> 290 50<123.5 137> 358 50<84.5 97.5> 425 50<47.5 58.5 125 138.5> 493 50<85.5 99.5> 560 50<48.5 60.5 126.5 138.5> 628 50<86.5 101> 628 74<21 39 86.5 101>
VStem: 21 53<172.5 185.5 307.5 320.5> 69 51<645.5 659.5> 106 48<307.5 320.5 442.5 443> 183 48<37.5 50.5> 263 48<37.5 50.5> 342 50<37.5 51.5> 342 91<37.5 51.5>
LayerCount: 2
Back
Fore
SplineSet
120 652 m 0xaff2e0
 120 639 109 628 93 628 c 0
 80 628 69 639 69 652 c 0
 69 667 80 678 93 678 c 0
 109 678 120 667 120 652 c 0xaff2e0
117 517 m 0
 117 504 106 493 93 493 c 0
 78 493 67 504 67 517 c 0
 67 532 78 543 93 543 c 0
 106 543 117 532 117 517 c 0
115 381 m 0
 115 368 104 358 91 358 c 0
 78 358 67 368 67 381 c 0
 67 395 78 408 91 408 c 0
 104 408 115 395 115 381 c 0
106 314 m 0x6ff5e0
 106 327 117 340 130 340 c 0
 144 340 154 327 154 314 c 0
 154 301 144 290 130 290 c 0
 117 290 106 301 106 314 c 0x6ff5e0
113 246 m 0
 113 233 102 222 89 222 c 0
 76 222 65 233 65 246 c 0
 65 259 76 270 89 270 c 0
 102 270 113 259 113 246 c 0
104 179 m 0
 104 192 115 203 128 203 c 0
 141 203 152 192 152 179 c 0
 152 166 141 155 128 155 c 0
 115 155 104 166 104 179 c 0
207 68 m 0
 220 68 231 57 231 44 c 0
 231 31 220 20 207 20 c 0
 194 20 183 31 183 44 c 0
 183 57 194 68 207 68 c 0
287 70 m 0
 300 70 311 57 311 44 c 0
 311 31 300 20 287 20 c 0
 274 20 263 31 263 44 c 0
 263 57 274 70 287 70 c 0
368 70 m 0
 381 70 392 59 392 44 c 0
 392 31 381 20 368 20 c 0
 353 20 342 31 342 44 c 0
 342 59 353 70 368 70 c 0
433 65 m 1xafead0
 433 24 l 1
 433 24 l 1
 433 0 l 1
 412 0 l 1
 401 0 l 1
 331 0 l 1
 322 0 l 1
 248 0 l 1
 244 0 l 1
 165 0 l 1
 78 89 l 1
 78 89 l 1
 74 94 l 1
 21 146 l 1
 21 225 l 1
 21 268 l 1
 21 360 l 1
 21 405 l 1
 21 495 l 1
 21 541 l 1
 21 628 l 1
 21 676 l 1
 21 702 l 1xafedd0
 39 702 l 1
 72 702 l 1
 120 702 l 1
 152 702 l 1
 165 702 l 1
 165 676 l 1
 165 630 l 1
 165 541 l 1
 165 495 l 1
 165 405 l 1
 165 358 l 1
 165 270 l 1
 165 222 l 1
 165 146 l 1
 433 146 l 1
 433 65 l 1
 433 65 l 1xafead0
423 133 m 2
 423 135 l 1
 416 135 l 2x97f5e0
 418 135 420 133 423 133 c 2
32 161 m 1
 32 146 l 1
 52 146 l 1
 58 146 l 1
 78 146 l 1
 82 146 l 1
 104 146 l 1
 109 146 l 1
 130 146 l 1
 135 146 l 1
 154 146 l 1
 154 227 l 1
 150 231 146 238 146 246 c 0
 146 255 150 262 154 266 c 1
 154 364 l 1
 150 368 146 375 146 381 c 0
 146 390 150 397 154 401 c 1
 154 443 l 2
 152 432 144 425 133 425 c 0
 117 425 106 436 106 449 c 0
 106 464 117 475 133 475 c 0
 144 475 152 467 154 458 c 2
 154 501 l 1
 150 506 148 510 148 517 c 0
 148 523 150 530 154 534 c 1
 154 573 l 1
 150 565 144 560 133 560 c 0
 120 560 109 571 109 584 c 0
 109 599 120 610 133 610 c 0
 144 610 150 604 154 597 c 1
 154 639 l 2
 152 641 150 647 150 652 c 0
 150 658 152 665 154 667 c 2
 154 691 l 1
 135 691 l 1
 130 691 l 1
 109 691 l 1
 104 691 l 1
 82 691 l 1
 78 691 l 1
 58 691 l 1
 52 691 l 1
 32 691 l 1
 32 669 l 1
 37 665 39 658 39 652 c 0
 39 645 37 639 32 634 c 1
 32 597 l 1
 37 604 43 610 54 610 c 0
 67 610 78 599 78 584 c 0
 78 571 67 560 54 560 c 0
 43 560 37 565 32 573 c 1
 32 532 l 2
 35 528 37 523 37 517 c 0
 37 512 35 506 32 501 c 2
 32 464 l 1
 37 471 43 475 52 475 c 0
 65 475 76 462 76 449 c 0
 76 436 65 425 52 425 c 0
 43 425 37 429 32 436 c 1
 32 395 l 2
 35 390 35 386 35 381 c 0
 35 377 35 373 32 368 c 2
 32 331 l 1
 37 336 43 338 50 338 c 0
 63 338 74 327 74 314 c 0
 74 301 63 290 50 290 c 0
 43 290 37 292 32 299 c 1
 32 257 l 2
 32 253 35 251 35 246 c 0
 35 242 32 240 32 238 c 2
 32 196 l 1
 37 201 41 203 48 203 c 0
 63 203 74 192 74 179 c 0
 74 166 63 155 48 155 c 0xaff5e0
 41 155 37 157 32 161 c 1
82 135 m 2x97f5e0
 48 135 l 1
 65 118 l 1
 67 126 74 133 82 135 c 2x97f5e0
170 11 m 1
 423 11 l 1
 423 92 l 1
 418 89 414 87 407 87 c 0xaff5e0
 394 87 383 98 383 111 c 0
 383 122 390 131 401 135 c 1
 335 135 l 2x97f5e0
 346 133 353 122 353 111 c 0
 353 98 342 87 329 87 c 0xaff5e0
 314 87 303 98 303 111 c 0
 303 122 311 133 320 135 c 2
 255 135 l 2x97f5e0
 266 133 272 122 272 111 c 0
 272 98 261 87 248 87 c 0xaff5e0
 235 87 224 98 224 111 c 0
 224 122 231 133 242 135 c 2
 174 135 l 2x97f5e0
 185 133 191 122 191 111 c 0
 191 98 181 87 167 87 c 0xaff5e0
 154 87 144 98 144 111 c 0
 144 122 150 133 161 135 c 2
 93 135 l 2x97f5e0
 104 133 113 122 113 111 c 0
 113 100 104 92 96 87 c 1xaff5e0
 117 65 l 1
 120 68 124 68 126 68 c 0
 141 68 152 57 152 44 c 0
 152 39 150 37 150 33 c 2
 170 11 l 1
EndSplineSet
EndChar
